<svg width="120" height="120" viewBox="0 0 120 120" fill="none" xmlns="http://www.w3.org/2000/svg">
<path d="M65.2504 97.1C62.5504 97.1 59.7004 96.85 56.6004 96.35L33.1504 92.65C25.7504 91.5 20.0504 89.45 15.8004 86.45C4.85042 78.85 5.50042 65.8 6.90042 56.65L10.6004 33.2C14.0004 11.7 25.1004 3.65001 46.6004 7.00001L70.0504 10.7C81.1004 12.45 95.9504 16.9 96.9004 35.55C97.1004 38.75 96.9004 42.4 96.2004 46.7L92.5504 70.15C89.6504 88.5 81.1004 97.1 65.2504 97.1ZM37.6504 13.75C25.7504 13.75 20.3504 19.8 18.0004 34.4L14.3004 57.85C12.0004 72.6 16.2004 77.6 20.1004 80.35C23.4004 82.7 28.0504 84.3 34.3004 85.25L57.7504 88.95C75.2004 91.7 82.4004 86.45 85.1504 68.95L88.8004 45.5C89.4004 41.75 89.6004 38.6 89.4004 35.95V35.9C88.8504 25.4 82.9004 20.25 68.8504 18.05L45.4504 14.4C42.5504 13.95 40.0004 13.75 37.6504 13.75Z" fill="#ED6A06"/>
<path d="M73.4003 113.75C69.1503 113.75 64.3503 112.85 58.8003 111L36.2503 103.5C23.4003 99.25 16.4503 93.15 14.3503 84.25C14.0003 82.75 14.6003 81.15 15.9003 80.3C17.2003 79.45 18.9003 79.45 20.1503 80.35C23.4503 82.7 28.0503 84.3 34.3003 85.25L57.7503 88.95C75.2003 91.7 82.4003 86.45 85.1503 68.95L88.8003 45.5C89.4003 41.75 89.6003 38.6 89.4003 35.95C89.3503 34.65 90.0003 33.35 91.1503 32.6C92.3003 31.85 93.7503 31.8 94.9503 32.45C108.35 39.6 111.9 51.05 106.1 68.55L98.6003 91.1C95.0503 101.7 90.4003 108.2 83.9003 111.45C80.7503 113 77.3003 113.75 73.4003 113.75ZM28.6503 91.8C31.0503 93.4 34.2503 94.95 38.6003 96.4L61.1503 103.9C69.7503 106.75 75.9003 107 80.5003 104.75C85.1003 102.45 88.6003 97.35 91.4503 88.75L98.9503 66.2C103.05 53.8 101.45 47.2 96.7003 42.75C96.6003 44 96.4003 45.3 96.2003 46.7L92.5503 70.15C89.1503 91.65 78.0503 99.7 56.5503 96.4L33.1003 92.7C31.5503 92.4 30.0503 92.1 28.6503 91.8Z" fill="#ED6A06"/>
<path d="M41.2 48.6C34.35 48.6 28.75 43 28.75 36.15C28.75 29.3 34.35 23.7 41.2 23.7C48.05 23.7 53.65 29.3 53.65 36.15C53.65 43 48.05 48.6 41.2 48.6ZM41.2 31.25C38.5 31.25 36.25 33.45 36.25 36.2C36.25 38.95 38.45 41.15 41.2 41.15C43.9 41.15 46.15 38.95 46.15 36.2C46.15 33.45 43.9 31.25 41.2 31.25Z" fill="#ED6A06"/>
</svg>
