<svg width="120" height="120" viewBox="0 0 120 120" fill="none" xmlns="http://www.w3.org/2000/svg">
<path d="M60 113.75C30.35 113.75 6.25 89.65 6.25 60C6.25 30.35 30.35 6.25 60 6.25C89.65 6.25 113.75 30.35 113.75 60C113.75 89.65 89.65 113.75 60 113.75ZM60 13.75C34.5 13.75 13.75 34.5 13.75 60C13.75 85.5 34.5 106.25 60 106.25C85.5 106.25 106.25 85.5 106.25 60C106.25 34.5 85.5 13.75 60 13.75Z" fill="#ED6A06"/>
<path d="M78.5502 79.65C77.9002 79.65 77.2502 79.5 76.6502 79.1L61.1502 69.85C57.3002 67.55 54.4502 62.5 54.4502 58.05V37.55C54.4502 35.5 56.1502 33.8 58.2002 33.8C60.2502 33.8 61.9502 35.5 61.9502 37.55V58.05C61.9502 59.85 63.4502 62.5 65.0002 63.4L80.5002 72.65C82.3002 73.7 82.8502 76 81.8002 77.8C81.0502 79 79.8002 79.65 78.5502 79.65Z" fill="#ED6A06"/>
</svg>
