<svg width="70" height="34" viewBox="0 0 70 34" fill="none" xmlns="http://www.w3.org/2000/svg">
<rect width="70" height="34" fill="white"/>
<path d="M5.06858 24.9718C5.15274 25.3214 5.40318 25.5289 5.86711 25.5289C6.38442 25.5289 6.58148 25.2888 6.58148 25.0006C6.58148 24.7125 6.43984 24.5185 5.81785 24.3744C5.19585 24.2304 4.96389 24.0536 4.96389 23.6733C4.96389 23.3256 5.23486 23.001 5.83837 23.001C6.44189 23.001 6.72312 23.3544 6.75802 23.6771H6.53222C6.46858 23.3928 6.27151 23.1892 5.82606 23.1892C5.4155 23.1892 5.19791 23.3659 5.19791 23.6618C5.19791 23.9576 5.38266 24.0652 5.90406 24.1862C6.69849 24.3783 6.8155 24.6683 6.8155 24.9853C6.8155 25.3695 6.51374 25.7114 5.8589 25.7114C5.15274 25.7114 4.89409 25.3272 4.84277 24.9718H5.06858Z" fill="#374C9B"/>
<path d="M9.38896 24.7318C9.38896 25.2562 9.07899 25.7249 8.47752 25.7249C7.93148 25.7249 7.59277 25.3061 7.59277 24.7356C7.59277 24.1958 7.91301 23.7463 8.49805 23.7463C9.03178 23.7463 9.38896 24.1382 9.38896 24.7318ZM7.80626 24.7318C7.80626 25.1813 8.06491 25.5424 8.49395 25.5424C8.92298 25.5424 9.17547 25.2062 9.17547 24.7318C9.17547 24.2573 8.93324 23.9192 8.48573 23.9192C8.03823 23.9192 7.8001 24.2823 7.8001 24.7356L7.80626 24.7318Z" fill="#374C9B"/>
<path d="M10.2764 25.6787V22.8972H10.4816V25.6787H10.2764Z" fill="#374C9B"/>
<path d="M13.037 25.1272C13.037 25.3193 13.037 25.6075 13.037 25.6785H12.8318C12.8212 25.5693 12.817 25.4597 12.8194 25.3501C12.772 25.4716 12.6821 25.5746 12.5645 25.6425C12.4468 25.7105 12.3081 25.7394 12.1708 25.7246C11.8793 25.7246 11.5098 25.619 11.5098 25.0408V23.7903H11.715V24.9947C11.715 25.2713 11.8074 25.5383 12.2077 25.5383C12.6593 25.5383 12.8235 25.302 12.8235 24.7699V23.798H13.0288L13.037 25.1272Z" fill="#374C9B"/>
<path d="M13.832 23.7904H14.2077V23.2026H14.413V23.7904H14.8933V23.9691H14.4089V25.1965C14.4089 25.4078 14.4561 25.5269 14.6511 25.5269C14.7202 25.5289 14.7893 25.5217 14.8564 25.5058V25.671C14.7758 25.6967 14.691 25.7084 14.6059 25.7056C14.3473 25.7056 14.1954 25.5846 14.1954 25.283V23.9691H13.832V23.7904Z" fill="#374C9B"/>
<path d="M15.6875 22.8972H15.8928V23.2622H15.6875V22.8972ZM15.6875 23.7904H15.8928V25.6787H15.6875V23.7904Z" fill="#374C9B"/>
<path d="M18.5715 24.7318C18.5715 25.2562 18.2615 25.7249 17.66 25.7249C17.1161 25.7249 16.7773 25.3061 16.7773 24.7356C16.7773 24.1958 17.0955 23.7463 17.6806 23.7463C18.2163 23.7463 18.5715 24.1382 18.5715 24.7318ZM16.9908 24.7318C16.9908 25.1813 17.2474 25.5424 17.6765 25.5424C18.1055 25.5424 18.358 25.2062 18.358 24.7318C18.358 24.2573 18.1158 23.9192 17.6683 23.9192C17.2207 23.9192 16.9908 24.2823 16.9908 24.7356V24.7318Z" fill="#374C9B"/>
<path d="M19.4582 24.2667C19.4582 24.1015 19.4582 23.9421 19.4582 23.7904H19.6635C19.6635 23.8518 19.6758 24.0977 19.6635 24.1496C19.7128 24.0232 19.8048 23.9155 19.9256 23.8426C20.0465 23.7698 20.1894 23.7359 20.3327 23.7462C20.6919 23.7462 21.0101 23.9383 21.0101 24.455V25.6786H20.8048V24.4857C20.8048 24.1496 20.655 23.9306 20.304 23.9306C19.8236 23.9306 19.6594 24.3148 19.6594 24.7162V25.6767H19.4541L19.4582 24.2667Z" fill="#374C9B"/>
<path d="M22.0452 25.1639C22.0745 25.2821 22.1488 25.3863 22.2542 25.457C22.3596 25.5277 22.4889 25.5601 22.6179 25.5481C22.9772 25.5481 23.1229 25.3944 23.1229 25.1831C23.1229 24.9718 23.0265 24.8623 22.5748 24.7605C22.0534 24.6433 21.9241 24.4954 21.9241 24.2457C21.9241 23.996 22.1294 23.7443 22.5913 23.7443C22.7596 23.7276 22.9282 23.7737 23.0604 23.8726C23.1927 23.9715 23.2778 24.1152 23.2974 24.2726H23.0921C23.0697 24.1644 23.0048 24.0679 22.9102 24.0021C22.8157 23.9364 22.6982 23.9061 22.581 23.9172C22.23 23.9172 22.1294 24.0805 22.1294 24.2303C22.1294 24.3802 22.2259 24.4916 22.6241 24.5819C23.1948 24.7106 23.3344 24.8834 23.3344 25.1581C23.3344 25.502 23.0367 25.7133 22.6138 25.7133C22.152 25.7133 21.8954 25.4866 21.8379 25.1466L22.0452 25.1639Z" fill="#374C9B"/>
<path d="M25.7458 24.9718C25.83 25.3214 26.0804 25.5289 26.5444 25.5289C27.0596 25.5289 27.2587 25.2888 27.2587 25.0006C27.2587 24.7125 27.1171 24.5185 26.4951 24.3744C25.8731 24.2304 25.6411 24.0536 25.6411 23.6733C25.6411 23.3256 25.9101 23.001 26.5156 23.001C27.1212 23.001 27.3983 23.3544 27.4353 23.6771H27.2095C27.1458 23.3928 26.9467 23.1892 26.5033 23.1892C26.0928 23.1892 25.8731 23.3659 25.8731 23.6618C25.8731 23.9576 26.0599 24.0652 26.5793 24.1862C27.3757 24.3783 27.4928 24.6683 27.4928 24.9853C27.4928 25.3695 27.1889 25.7114 26.5362 25.7114C25.83 25.7114 25.5713 25.3272 25.5098 24.9718H25.7458Z" fill="#374C9B"/>
<path d="M29.8128 25.3196C29.8121 25.4397 29.821 25.5598 29.8395 25.6788H29.6465C29.6217 25.5838 29.6093 25.4864 29.6096 25.3887C29.5485 25.5006 29.4527 25.5926 29.3347 25.6526C29.2167 25.7126 29.0821 25.7378 28.9486 25.7249C28.8637 25.7339 28.7778 25.7259 28.6965 25.7014C28.6153 25.6769 28.5405 25.6366 28.4772 25.583C28.4139 25.5294 28.3635 25.4637 28.3294 25.3905C28.2953 25.3173 28.2782 25.2381 28.2793 25.1582C28.2793 24.7433 28.6222 24.5531 29.2277 24.5531H29.6096V24.361C29.6096 24.1689 29.55 23.9192 29.0902 23.9192C28.6796 23.9192 28.6222 24.1113 28.577 24.2746H28.3717C28.3964 24.0671 28.5339 23.7463 29.0902 23.7463C29.55 23.7463 29.8087 23.9269 29.8087 24.3418L29.8128 25.3196ZM29.6075 24.7164H29.2134C28.7659 24.7164 28.4867 24.8259 28.4867 25.1505C28.4838 25.2067 28.4941 25.2629 28.5169 25.3149C28.5397 25.367 28.5745 25.4138 28.6187 25.4519C28.663 25.49 28.7156 25.5186 28.773 25.5355C28.8304 25.5525 28.891 25.5574 28.9506 25.5501C29.5274 25.5501 29.6075 25.1928 29.6075 24.7817V24.7164Z" fill="#374C9B"/>
<path d="M30.8652 24.3053C30.8652 23.9884 30.8652 23.852 30.8652 23.7905H31.0705C31.0705 23.852 31.0705 23.9826 31.0705 24.215C31.1234 24.0798 31.2188 23.9627 31.3441 23.8791C31.4693 23.7954 31.6187 23.7492 31.7726 23.7463V23.95C31.673 23.9529 31.5751 23.975 31.4849 24.0148C31.3948 24.0546 31.3144 24.1112 31.2486 24.1813C31.1828 24.2513 31.133 24.3332 31.1024 24.422C31.0718 24.5107 31.0609 24.6044 31.0705 24.6972V25.6788H30.8652V24.3053Z" fill="#374C9B"/>
<path d="M32.5596 25.6787V22.8972H32.7648V25.6787H32.5596Z" fill="#374C9B"/>
<path d="M26.6271 19.2667C26.2535 19.4588 25.9107 19.7239 25.5186 19.843C24.1678 20.256 22.7186 19.6509 22.0063 18.4119C21.2939 17.1729 21.5321 15.5728 22.5215 14.6508C23.0041 14.1863 23.6496 13.9005 24.3394 13.8458C25.0291 13.7911 25.7169 13.9712 26.2761 14.353L26.7215 14.6508C26.7359 14.5163 26.7544 14.4337 26.7564 14.3492C26.7564 13.9266 26.7564 13.9266 27.2327 13.9247C27.4728 13.9247 27.7151 13.9247 27.9552 13.9132C28.1954 13.9016 28.2632 13.9823 28.2591 14.1955C28.2426 14.9639 28.2385 15.7495 28.2365 16.5256C28.2365 17.5187 28.2221 18.5099 28.2365 19.503C28.2365 19.8026 28.1297 19.9179 27.8259 19.8872C27.7712 19.8843 27.7164 19.8843 27.6617 19.8872C27.3989 19.8872 27.089 19.9563 26.8898 19.8507C26.7215 19.7642 26.701 19.4569 26.6271 19.2667ZM23.1825 16.881C23.1735 17.1058 23.2119 17.3301 23.2957 17.541C23.3795 17.752 23.507 17.9453 23.6708 18.11C23.8346 18.2748 24.0316 18.4076 24.2504 18.5009C24.4692 18.5943 24.7055 18.6463 24.9459 18.6539C25.9497 18.6539 26.701 17.9202 26.703 16.9251C26.7099 16.7003 26.669 16.4765 26.5828 16.2666C26.4967 16.0567 26.3669 15.8648 26.201 15.7021C26.0352 15.5394 25.8365 15.409 25.6165 15.3186C25.3964 15.2282 25.1594 15.1794 24.9192 15.1752C23.9195 15.1752 23.1846 15.8994 23.1825 16.881Z" fill="#272D67"/>
<path d="M15.6548 17.9183C15.5318 18.4854 15.1907 18.9905 14.6961 19.3378C13.2879 20.3117 10.7404 20.1062 9.69145 18.4581C8.57063 16.712 9.44307 14.501 11.5061 13.9612C13.1956 13.5233 15.0431 14.2839 15.5481 15.838C15.6421 16.2245 15.6937 16.6191 15.702 17.0155C15.7246 17.2594 15.5912 17.3516 15.3222 17.3497C13.9633 17.3497 12.6023 17.3497 11.2434 17.3497H10.8533C10.9047 18.0624 11.5451 18.6041 12.3662 18.654C13.0313 18.6943 13.6246 18.5522 14.0844 18.0624C14.1443 17.9917 14.2297 17.9439 14.3246 17.9279C14.7495 17.9106 15.1744 17.9183 15.6548 17.9183ZM14.1049 16.2413C14.1049 15.5268 13.3167 15.01 12.3621 15.0734C11.4917 15.1311 10.8431 15.6497 10.9252 16.2413H14.1049Z" fill="#272D67"/>
<path d="M40.8151 17.3727C40.0925 17.3727 39.3782 17.3727 38.6494 17.3727C38.4236 17.3727 38.362 17.4303 38.4442 17.6493C38.7254 18.4177 39.4706 18.8019 40.4682 18.6981C40.9189 18.6585 41.3389 18.4674 41.6506 18.1603C41.7671 18.0615 41.9148 18.0008 42.0714 17.9874C42.3424 17.9586 42.6195 17.9874 42.8925 17.9759C43.1656 17.9644 43.2354 18.0738 43.143 18.3101C43.0349 18.5953 42.8673 18.8575 42.6498 19.0814C42.4324 19.3053 42.1695 19.4865 41.8764 19.6144C41.4003 19.8353 40.8791 19.9582 40.348 19.9748C39.8168 19.9913 39.288 19.9012 38.7972 19.7105C37.6887 19.2955 37.0832 18.4792 36.9046 17.3938C36.6849 16.0492 37.2576 14.9082 38.438 14.2954C39.9817 13.4944 42.0694 13.965 42.9644 15.3231C43.2864 15.8473 43.437 16.4484 43.3975 17.0519C43.3975 17.3266 43.2107 17.3881 42.9623 17.3862H40.8151V17.3727ZM41.7368 16.2989C41.7717 15.5824 41.0122 15.0926 39.9837 15.1272C39.1052 15.156 38.3908 15.7611 38.516 16.2989H41.7368Z" fill="#272D67"/>
<path d="M52.886 14.3337C53.2863 14.1786 53.6979 14.0502 54.1177 13.9495C55.2426 13.7574 56.7493 14.2626 57.1352 15.4862C57.2463 15.8806 57.3022 16.2867 57.3015 16.6945C57.3262 17.5743 57.3138 18.454 57.3015 19.3357C57.3015 19.8409 57.2071 19.912 56.6713 19.912C55.7599 19.912 55.7619 19.912 55.7599 19.061C55.7578 18.2101 55.7435 17.361 55.7599 16.512C55.7804 15.3422 54.637 14.9753 53.6701 15.3595C53.0851 15.5804 52.8757 16.0299 52.8737 16.585C52.8737 17.557 52.8737 18.5289 52.8737 19.5028C52.8737 19.8755 52.8223 19.9197 52.4138 19.9235C52.2086 19.9235 52.0033 19.9235 51.798 19.9235C51.486 19.9408 51.371 19.8179 51.3731 19.524C51.3833 18.3176 51.3731 17.1094 51.3731 15.9012V12.7989C51.3731 12.3571 51.4223 12.3129 51.9047 12.3091C52.11 12.3091 52.3009 12.3091 52.4959 12.3091C52.7874 12.2937 52.886 12.4262 52.8798 12.6798C52.8798 13.1293 52.8798 13.5807 52.8798 14.0244C52.8655 14.1262 52.8778 14.2242 52.886 14.3337Z" fill="#272D67"/>
<path d="M7.33674 13.5905V16.0877C7.33674 17.2133 7.33674 18.3384 7.33674 19.4627C7.33674 19.8354 7.30184 19.868 6.90566 19.87H6.15844C5.73146 19.87 5.72325 19.87 5.7212 19.455C5.7212 18.3025 5.7212 17.1634 5.7212 16.0185V13.5886H5.31064C4.81797 13.5886 4.3253 13.5886 3.83264 13.5886C3.52061 13.5886 3.39745 13.4484 3.40566 13.1718C3.40566 12.9797 3.40566 12.7876 3.40566 12.5955C3.40566 12.2459 3.49393 12.1614 3.86753 12.1575C4.52442 12.1575 5.18132 12.1575 5.84026 12.1575L9.12472 12.146C9.52091 12.146 9.6297 12.219 9.63381 12.584C9.65434 13.7365 9.67076 13.5444 8.63821 13.5905C8.23176 13.6097 7.81504 13.5905 7.33674 13.5905Z" fill="#272D67"/>
<path d="M50.2789 16.0472C49.8047 16.0472 49.349 16.0472 48.8933 16.0472C48.8132 16.0472 48.7188 15.9358 48.6634 15.8551C48.2528 15.2577 47.715 15.056 46.9411 15.2059C46.6246 15.2506 46.3348 15.3977 46.1222 15.6216C45.9095 15.8455 45.7875 16.132 45.7771 16.4314C45.7415 16.8874 45.774 17.3458 45.8736 17.7933C45.9783 18.2947 46.4012 18.5444 46.9164 18.6539C47.4933 18.7768 48.0968 18.7711 48.4334 18.2697C48.8871 17.607 49.5276 17.8855 50.1065 17.8644C50.3117 17.8644 50.3117 18.0565 50.2563 18.2217C50.1158 18.6175 49.8682 18.9725 49.5376 19.2522C49.207 19.532 48.8047 19.7268 48.3698 19.818C47.2161 20.0792 46.1261 19.9505 45.1962 19.2033C44.2663 18.456 44.0795 17.5225 44.1698 16.4602C44.2683 15.227 44.9334 14.4087 46.1939 14.0668C47.5692 13.6941 48.8194 13.9304 49.8293 14.9293C49.9862 15.0741 50.1077 15.249 50.1853 15.4421C50.2629 15.6351 50.2949 15.8415 50.2789 16.0472Z" fill="#272D67"/>
<path d="M18.4879 14.5067C18.728 14.3761 18.9415 14.2627 19.153 14.1455C19.6281 13.9061 20.1775 13.8286 20.7069 13.9266C20.765 13.9475 20.8166 13.9817 20.8571 14.0259C20.8976 14.0702 20.9257 14.1232 20.9389 14.1801C20.9622 14.4865 20.9505 14.7943 20.904 15.0983C20.8793 15.1591 20.8399 15.2137 20.789 15.258C20.7381 15.3023 20.677 15.3351 20.6105 15.3538C20.4378 15.3807 20.2617 15.3807 20.089 15.3538C19.2228 15.2942 18.5802 15.7822 18.5495 16.5909C18.5146 17.5513 18.533 18.5118 18.5269 19.4722C18.5269 19.8564 18.5146 19.8564 18.0978 19.8564C17.8022 19.8564 17.5066 19.8564 17.211 19.8564C17.0058 19.8564 16.936 19.7776 16.936 19.5971C16.936 17.8183 16.936 16.0389 16.936 14.2589C16.9307 14.2232 16.9342 14.1868 16.9463 14.1526C16.9584 14.1183 16.9787 14.0871 17.0056 14.0613C17.0326 14.0356 17.0654 14.0159 17.1018 14.0039C17.1381 13.9918 17.1769 13.9877 17.2151 13.9919C17.5107 13.9919 17.8063 13.9919 18.1019 13.9919C18.4468 13.9938 18.4345 14.2608 18.4879 14.5067Z" fill="#272D67"/>
<path d="M66.9041 13.3156C67.1381 18.3099 63.4534 21.8713 59.2575 23.0699C58.0853 23.4061 56.7839 23.3523 55.5378 23.433C55.4221 23.4258 55.3122 23.3825 55.2258 23.3101C55.1884 23.2846 55.157 23.2523 55.1337 23.215C55.1103 23.1776 55.0954 23.1362 55.09 23.0932C55.0846 23.0503 55.0888 23.0068 55.1023 22.9654C55.1158 22.924 55.1382 22.8857 55.1683 22.8529C55.2624 22.7317 55.3923 22.6389 55.5419 22.5859C56.5375 22.3477 57.5947 22.2977 58.5513 21.9597C61.6941 20.8417 63.6381 18.7345 64.4305 15.6207C65.4938 11.4638 62.7164 7.18982 58.7812 5.68576C53.4584 3.65152 47.5771 6.63468 46.1771 11.4197C46.1003 11.6267 45.9803 11.8173 45.824 11.9806C45.7896 12.0207 45.7439 12.0511 45.692 12.0683C45.6401 12.0855 45.5842 12.0887 45.5304 12.0778C45.4766 12.0668 45.4272 12.042 45.3877 12.0061C45.3482 11.9703 45.3202 11.9248 45.3067 11.8749C45.2621 11.6513 45.2741 11.4211 45.3416 11.2026C46.4255 7.18214 49.049 4.46598 53.3721 3.41717C55.4102 2.90204 57.5653 2.96058 59.5679 3.58547C61.5706 4.21037 63.3319 5.37388 64.6317 6.9305C66.3047 8.93016 66.9328 10.6628 66.9041 13.3156Z" fill="#ED6A06"/>
<path d="M59.5961 24.3377C59.6003 24.3769 59.5915 24.4164 59.5709 24.4507C59.5504 24.4851 59.519 24.5127 59.4811 24.5298C58.7319 24.8487 57.9929 25.1906 57.2231 25.473C56.4882 25.7438 55.7287 25.9551 54.965 26.1645C54.6727 26.2655 54.3586 26.2991 54.0495 26.2625C53.563 26.1626 53.0354 26.0032 52.9615 25.4288C52.8958 24.9025 53.1442 24.4684 53.6902 24.3147C54.3964 24.0994 55.1241 23.9514 55.8621 23.8729C56.7748 23.8104 57.691 23.8047 58.6046 23.8556C58.8966 23.8951 59.1804 23.976 59.4462 24.0957C59.4819 24.1079 59.5132 24.129 59.5367 24.1568C59.5603 24.1846 59.5751 24.218 59.5797 24.2532L59.5961 24.3377Z" fill="#ED6A06"/>
<path d="M54.4747 28.5351C54.4291 28.5409 54.3828 28.5409 54.3372 28.5351C53.6844 28.4621 53.3292 28.343 53.2143 28.0856C52.9638 27.5324 53.6248 27.2923 54.0354 27.0772C55.5847 26.2631 57.3099 25.7859 59.0832 25.6807C59.3383 25.7025 59.583 25.7859 59.7935 25.9227C59.8201 25.9361 59.8435 25.9544 59.8625 25.9764C59.8815 25.9985 59.8956 26.0238 59.904 26.051C59.9124 26.0782 59.9149 26.1066 59.9115 26.1347C59.908 26.1628 59.8986 26.19 59.8838 26.2147C59.7923 26.4169 59.6518 26.5965 59.4732 26.7391C57.9624 27.6438 56.3571 28.3334 54.4747 28.5351Z" fill="#ED6A06"/>
<path d="M53.3729 30.4174C53.3476 30.4095 53.3247 30.3961 53.306 30.3784C53.2873 30.3606 53.2733 30.339 53.2651 30.3153C53.2569 30.2916 53.2548 30.2664 53.2589 30.2418C53.263 30.2171 53.2732 30.1937 53.2887 30.1735C53.411 29.9479 53.6189 29.7732 53.8717 29.6836C55.4092 29.0613 56.9509 28.4581 58.5192 27.8914C58.8633 27.787 59.2305 27.7685 59.5846 27.8377C59.7879 27.8982 59.9734 28.0021 60.1265 28.1412C60.1607 28.1713 60.1836 28.2109 60.1918 28.2542C60.1999 28.2975 60.1929 28.342 60.1717 28.3813C60.1142 28.5388 60.1019 28.6291 59.7611 28.8269C58.7863 29.2587 57.7864 29.639 56.7661 29.966C55.9089 30.2525 55.0151 30.432 54.1078 30.5C53.8594 30.5386 53.6044 30.51 53.3729 30.4174Z" fill="#ED6A06"/>
<path d="M54.0687 32.2808C54.0103 32.2608 53.9614 32.2219 53.9309 32.1712C53.9005 32.1205 53.8903 32.0612 53.9024 32.0042C53.9501 31.8861 54.0221 31.7781 54.1144 31.6861C54.2067 31.5942 54.3174 31.5201 54.4403 31.4682C55.6719 30.9284 56.9036 30.3983 58.1866 29.9603C58.3789 29.9304 58.5762 29.9503 58.7572 30.0181C58.9382 30.0858 59.0958 30.1987 59.213 30.3445C59.3444 30.4809 59.1781 30.9534 59.0241 31.2108C58.9133 31.4029 58.6136 31.5047 58.3796 31.595C57.0329 32.1425 55.7253 32.4748 54.0687 32.2808Z" fill="#ED6A06"/>
<path d="M32.871 21.3066H5.35547V21.8003H32.871V21.3066Z" fill="#ED6A06"/>
<path d="M37.5659 12.705C37.5372 12.2555 37.4797 12.1998 36.9932 12.1998C35.6342 12.1998 34.2732 12.2247 32.9163 12.1882C32.8712 12.1882 32.826 12.1882 32.7809 12.1882C32.7809 12.1882 31.9105 12.1882 31.3706 12.2017H31.1427C31.1096 12.2025 31.0766 12.2063 31.0442 12.2132C31.0225 12.2188 31.0012 12.2259 30.9806 12.2343C30.9376 12.2498 30.8999 12.2758 30.8714 12.3096C30.8428 12.3434 30.8245 12.3837 30.8184 12.4264L30.7691 12.874V13.1314C30.7691 13.1314 30.7342 13.458 30.9949 13.5444C31.0189 13.5539 31.0436 13.5616 31.0688 13.5674C31.0959 13.5737 31.1233 13.5781 31.151 13.5809C31.8427 13.7115 32.475 13.6328 33.214 13.5809C33.5732 13.5578 33.6246 13.6942 33.6246 13.9824C33.6122 15.6728 33.6246 17.3612 33.6143 19.0497C33.6143 19.9237 33.6143 19.9237 34.5586 19.918C35.1436 19.918 35.199 19.8642 35.2011 19.3263C35.2011 17.5341 35.2216 15.7438 35.2196 13.9478C35.2196 13.6865 35.2976 13.5751 35.5911 13.5924C35.9422 13.6116 36.2932 13.5924 36.6442 13.5924C37.5659 13.6116 37.6111 13.5578 37.5659 12.705Z" fill="#272D67"/>
</svg>
