<svg width="152" height="72" viewBox="0 0 152 72" fill="none" xmlns="http://www.w3.org/2000/svg">
<rect width="152" height="72" fill="white"/>
<path d="M11.0059 52.8813C11.1887 53.6217 11.7325 54.061 12.7399 54.061C13.8632 54.061 14.2911 53.5525 14.2911 52.9423C14.2911 52.3322 13.9835 51.9213 12.6329 51.6162C11.2823 51.3112 10.7786 50.9369 10.7786 50.1315C10.7786 49.3952 11.367 48.7078 12.6775 48.7078C13.988 48.7078 14.5987 49.4562 14.6745 50.1396H14.1841C14.0459 49.5376 13.618 49.1064 12.6508 49.1064C11.7593 49.1064 11.2868 49.4806 11.2868 50.1071C11.2868 50.7335 11.6879 50.9613 12.8201 51.2176C14.5452 51.6244 14.7993 52.2386 14.7993 52.9098C14.7993 53.7234 14.144 54.4474 12.7221 54.4474C11.1887 54.4474 10.6271 53.6339 10.5156 52.8813H11.0059Z" fill="#374C9B"/>
<path d="M20.3886 52.3729C20.3886 53.4834 19.7155 54.476 18.4095 54.476C17.2238 54.476 16.4883 53.5892 16.4883 52.381C16.4883 51.238 17.1836 50.2861 18.454 50.2861C19.613 50.2861 20.3886 51.116 20.3886 52.3729ZM16.9519 52.3729C16.9519 53.3248 17.5135 54.0895 18.4451 54.0895C19.3767 54.0895 19.925 53.3777 19.925 52.3729C19.925 51.3682 19.399 50.6522 18.4273 50.6522C17.4556 50.6522 16.9385 51.421 16.9385 52.381L16.9519 52.3729Z" fill="#374C9B"/>
<path d="M22.3145 54.3782V48.488H22.7602V54.3782H22.3145Z" fill="#374C9B"/>
<path d="M28.3095 53.2108C28.3095 53.6176 28.3095 54.2278 28.3095 54.3783H27.8638C27.8407 54.147 27.8318 53.9148 27.837 53.6827C27.7339 53.94 27.5389 54.1582 27.2834 54.3021C27.0279 54.446 26.7268 54.5072 26.4285 54.4759C25.7955 54.4759 24.9932 54.2522 24.9932 53.0278V50.3796H25.4389V52.9301C25.4389 53.5159 25.6395 54.0813 26.5087 54.0813C27.4894 54.0813 27.846 53.581 27.846 52.4542V50.3959H28.2917L28.3095 53.2108Z" fill="#374C9B"/>
<path d="M30.0342 50.3798H30.8499V49.135H31.2956V50.3798H32.3387V50.7581H31.2867V53.3574C31.2867 53.8048 31.3893 54.057 31.8127 54.057C31.9629 54.0611 32.1129 54.0461 32.2585 54.0123V54.3621C32.0836 54.4166 31.8993 54.4414 31.7147 54.4354C31.153 54.4354 30.8232 54.1791 30.8232 53.5404V50.7581H30.0342V50.3798Z" fill="#374C9B"/>
<path d="M34.0645 48.488H34.5102V49.2609H34.0645V48.488ZM34.0645 50.3796H34.5102V54.3782H34.0645V50.3796Z" fill="#374C9B"/>
<path d="M40.3265 52.3729C40.3265 53.4834 39.6534 54.476 38.3474 54.476C37.1661 54.476 36.4307 53.5892 36.4307 52.381C36.4307 51.238 37.1216 50.2861 38.392 50.2861C39.5554 50.2861 40.3265 51.116 40.3265 52.3729ZM36.8942 52.3729C36.8942 53.3248 37.4514 54.0895 38.383 54.0895C39.3147 54.0895 39.8629 53.3777 39.8629 52.3729C39.8629 51.3682 39.3369 50.6522 38.3652 50.6522C37.3935 50.6522 36.8942 51.421 36.8942 52.381V52.3729Z" fill="#374C9B"/>
<path d="M42.2521 51.3884C42.2521 51.0386 42.2521 50.7009 42.2521 50.3796H42.6978C42.6978 50.5098 42.7246 51.0304 42.6978 51.1403C42.8048 50.8727 43.0047 50.6445 43.2671 50.4903C43.5294 50.336 43.8398 50.2643 44.151 50.286C44.931 50.286 45.6219 50.6928 45.6219 51.787V54.3782H45.1762V51.8521C45.1762 51.1403 44.8508 50.6765 44.0886 50.6765C43.0455 50.6765 42.6889 51.4901 42.6889 52.3403V54.3742H42.2432L42.2521 51.3884Z" fill="#374C9B"/>
<path d="M47.8692 53.2881C47.9328 53.5385 48.0941 53.7591 48.3229 53.9089C48.5518 54.0586 48.8326 54.1271 49.1128 54.1017C49.8928 54.1017 50.2093 53.7763 50.2093 53.3288C50.2093 52.8814 49.9998 52.6495 49.0192 52.4339C47.887 52.1858 47.6062 51.8726 47.6062 51.3437C47.6062 50.8149 48.0519 50.282 49.0548 50.282C49.4204 50.2466 49.7865 50.3442 50.0736 50.5536C50.3607 50.7631 50.5456 51.0675 50.5882 51.4007H50.1425C50.0937 51.1715 49.9528 50.9672 49.7475 50.828C49.5421 50.6887 49.2871 50.6246 49.0326 50.6482C48.2703 50.6482 48.0519 50.9939 48.0519 51.3112C48.0519 51.6285 48.2614 51.8644 49.1262 52.0556C50.3653 52.3281 50.6684 52.6943 50.6684 53.2759C50.6684 54.0041 50.0221 54.4515 49.1039 54.4515C48.1009 54.4515 47.5438 53.9715 47.4189 53.2515L47.8692 53.2881Z" fill="#374C9B"/>
<path d="M55.9062 52.8813C56.0889 53.6217 56.6327 54.061 57.6401 54.061C58.759 54.061 59.1913 53.5525 59.1913 52.9423C59.1913 52.3322 58.8838 51.9213 57.5331 51.6162C56.1825 51.3112 55.6788 50.9369 55.6788 50.1315C55.6788 49.3952 56.2628 48.7078 57.5777 48.7078C58.8927 48.7078 59.4944 49.4562 59.5747 50.1396H59.0843C58.9462 49.5376 58.5138 49.1064 57.551 49.1064C56.6595 49.1064 56.1825 49.4806 56.1825 50.1071C56.1825 50.7335 56.5882 50.9613 57.7159 51.2176C59.4454 51.6244 59.6995 52.2386 59.6995 52.9098C59.6995 53.7234 59.0398 54.4474 57.6223 54.4474C56.0889 54.4474 55.5273 53.6339 55.3936 52.8813H55.9062Z" fill="#374C9B"/>
<path d="M64.7361 53.6177C64.7346 53.8722 64.754 54.1264 64.794 54.3783H64.375C64.3213 54.1773 64.2943 53.971 64.2948 53.7641C64.1623 54.0011 63.9542 54.196 63.698 54.323C63.4419 54.4501 63.1495 54.5034 62.8595 54.476C62.6753 54.495 62.4888 54.4781 62.3123 54.4263C62.1358 54.3745 61.9734 54.289 61.836 54.1754C61.6985 54.0619 61.5891 53.923 61.515 53.7679C61.441 53.6128 61.4039 53.4451 61.4064 53.276C61.4064 52.3973 62.1508 51.9946 63.4657 51.9946H64.2948V51.5878C64.2948 51.181 64.1655 50.6522 63.1671 50.6522C62.2756 50.6522 62.1508 51.059 62.0527 51.4048H61.607C61.6604 50.9655 61.9591 50.2861 63.1671 50.2861C64.1655 50.2861 64.7272 50.6685 64.7272 51.5471L64.7361 53.6177ZM64.2904 52.3404H63.4345C62.4628 52.3404 61.8566 52.5722 61.8566 53.2597C61.8502 53.3787 61.8726 53.4976 61.9222 53.6079C61.9717 53.7182 62.0472 53.8172 62.1433 53.8979C62.2394 53.9786 62.3538 54.0391 62.4783 54.075C62.6028 54.1109 62.7345 54.1214 62.864 54.1058C64.1165 54.1058 64.2904 53.3492 64.2904 52.4787V52.3404Z" fill="#374C9B"/>
<path d="M67.0225 51.4699C67.0225 50.7987 67.0225 50.5099 67.0225 50.3797H67.4682C67.4682 50.5099 67.4682 50.7865 67.4682 51.2787C67.5831 50.9923 67.7902 50.7443 68.0622 50.5672C68.3342 50.3901 68.6586 50.2921 68.9927 50.2861V50.7173C68.7764 50.7236 68.5638 50.7704 68.3681 50.8546C68.1724 50.9389 67.9977 51.0589 67.8548 51.2072C67.712 51.3555 67.6039 51.5289 67.5374 51.7169C67.4709 51.9048 67.4474 52.1031 67.4682 52.2997V54.3783H67.0225V51.4699Z" fill="#374C9B"/>
<path d="M70.7002 54.3782V48.488H71.1459V54.3782H70.7002Z" fill="#374C9B"/>
<path d="M57.818 40.8C57.0068 41.2068 56.2624 41.7681 55.411 42.0203C52.478 42.8949 49.331 41.6136 47.7842 38.9898C46.2375 36.3661 46.7546 32.9776 48.9031 31.0251C49.9509 30.0416 51.3526 29.4362 52.8504 29.3204C54.3482 29.2046 55.8415 29.586 57.0558 30.3946L58.0231 31.0251C58.0543 30.7403 58.0944 30.5654 58.0989 30.3864C58.0989 29.4915 58.0989 29.4915 59.133 29.4875C59.6545 29.4875 60.1805 29.4875 60.702 29.4631C61.2235 29.4386 61.3706 29.6095 61.3617 30.061C61.3261 31.6881 61.3172 33.3519 61.3127 34.9953C61.3127 37.0983 61.2815 39.1973 61.3127 41.3003C61.3127 41.9349 61.0809 42.179 60.4212 42.1139C60.3024 42.1078 60.1834 42.1078 60.0646 42.1139C59.494 42.1139 58.821 42.2603 58.3886 42.0366C58.0231 41.8536 57.9785 41.2027 57.818 40.8ZM50.3384 35.7478C50.3187 36.224 50.4023 36.699 50.5842 37.1456C50.7661 37.5923 51.0429 38.0018 51.3986 38.3506C51.7544 38.6994 52.1821 38.9807 52.6572 39.1784C53.1323 39.376 53.6455 39.4861 54.1674 39.5024C56.3471 39.5024 57.9785 37.9485 57.983 35.8414C57.9978 35.3653 57.9091 34.8914 57.722 34.4468C57.5349 34.0023 57.2531 33.596 56.8929 33.2514C56.5327 32.9068 56.1013 32.6308 55.6235 32.4393C55.1458 32.2478 54.6311 32.1445 54.1094 32.1356C51.9386 32.1356 50.3428 33.6692 50.3384 35.7478Z" fill="#272D67"/>
<path d="M33.9924 37.9445C33.7253 39.1453 32.9846 40.215 31.9108 40.9506C28.853 43.013 23.3212 42.5777 21.0435 39.0875C18.6097 35.3899 20.5041 30.7079 24.9839 29.5648C28.6524 28.6374 32.6641 30.2482 33.7606 33.5391C33.9648 34.3577 34.0768 35.1932 34.095 36.0326C34.144 36.5492 33.8543 36.7445 33.2703 36.7404C30.3195 36.7404 27.3642 36.7404 24.4133 36.7404H23.5664C23.6778 38.2496 25.0686 39.3967 26.8516 39.5025C28.2958 39.5879 29.584 39.2869 30.5825 38.2496C30.7126 38.0999 30.898 37.9987 31.104 37.9648C32.0267 37.9282 32.9494 37.9445 33.9924 37.9445ZM30.627 34.3933C30.627 32.8801 28.9154 31.7858 26.8426 31.9201C24.9527 32.0421 23.5441 33.1404 23.7224 34.3933H30.627Z" fill="#272D67"/>
<path d="M88.6279 36.7893C87.0589 36.7893 85.5076 36.7893 83.9252 36.7893C83.4349 36.7893 83.3012 36.9113 83.4795 37.375C84.0902 39.0021 85.7082 39.8157 87.8746 39.596C88.8531 39.5121 89.7653 39.1075 90.4421 38.4571C90.6951 38.2478 91.0158 38.1193 91.3559 38.091C91.9442 38.0299 92.546 38.091 93.1389 38.0665C93.7317 38.0421 93.8832 38.274 93.6827 38.7743C93.448 39.3782 93.0839 39.9334 92.6118 40.4076C92.1396 40.8818 91.5687 41.2655 90.9324 41.5364C89.8985 42.0042 88.7668 42.2644 87.6135 42.2995C86.4601 42.3346 85.3119 42.1437 84.2462 41.7398C81.8391 40.8611 80.5242 39.1323 80.1364 36.834C79.6594 33.9865 80.9031 31.5703 83.4661 30.2726C86.8181 28.5764 91.3514 29.573 93.2949 32.4489C93.994 33.559 94.321 34.8319 94.2354 36.1099C94.2354 36.6916 93.8298 36.8218 93.2904 36.8177H88.6279V36.7893ZM90.6293 34.5154C90.7051 32.9981 89.0558 31.9608 86.8226 32.034C84.9148 32.095 83.3636 33.3764 83.6355 34.5154H90.6293Z" fill="#272D67"/>
<path d="M114.838 30.354C115.707 30.0254 116.601 29.7536 117.512 29.5404C119.955 29.1336 123.227 30.2035 124.065 32.7946C124.306 33.6297 124.427 34.4897 124.426 35.3533C124.479 37.2163 124.453 39.0794 124.426 40.9465C124.426 42.0163 124.221 42.1668 123.058 42.1668C121.078 42.1668 121.083 42.1668 121.078 40.3648C121.074 38.5628 121.043 36.7648 121.078 34.9668C121.123 32.4896 118.64 31.7126 116.541 32.5262C115.27 32.994 114.816 33.9458 114.811 35.1214C114.811 37.1797 114.811 39.238 114.811 41.3004C114.811 42.0896 114.7 42.1831 113.813 42.1913C113.367 42.1913 112.921 42.1913 112.475 42.1913C111.798 42.2279 111.548 41.9675 111.553 41.3451C111.575 38.7906 111.553 36.2319 111.553 33.6733V27.1038C111.553 26.1682 111.66 26.0746 112.707 26.0665C113.153 26.0665 113.568 26.0665 113.991 26.0665C114.624 26.034 114.838 26.3146 114.825 26.8516C114.825 27.8035 114.825 28.7594 114.825 29.6991C114.793 29.9146 114.82 30.1221 114.838 30.354Z" fill="#272D67"/>
<path d="M15.9314 28.7797V34.0678C15.9314 36.4516 15.9314 38.8339 15.9314 41.2149C15.9314 42.0041 15.8557 42.0732 14.9954 42.0773H13.3728C12.4457 42.0773 12.4279 42.0773 12.4234 41.1987C12.4234 38.758 12.4234 36.3458 12.4234 33.9214V28.7756H11.5319C10.4621 28.7756 9.39231 28.7756 8.32252 28.7756C7.64498 28.7756 7.37753 28.4787 7.39536 27.8929C7.39536 27.4861 7.39536 27.0793 7.39536 26.6726C7.39536 25.9322 7.58703 25.7532 8.3983 25.7451C9.82469 25.7451 11.2511 25.7451 12.6819 25.7451L19.8139 25.7207C20.6742 25.7207 20.9104 25.8753 20.9194 26.6482C20.9639 29.0888 20.9996 28.6821 18.7575 28.7797C17.8749 28.8204 16.97 28.7797 15.9314 28.7797Z" fill="#272D67"/>
<path d="M109.177 33.9823C108.147 33.9823 107.158 33.9823 106.168 33.9823C105.994 33.9823 105.789 33.7464 105.669 33.5756C104.777 32.3105 103.61 31.8834 101.929 32.2007C101.242 32.2954 100.613 32.6069 100.151 33.0811C99.6892 33.5552 99.4241 34.1619 99.4017 34.7959C99.3243 35.7615 99.3948 36.7322 99.6112 37.68C99.8385 38.7417 100.757 39.2705 101.876 39.5023C103.128 39.7627 104.439 39.7505 105.17 38.6888C106.155 37.2854 107.545 37.8752 108.802 37.8305C109.248 37.8305 109.248 38.2373 109.128 38.5871C108.823 39.4252 108.285 40.177 107.567 40.7694C106.849 41.3617 105.976 41.7745 105.031 41.9674C102.526 42.5207 100.159 42.2481 98.1402 40.6657C96.121 39.0834 95.7153 37.1064 95.9115 34.8569C96.1254 32.2454 97.5696 30.5125 100.307 29.7885C103.293 28.9993 106.008 29.4996 108.201 31.6149C108.541 31.9216 108.805 32.2921 108.974 32.7008C109.142 33.1095 109.212 33.5468 109.177 33.9823Z" fill="#272D67"/>
<path d="M40.1445 30.72C40.6661 30.4434 41.1296 30.2034 41.5888 29.9553C42.6205 29.4481 43.8134 29.2842 44.9631 29.4915C45.0892 29.5359 45.2013 29.6082 45.2892 29.702C45.3771 29.7957 45.4381 29.9079 45.4668 30.0285C45.5174 30.6772 45.492 31.3291 45.391 31.9729C45.3373 32.1016 45.2518 32.2173 45.1413 32.3111C45.0308 32.4049 44.8981 32.4743 44.7536 32.5139C44.3787 32.5708 43.9962 32.5708 43.6214 32.5139C41.7403 32.3878 40.3451 33.421 40.2783 35.1336C40.2025 37.1675 40.2426 39.2014 40.2292 41.2353C40.2292 42.0488 40.2025 42.0488 39.2976 42.0488C38.6557 42.0488 38.0139 42.0488 37.372 42.0488C36.9262 42.0488 36.7747 41.882 36.7747 41.4997C36.7747 37.7329 36.7747 33.9648 36.7747 30.1953C36.7632 30.1196 36.7709 30.0426 36.7971 29.9701C36.8233 29.8976 36.8674 29.8315 36.9259 29.7769C36.9844 29.7224 37.0558 29.6807 37.1347 29.6552C37.2136 29.6297 37.2978 29.6211 37.3809 29.6298C38.0228 29.6298 38.6647 29.6298 39.3065 29.6298C40.0554 29.6339 40.0286 30.1993 40.1445 30.72Z" fill="#272D67"/>
<path d="M145.278 28.1979C145.786 38.7742 137.785 46.3159 128.674 48.8542C126.129 49.5661 123.302 49.4522 120.597 49.623C120.345 49.6077 120.107 49.5161 119.919 49.3627C119.838 49.3089 119.77 49.2403 119.719 49.1613C119.668 49.0823 119.636 48.9945 119.624 48.9035C119.613 48.8126 119.622 48.7204 119.651 48.6328C119.68 48.5452 119.729 48.4641 119.794 48.3945C119.999 48.1379 120.281 47.9414 120.606 47.8291C122.768 47.3247 125.063 47.2189 127.14 46.503C133.965 44.1355 138.186 39.6732 139.907 33.0793C142.216 24.2766 136.185 15.2257 127.64 12.0406C116.081 7.73283 103.311 14.0501 100.271 24.183C100.104 24.6214 99.8433 25.0251 99.504 25.3708C99.4292 25.4559 99.33 25.5202 99.2173 25.5566C99.1047 25.5929 98.9831 25.5999 98.8664 25.5766C98.7496 25.5534 98.6423 25.5009 98.5565 25.425C98.4707 25.3491 98.4098 25.2528 98.3807 25.1471C98.2838 24.6736 98.3097 24.186 98.4565 23.7233C100.81 15.2094 106.507 9.45757 115.894 7.23656C120.32 6.14569 124.999 6.26966 129.348 7.59297C133.696 8.91627 137.521 11.3802 140.343 14.6766C143.976 18.9111 145.34 22.5803 145.278 28.1979Z" fill="#ED6A06"/>
<path d="M129.409 51.539C129.419 51.622 129.399 51.7055 129.355 51.7782C129.31 51.851 129.242 51.9095 129.16 51.9458C127.533 52.621 125.928 53.3451 124.257 53.9431C122.661 54.5166 121.012 54.9641 119.353 55.4075C118.719 55.6213 118.037 55.6925 117.365 55.6149C116.309 55.4034 115.163 55.0658 115.003 53.8495C114.86 52.7349 115.4 51.8156 116.585 51.4902C118.119 51.0342 119.699 50.7207 121.301 50.5546C123.283 50.4223 125.273 50.4101 127.256 50.518C127.89 50.6015 128.507 50.773 129.084 51.0264C129.161 51.0522 129.229 51.097 129.281 51.1559C129.332 51.2148 129.364 51.2854 129.374 51.36L129.409 51.539Z" fill="#ED6A06"/>
<path d="M118.288 60.4271C118.189 60.4392 118.089 60.4392 117.99 60.4271C116.572 60.2725 115.801 60.0203 115.551 59.4752C115.007 58.3037 116.443 57.7952 117.334 57.3396C120.699 55.6158 124.445 54.6051 128.295 54.3823C128.849 54.4287 129.381 54.6052 129.838 54.8949C129.895 54.9234 129.946 54.962 129.987 55.0087C130.029 55.0553 130.059 55.109 130.077 55.1665C130.096 55.2241 130.101 55.2844 130.094 55.3439C130.086 55.4034 130.066 55.4609 130.034 55.5132C129.835 55.9415 129.53 56.3217 129.142 56.6237C125.861 58.5396 122.376 60 118.288 60.4271Z" fill="#ED6A06"/>
<path d="M115.895 64.4135C115.84 64.3966 115.79 64.3683 115.749 64.3307C115.709 64.2932 115.678 64.2474 115.66 64.1972C115.643 64.1469 115.638 64.0936 115.647 64.0414C115.656 63.9893 115.678 63.9398 115.712 63.8968C115.977 63.4191 116.429 63.0492 116.978 62.8596C120.316 61.5416 123.664 60.2643 127.069 59.0643C127.817 58.8432 128.614 58.8039 129.383 58.9504C129.824 59.0787 130.227 59.2987 130.56 59.5931C130.634 59.6569 130.684 59.7408 130.701 59.8325C130.719 59.9241 130.704 60.0185 130.658 60.1016C130.533 60.4351 130.506 60.6263 129.766 61.0453C127.649 61.9597 125.478 62.765 123.263 63.4575C121.401 64.0641 119.461 64.4443 117.49 64.5884C116.951 64.6701 116.397 64.6095 115.895 64.4135Z" fill="#ED6A06"/>
<path d="M117.405 68.3593C117.278 68.317 117.172 68.2347 117.106 68.1273C117.04 68.0199 117.018 67.8944 117.044 67.7735C117.147 67.5236 117.304 67.2948 117.504 67.1001C117.705 66.9053 117.945 66.7485 118.212 66.6386C120.886 65.4956 123.561 64.3729 126.347 63.4454C126.764 63.382 127.193 63.4243 127.586 63.5677C127.979 63.7112 128.321 63.9503 128.576 64.259C128.861 64.5478 128.5 65.5485 128.165 66.0935C127.925 66.5003 127.274 66.7159 126.766 66.9071C123.842 68.0664 121.002 68.7701 117.405 68.3593Z" fill="#ED6A06"/>
<path d="M71.3779 45.1201H11.6299V46.1655H71.3779V45.1201Z" fill="#ED6A06"/>
<path d="M81.5717 26.9043C81.5093 25.9524 81.3844 25.8345 80.328 25.8345C77.3772 25.8345 74.4219 25.8873 71.4755 25.8101C71.3774 25.8101 71.2793 25.8101 71.1813 25.8101C71.1813 25.8101 69.2913 25.8101 68.119 25.8385H67.6242C67.5522 25.8402 67.4805 25.8484 67.4102 25.8629C67.3631 25.8749 67.3169 25.8898 67.2721 25.9077C67.1788 25.9404 67.0969 25.9955 67.0349 26.067C66.973 26.1386 66.9333 26.2241 66.9199 26.3145L66.8129 27.2623V27.8073C66.8129 27.8073 66.7372 28.4989 67.3033 28.6819C67.3552 28.7021 67.4089 28.7184 67.4637 28.7307C67.5224 28.7439 67.582 28.7534 67.642 28.7592C69.1442 29.0358 70.5171 28.869 72.1218 28.7592C72.9019 28.7104 73.0133 28.9992 73.0133 29.6094C72.9866 33.189 73.0133 36.7646 72.991 40.3402C72.991 42.1911 72.991 42.1911 75.0415 42.1789C76.3118 42.1789 76.4322 42.065 76.4366 40.926C76.4366 37.1307 76.4812 33.3396 76.4768 29.5362C76.4768 28.9829 76.6461 28.747 77.2836 28.7836C78.0458 28.8243 78.808 28.7836 79.5703 28.7836C81.5717 28.8243 81.6697 28.7104 81.5717 26.9043Z" fill="#272D67"/>
</svg>
