<svg width="171" height="97" viewBox="0 0 171 97" fill="none" xmlns="http://www.w3.org/2000/svg">
<rect width="171" height="97" fill="white"/>
<path d="M20.0059 63.9434C20.1887 64.6426 20.7325 65.0575 21.7399 65.0575C22.8632 65.0575 23.2911 64.5773 23.2911 64.001C23.2911 63.4248 22.9835 63.0367 21.6329 62.7486C20.2823 62.4605 19.7786 62.107 19.7786 61.3463C19.7786 60.651 20.367 60.0017 21.6775 60.0017C22.988 60.0017 23.5987 60.7086 23.6745 61.354H23.1841C23.0459 60.7854 22.618 60.3782 21.6508 60.3782C20.7593 60.3782 20.2868 60.7317 20.2868 61.3233C20.2868 61.9149 20.6879 62.1301 21.8201 62.3721C23.5452 62.7563 23.7993 63.3364 23.7993 63.9703C23.7993 64.7387 23.144 65.4225 21.7221 65.4225C20.1887 65.4225 19.6271 64.6541 19.5156 63.9434H20.0059Z" fill="#374C9B"/>
<path d="M29.3886 63.4633C29.3886 64.5121 28.7155 65.4495 27.4095 65.4495C26.2238 65.4495 25.4883 64.612 25.4883 63.471C25.4883 62.3914 26.1836 61.4924 27.454 61.4924C28.613 61.4924 29.3886 62.2762 29.3886 63.4633ZM25.9519 63.4633C25.9519 64.3623 26.5135 65.0845 27.4451 65.0845C28.3767 65.0845 28.925 64.4122 28.925 63.4633C28.925 62.5144 28.399 61.8382 27.4273 61.8382C26.4556 61.8382 25.9385 62.5643 25.9385 63.471L25.9519 63.4633Z" fill="#374C9B"/>
<path d="M31.3145 65.3574V59.7944H31.7602V65.3574H31.3145Z" fill="#374C9B"/>
<path d="M37.3095 64.2547C37.3095 64.6389 37.3095 65.2152 37.3095 65.3573H36.8638C36.8407 65.1389 36.8318 64.9196 36.837 64.7004C36.7339 64.9434 36.5389 65.1494 36.2834 65.2853C36.0279 65.4212 35.7268 65.4791 35.4285 65.4495C34.7955 65.4495 33.9932 65.2382 33.9932 64.0818V61.5808H34.4389V63.9896C34.4389 64.5428 34.6395 65.0769 35.5087 65.0769C36.4894 65.0769 36.846 64.6043 36.846 63.5401V61.5962H37.2917L37.3095 64.2547Z" fill="#374C9B"/>
<path d="M39.0342 61.5809H39.8499V60.4053H40.2956V61.5809H41.3387V61.9382H40.2867V64.3931C40.2867 64.8157 40.3893 65.0539 40.8127 65.0539C40.9629 65.0577 41.1129 65.0435 41.2585 65.0116V65.342C41.0836 65.3934 40.8993 65.4169 40.7147 65.4112C40.153 65.4112 39.8232 65.1691 39.8232 64.5659V61.9382H39.0342V61.5809Z" fill="#374C9B"/>
<path d="M43.0645 59.7944H43.5102V60.5244H43.0645V59.7944ZM43.0645 61.5809H43.5102V65.3574H43.0645V61.5809Z" fill="#374C9B"/>
<path d="M49.3265 63.4633C49.3265 64.5121 48.6534 65.4495 47.3474 65.4495C46.1661 65.4495 45.4307 64.612 45.4307 63.471C45.4307 62.3914 46.1216 61.4924 47.392 61.4924C48.5554 61.4924 49.3265 62.2762 49.3265 63.4633ZM45.8942 63.4633C45.8942 64.3623 46.4514 65.0845 47.383 65.0845C48.3147 65.0845 48.8629 64.4122 48.8629 63.4633C48.8629 62.5144 48.3369 61.8382 47.3652 61.8382C46.3935 61.8382 45.8942 62.5643 45.8942 63.471V63.4633Z" fill="#374C9B"/>
<path d="M51.2521 62.5335C51.2521 62.2031 51.2521 61.8842 51.2521 61.5807H51.6978C51.6978 61.7037 51.7246 62.1954 51.6978 62.2991C51.8048 62.0465 52.0047 61.8309 52.2671 61.6853C52.5294 61.5396 52.8398 61.4719 53.151 61.4924C53.931 61.4924 54.6219 61.8765 54.6219 62.91V65.3572H54.1762V62.9715C54.1762 62.2991 53.8508 61.8612 53.0886 61.8612C52.0455 61.8612 51.6889 62.6295 51.6889 63.4325V65.3534H51.2432L51.2521 62.5335Z" fill="#374C9B"/>
<path d="M56.8692 64.3278C56.9328 64.5642 57.0941 64.7726 57.3229 64.914C57.5518 65.0554 57.8326 65.1201 58.1128 65.0961C58.8928 65.0961 59.2093 64.7888 59.2093 64.3662C59.2093 63.9436 58.9998 63.7246 58.0192 63.521C56.887 63.2866 56.6062 62.9908 56.6062 62.4914C56.6062 61.992 57.0519 61.4887 58.0548 61.4887C58.4204 61.4552 58.7865 61.5473 59.0736 61.7452C59.3607 61.943 59.5456 62.2305 59.5882 62.5452H59.1425C59.0937 62.3287 58.9528 62.1358 58.7475 62.0043C58.5421 61.8728 58.2871 61.8122 58.0326 61.8344C57.2703 61.8344 57.0519 62.161 57.0519 62.4607C57.0519 62.7603 57.2614 62.9831 58.1262 63.1637C59.3653 63.4211 59.6684 63.7669 59.6684 64.3163C59.6684 65.0039 59.0221 65.4265 58.1039 65.4265C57.1009 65.4265 56.5438 64.9732 56.4189 64.2932L56.8692 64.3278Z" fill="#374C9B"/>
<path d="M64.9062 63.9434C65.0889 64.6426 65.6327 65.0575 66.6401 65.0575C67.759 65.0575 68.1913 64.5773 68.1913 64.001C68.1913 63.4248 67.8838 63.0367 66.5331 62.7486C65.1825 62.4605 64.6788 62.107 64.6788 61.3463C64.6788 60.651 65.2628 60.0017 66.5777 60.0017C67.8927 60.0017 68.4944 60.7086 68.5747 61.354H68.0843C67.9462 60.7854 67.5138 60.3782 66.551 60.3782C65.6595 60.3782 65.1825 60.7317 65.1825 61.3233C65.1825 61.9149 65.5882 62.1301 66.7159 62.3721C68.4454 62.7563 68.6995 63.3364 68.6995 63.9703C68.6995 64.7387 68.0398 65.4225 66.6223 65.4225C65.0889 65.4225 64.5273 64.6541 64.3936 63.9434H64.9062Z" fill="#374C9B"/>
<path d="M73.7361 64.6389C73.7346 64.8793 73.754 65.1194 73.794 65.3573H73.375C73.3213 65.1674 73.2943 64.9726 73.2948 64.7772C73.1623 65.001 72.9542 65.185 72.698 65.305C72.4419 65.425 72.1495 65.4754 71.8595 65.4495C71.6753 65.4675 71.4888 65.4515 71.3123 65.4026C71.1358 65.3536 70.9734 65.2729 70.836 65.1657C70.6985 65.0585 70.5891 64.9273 70.515 64.7808C70.441 64.6343 70.4039 64.4759 70.4064 64.3162C70.4064 63.4863 71.1508 63.106 72.4657 63.106H73.2948V62.7218C73.2948 62.3376 73.1655 61.8382 72.1671 61.8382C71.2756 61.8382 71.1508 62.2224 71.0527 62.5489H70.607C70.6604 62.134 70.9591 61.4924 72.1671 61.4924C73.1655 61.4924 73.7272 61.8536 73.7272 62.6834L73.7361 64.6389ZM73.2904 63.4325H72.4345C71.4628 63.4325 70.8566 63.6515 70.8566 64.3008C70.8502 64.4132 70.8726 64.5255 70.9222 64.6296C70.9717 64.7338 71.0472 64.8273 71.1433 64.9035C71.2394 64.9798 71.3538 65.0369 71.4783 65.0708C71.6028 65.1047 71.7345 65.1147 71.864 65.0999C73.1165 65.0999 73.2904 64.3853 73.2904 63.5632V63.4325Z" fill="#374C9B"/>
<path d="M76.0225 62.6104C76.0225 61.9765 76.0225 61.7037 76.0225 61.5808H76.4682C76.4682 61.7037 76.4682 61.965 76.4682 62.4298C76.5831 62.1594 76.7902 61.9252 77.0622 61.7579C77.3342 61.5906 77.6586 61.4981 77.9927 61.4924V61.8997C77.7764 61.9056 77.5638 61.9498 77.3681 62.0293C77.1724 62.1089 76.9977 62.2222 76.8548 62.3623C76.712 62.5024 76.6039 62.6662 76.5374 62.8437C76.4709 63.0211 76.4474 63.2085 76.4682 63.3941V65.3573H76.0225V62.6104Z" fill="#374C9B"/>
<path d="M79.7002 65.3574V59.7944H80.1459V65.3574H79.7002Z" fill="#374C9B"/>
<path d="M66.818 52.5334C66.0068 52.9176 65.2624 53.4478 64.411 53.686C61.478 54.512 58.331 53.3018 56.7842 50.8238C55.2375 48.3459 55.7546 45.1456 57.9031 43.3016C58.9509 42.3727 60.3526 41.801 61.8504 41.6916C63.3482 41.5822 64.8415 41.9424 66.0558 42.7061L67.0231 43.3016C67.0543 43.0326 67.0944 42.8674 67.0989 42.6984C67.0989 41.8532 67.0989 41.8532 68.133 41.8494C68.6545 41.8494 69.1805 41.8494 69.702 41.8263C70.2235 41.8033 70.3706 41.9646 70.3617 42.3911C70.3261 43.9278 70.3172 45.4991 70.3127 47.0512C70.3127 49.0374 70.2815 51.0198 70.3127 53.006C70.3127 53.6053 70.0809 53.8358 69.4212 53.7743C69.3024 53.7686 69.1834 53.7686 69.0646 53.7743C68.494 53.7743 67.821 53.9126 67.3886 53.7013C67.0231 53.5285 66.9785 52.9138 66.818 52.5334ZM59.3384 47.7619C59.3187 48.2116 59.4023 48.6603 59.5842 49.0821C59.7661 49.5039 60.0429 49.8906 60.3986 50.2201C60.7544 50.5495 61.1821 50.8152 61.6572 51.0019C62.1323 51.1885 62.6455 51.2925 63.1674 51.3079C65.3471 51.3079 66.9785 49.8403 66.983 47.8503C66.9978 47.4007 66.9091 46.9531 66.722 46.5332C66.5349 46.1134 66.2531 45.7296 65.8929 45.4042C65.5327 45.0788 65.1013 44.8181 64.6235 44.6372C64.1458 44.4563 63.6311 44.3588 63.1094 44.3504C60.9386 44.3504 59.3428 45.7987 59.3384 47.7619Z" fill="#272D67"/>
<path d="M42.9924 49.8364C42.7253 50.9705 41.9846 51.9807 40.9108 52.6754C37.853 54.6232 32.3212 54.2122 30.0435 50.9159C27.6097 47.4237 29.5041 43.0018 33.9839 41.9222C37.6524 41.0463 41.6641 42.5677 42.7606 45.6757C42.9648 46.4488 43.0768 47.2379 43.095 48.0307C43.144 48.5186 42.8543 48.703 42.2703 48.6992C39.3195 48.6992 36.3642 48.6992 33.4133 48.6992H32.5664C32.6778 50.1245 34.0686 51.2079 35.8516 51.3078C37.2958 51.3884 38.584 51.1041 39.5825 50.1245C39.7126 49.9831 39.898 49.8875 40.104 49.8556C41.0267 49.821 41.9494 49.8364 42.9924 49.8364ZM39.627 46.4825C39.627 45.0533 37.9154 44.0199 35.8426 44.1466C33.9527 44.2619 32.5441 45.2992 32.7224 46.4825H39.627Z" fill="#272D67"/>
<path d="M97.6279 48.7452C96.0589 48.7452 94.5076 48.7452 92.9252 48.7452C92.4349 48.7452 92.3012 48.8604 92.4795 49.2984C93.0902 50.8351 94.7082 51.6035 96.8746 51.396C97.8531 51.3168 98.7653 50.9346 99.4421 50.3203C99.6951 50.1227 100.016 50.0013 100.356 49.9746C100.944 49.9169 101.546 49.9746 102.139 49.9515C102.732 49.9285 102.883 50.1475 102.683 50.62C102.448 51.1903 102.084 51.7147 101.612 52.1626C101.14 52.6104 100.569 52.9728 99.9324 53.2286C98.8985 53.6704 97.7668 53.9162 96.6135 53.9493C95.4601 53.9824 94.3119 53.8022 93.2462 53.4207C90.8391 52.5908 89.5242 50.9581 89.1364 48.7875C88.6594 46.0982 89.9031 43.8162 92.4661 42.5906C95.8181 40.9886 100.351 41.9298 102.295 44.646C102.994 45.6944 103.321 46.8966 103.235 48.1036C103.235 48.653 102.83 48.7759 102.29 48.7721H97.6279V48.7452ZM99.6293 46.5976C99.7051 45.1646 98.0558 44.185 95.8226 44.2541C93.9148 44.3117 92.3636 45.5219 92.6355 46.5976H99.6293Z" fill="#272D67"/>
<path d="M123.838 42.6676C124.707 42.3573 125.601 42.1006 126.512 41.8993C128.955 41.5151 132.227 42.5255 133.065 44.9727C133.306 45.7614 133.427 46.5737 133.426 47.3892C133.479 49.1488 133.453 50.9083 133.426 52.6717C133.426 53.6821 133.221 53.8242 132.058 53.8242C130.078 53.8242 130.083 53.8242 130.078 52.1223C130.074 50.4204 130.043 48.7223 130.078 47.0242C130.123 44.6846 127.64 43.9508 125.541 44.7192C124.27 45.161 123.816 46.0599 123.811 47.1702C123.811 49.1142 123.811 51.0581 123.811 53.0059C123.811 53.7512 123.7 53.8396 122.813 53.8473C122.367 53.8473 121.921 53.8473 121.475 53.8473C120.798 53.8819 120.548 53.636 120.553 53.0482C120.575 50.6355 120.553 48.219 120.553 45.8025V39.598C120.553 38.7144 120.66 38.6261 121.707 38.6184C122.153 38.6184 122.568 38.6184 122.991 38.6184C123.624 38.5876 123.838 38.8527 123.825 39.3598C123.825 40.2588 123.825 41.1616 123.825 42.0491C123.793 42.2527 123.82 42.4487 123.838 42.6676Z" fill="#272D67"/>
<path d="M24.9314 41.1808V46.1751C24.9314 48.4264 24.9314 50.6765 24.9314 52.9252C24.9314 53.6705 24.8557 53.7358 23.9954 53.7397H22.3728C21.4457 53.7397 21.4279 53.7397 21.4234 52.9098C21.4234 50.6047 21.4234 48.3266 21.4234 46.0368V41.1769H20.5319C19.4621 41.1769 18.3923 41.1769 17.3225 41.1769C16.645 41.1769 16.3775 40.8965 16.3954 40.3433C16.3954 39.9591 16.3954 39.5749 16.3954 39.1907C16.3954 38.4915 16.587 38.3225 17.3983 38.3148C18.8247 38.3148 20.2511 38.3148 21.6819 38.3148L28.8139 38.2917C29.6742 38.2917 29.9104 38.4377 29.9194 39.1677C29.9639 41.4728 29.9996 41.0886 27.7575 41.1808C26.8749 41.2192 25.97 41.1808 24.9314 41.1808Z" fill="#272D67"/>
<path d="M118.177 46.0945C117.147 46.0945 116.158 46.0945 115.168 46.0945C114.994 46.0945 114.789 45.8716 114.669 45.7103C113.777 44.5155 112.61 44.1121 110.929 44.4118C110.242 44.5013 109.613 44.7955 109.151 45.2432C108.689 45.691 108.424 46.2641 108.402 46.8628C108.324 47.7748 108.395 48.6915 108.611 49.5867C108.839 50.5894 109.757 51.0888 110.876 51.3078C112.128 51.5537 113.439 51.5422 114.17 50.5394C115.155 49.214 116.545 49.7711 117.802 49.7288C118.248 49.7288 118.248 50.113 118.128 50.4434C117.823 51.235 117.285 51.945 116.567 52.5045C115.849 53.0639 114.976 53.4537 114.031 53.6359C111.526 54.1584 109.159 53.901 107.14 52.4066C105.121 50.9121 104.715 49.045 104.911 46.9205C105.125 44.454 106.57 42.8174 109.307 42.1336C112.293 41.3883 115.008 41.8608 117.201 43.8585C117.541 44.1482 117.805 44.4981 117.974 44.8841C118.142 45.2701 118.212 45.6831 118.177 46.0945Z" fill="#272D67"/>
<path d="M49.1445 43.0134C49.6661 42.7521 50.1296 42.5254 50.5888 42.2911C51.6205 41.8121 52.8134 41.6573 53.9631 41.8531C54.0892 41.8951 54.2013 41.9634 54.2892 42.0519C54.3771 42.1404 54.4381 42.2464 54.4668 42.3603C54.5174 42.973 54.492 43.5886 54.391 44.1966C54.3373 44.3182 54.2518 44.4275 54.1413 44.5161C54.0308 44.6047 53.8981 44.6702 53.7536 44.7076C53.3787 44.7613 52.9962 44.7613 52.6214 44.7076C50.7403 44.5885 49.3451 45.5643 49.2783 47.1817C49.2025 49.1026 49.2426 51.0235 49.2292 52.9444C49.2292 53.7128 49.2025 53.7128 48.2976 53.7128C47.6557 53.7128 47.0139 53.7128 46.372 53.7128C45.9262 53.7128 45.7747 53.5553 45.7747 53.1941C45.7747 49.6366 45.7747 46.0778 45.7747 42.5178C45.7632 42.4463 45.7709 42.3736 45.7971 42.3051C45.8233 42.2366 45.8674 42.1742 45.9259 42.1227C45.9844 42.0711 46.0558 42.0318 46.1347 42.0077C46.2136 41.9837 46.2978 41.9755 46.3809 41.9838C47.0228 41.9838 47.6647 41.9838 48.3065 41.9838C49.0554 41.9876 49.0286 42.5216 49.1445 43.0134Z" fill="#272D67"/>
<path d="M154.278 40.6314C154.786 50.6201 146.785 57.7428 137.674 60.1401C135.129 60.8124 132.302 60.7049 129.597 60.8662C129.345 60.8518 129.107 60.7652 128.919 60.6203C128.838 60.5695 128.77 60.5048 128.719 60.4301C128.668 60.3555 128.636 60.2726 128.624 60.1867C128.613 60.1008 128.622 60.0138 128.651 59.931C128.68 59.8483 128.729 59.7717 128.794 59.706C128.999 59.4637 129.281 59.278 129.606 59.172C131.768 58.6956 134.063 58.5957 136.14 57.9196C142.965 55.6836 147.186 51.4692 148.907 45.2416C151.216 36.9279 145.185 28.3799 136.64 25.3718C125.081 21.3033 112.311 27.2696 109.271 36.8396C109.104 37.2536 108.843 37.6349 108.504 37.9614C108.429 38.0417 108.33 38.1025 108.217 38.1368C108.105 38.1712 107.983 38.1777 107.866 38.1558C107.75 38.1338 107.642 38.0842 107.557 38.0125C107.471 37.9408 107.41 37.8499 107.381 37.7501C107.284 37.3029 107.31 36.8424 107.456 36.4054C109.81 28.3645 115.507 22.9322 124.894 20.8346C129.32 19.8043 133.999 19.9214 138.348 21.1712C142.696 22.421 146.521 24.748 149.343 27.8612C152.976 31.8606 154.34 35.3259 154.278 40.6314Z" fill="#ED6A06"/>
<path d="M138.409 62.6757C138.419 62.7541 138.399 62.833 138.355 62.9017C138.31 62.9704 138.242 63.0257 138.16 63.0599C136.533 63.6977 134.928 64.3815 133.257 64.9462C131.661 65.4879 130.012 65.9105 128.353 66.3293C127.719 66.5313 127.037 66.5985 126.365 66.5252C125.309 66.3255 124.163 66.0066 124.003 64.8579C123.86 63.8052 124.4 62.937 125.585 62.6296C127.119 62.199 128.699 61.9029 130.301 61.746C132.283 61.6211 134.273 61.6096 136.256 61.7114C136.89 61.7904 137.507 61.9523 138.084 62.1917C138.161 62.216 138.229 62.2583 138.281 62.3139C138.332 62.3695 138.364 62.4362 138.374 62.5067L138.409 62.6757Z" fill="#ED6A06"/>
<path d="M127.288 71.07C127.189 71.0815 127.089 71.0815 126.99 71.07C125.572 70.924 124.801 70.6858 124.551 70.171C124.007 69.0646 125.443 68.5844 126.334 68.1541C129.699 66.526 133.445 65.5715 137.295 65.3611C137.849 65.4048 138.381 65.5716 138.838 65.8451C138.895 65.8721 138.946 65.9086 138.987 65.9526C139.029 65.9967 139.059 66.0474 139.077 66.1017C139.096 66.1561 139.101 66.213 139.094 66.2692C139.086 66.3254 139.066 66.3798 139.034 66.4291C138.835 66.8336 138.53 67.1927 138.142 67.4779C134.861 69.2874 131.376 70.6666 127.288 71.07Z" fill="#ED6A06"/>
<path d="M124.895 74.8351C124.84 74.8192 124.79 74.7924 124.749 74.757C124.709 74.7215 124.678 74.6783 124.66 74.6309C124.643 74.5834 124.638 74.533 124.647 74.4838C124.656 74.4345 124.678 74.3877 124.712 74.3472C124.977 73.896 125.429 73.5466 125.978 73.3675C129.316 72.1228 132.664 70.9165 136.069 69.7831C136.817 69.5743 137.614 69.5372 138.383 69.6756C138.824 69.7967 139.227 70.0045 139.56 70.2826C139.634 70.3428 139.684 70.4221 139.701 70.5086C139.719 70.5952 139.704 70.6843 139.658 70.7628C139.533 71.0778 139.506 71.2584 138.766 71.6541C136.649 72.5176 134.478 73.2782 132.263 73.9323C130.401 74.5052 128.461 74.8643 126.49 75.0003C125.951 75.0775 125.397 75.0202 124.895 74.8351Z" fill="#ED6A06"/>
<path d="M126.405 78.5615C126.278 78.5216 126.172 78.4439 126.106 78.3424C126.04 78.241 126.018 78.1225 126.044 78.0083C126.147 77.7723 126.304 77.5562 126.504 77.3722C126.705 77.1883 126.945 77.0402 127.212 76.9364C129.886 75.8569 132.561 74.7965 135.347 73.9206C135.764 73.8607 136.193 73.9007 136.586 74.0362C136.979 74.1716 137.321 74.3974 137.576 74.689C137.861 74.9617 137.5 75.9068 137.165 76.4216C136.925 76.8058 136.274 77.0094 135.766 77.19C132.842 78.2849 130.002 78.9495 126.405 78.5615Z" fill="#ED6A06"/>
<path d="M80.3779 56.6133H20.6299V57.6006H80.3779V56.6133Z" fill="#ED6A06"/>
<path d="M90.5717 39.4097C90.5093 38.5107 90.3844 38.3993 89.328 38.3993C86.3772 38.3993 83.4219 38.4492 80.4755 38.3762C80.3774 38.3762 80.2793 38.3762 80.1813 38.3762C80.1813 38.3762 78.2913 38.3762 77.119 38.4031H76.6242C76.5522 38.4047 76.4805 38.4124 76.4102 38.4262C76.3631 38.4374 76.3169 38.4515 76.2721 38.4684C76.1788 38.4994 76.0969 38.5513 76.0349 38.6189C75.973 38.6865 75.9333 38.7672 75.9199 38.8526L75.8129 39.7477V40.2625C75.8129 40.2625 75.7372 40.9157 76.3033 41.0885C76.3552 41.1076 76.4089 41.123 76.4637 41.1346C76.5224 41.1471 76.582 41.156 76.642 41.1615C78.1442 41.4228 79.5171 41.2653 81.1218 41.1615C81.9019 41.1154 82.0133 41.3882 82.0133 41.9645C81.9866 45.3453 82.0133 48.7222 81.991 52.0992C81.991 53.8472 81.991 53.8472 84.0415 53.8357C85.3118 53.8357 85.4322 53.7281 85.4366 52.6524C85.4366 49.068 85.4812 45.4874 85.4768 41.8953C85.4768 41.3728 85.6461 41.15 86.2836 41.1846C87.0458 41.223 87.808 41.1846 88.5703 41.1846C90.5717 41.223 90.6697 41.1154 90.5717 39.4097Z" fill="#272D67"/>
</svg>
