<svg width="229" height="107" viewBox="0 0 229 107" fill="none" xmlns="http://www.w3.org/2000/svg">
<rect width="229" height="107" fill="white"/>
<path d="M16.5805 78.5876C16.8558 79.6879 17.6751 80.3407 19.1929 80.3407C20.8852 80.3407 21.5299 79.5851 21.5299 78.6783C21.5299 77.7715 21.0665 77.161 19.0317 76.7076C16.9969 76.2542 16.238 75.698 16.238 74.5011C16.238 73.4069 17.1245 72.3853 19.0988 72.3853C21.0732 72.3853 21.9932 73.4976 22.1074 74.5132H21.3687C21.1605 73.6185 20.5158 72.9777 19.0585 72.9777C17.7154 72.9777 17.0036 73.5338 17.0036 74.4648C17.0036 75.3958 17.608 75.7343 19.3137 76.1151C21.9126 76.7197 22.2954 77.6325 22.2954 78.6299C22.2954 79.839 21.3082 80.915 19.166 80.915C16.8558 80.915 16.0097 79.706 15.8418 78.5876H16.5805Z" fill="#374C9B"/>
<path d="M30.7169 77.8319C30.7169 79.4822 29.7029 80.9573 27.7352 80.9573C25.9489 80.9573 24.8408 79.6394 24.8408 77.844C24.8408 76.1453 25.8884 74.7307 27.8024 74.7307C29.5484 74.7307 30.7169 75.9639 30.7169 77.8319ZM25.5392 77.8319C25.5392 79.2465 26.3854 80.383 27.7889 80.383C29.1925 80.383 30.0185 79.3251 30.0185 77.8319C30.0185 76.3387 29.2261 75.2748 27.7621 75.2748C26.2981 75.2748 25.5191 76.4173 25.5191 77.844L25.5392 77.8319Z" fill="#374C9B"/>
<path d="M33.6182 80.8123V72.0588H34.2897V80.8123H33.6182Z" fill="#374C9B"/>
<path d="M42.6507 79.0773C42.6507 79.6818 42.6507 80.5886 42.6507 80.8123H41.9791C41.9444 80.4687 41.931 80.1236 41.9388 79.7786C41.7835 80.161 41.4897 80.4852 41.1047 80.699C40.7198 80.9129 40.2661 81.0039 39.8167 80.9574C38.8631 80.9574 37.6543 80.6249 37.6543 78.8053V74.8699H38.3259V78.6602C38.3259 79.5307 38.6281 80.371 39.9376 80.371C41.415 80.371 41.9522 79.6274 41.9522 77.9529V74.8941H42.6238L42.6507 79.0773Z" fill="#374C9B"/>
<path d="M45.249 74.8698H46.478V73.02H47.1495V74.8698H48.721V75.4321H47.1361V79.2949C47.1361 79.9599 47.2906 80.3347 47.9285 80.3347C48.1547 80.3408 48.3808 80.3184 48.6001 80.2682V80.7881C48.3366 80.869 48.059 80.9059 47.7808 80.8969C46.9346 80.8969 46.4377 80.5161 46.4377 79.567V75.4321H45.249V74.8698Z" fill="#374C9B"/>
<path d="M51.3203 72.0588H51.9919V73.2074H51.3203V72.0588ZM51.3203 74.8699H51.9919V80.8123H51.3203V74.8699Z" fill="#374C9B"/>
<path d="M60.7551 77.8319C60.7551 79.4822 59.7411 80.9573 57.7734 80.9573C55.9938 80.9573 54.8857 79.6394 54.8857 77.844C54.8857 76.1453 55.9266 74.7307 57.8406 74.7307C59.5933 74.7307 60.7551 75.9639 60.7551 77.8319ZM55.5842 77.8319C55.5842 79.2465 56.4236 80.383 57.8271 80.383C59.2307 80.383 60.0567 79.3251 60.0567 77.8319C60.0567 76.3387 59.2643 75.2748 57.8003 75.2748C56.3363 75.2748 55.5842 76.4173 55.5842 77.844V77.8319Z" fill="#374C9B"/>
<path d="M63.657 76.369C63.657 75.8491 63.657 75.3473 63.657 74.8698H64.3285C64.3285 75.0632 64.3688 75.837 64.3285 76.0002C64.4897 75.6027 64.7909 75.2635 65.1862 75.0343C65.5814 74.8051 66.049 74.6985 66.5178 74.7307C67.693 74.7307 68.7339 75.3353 68.7339 76.9614V80.8122H68.0624V77.0581C68.0624 76.0002 67.5722 75.3111 66.4238 75.3111C64.8524 75.3111 64.3151 76.5201 64.3151 77.7836V80.8062H63.6436L63.657 76.369Z" fill="#374C9B"/>
<path d="M72.1177 79.1921C72.2135 79.5642 72.4566 79.8921 72.8014 80.1146C73.1462 80.3371 73.5692 80.4389 73.9914 80.4012C75.1666 80.4012 75.6434 79.9176 75.6434 79.2526C75.6434 78.5876 75.3278 78.243 73.8503 77.9226C72.1446 77.5539 71.7215 77.0884 71.7215 76.3025C71.7215 75.5167 72.3931 74.7247 73.9041 74.7247C74.4548 74.672 75.0063 74.817 75.4389 75.1283C75.8715 75.4396 76.1501 75.892 76.2142 76.3872H75.5427C75.4692 76.0465 75.2569 75.743 74.9475 75.536C74.6381 75.3291 74.254 75.2338 73.8705 75.2688C72.7221 75.2688 72.3931 75.7826 72.3931 76.2542C72.3931 76.7257 72.7087 77.0763 74.0115 77.3604C75.8784 77.7655 76.3351 78.3095 76.3351 79.174C76.3351 80.2561 75.3613 80.9211 73.9779 80.9211C72.4669 80.9211 71.6275 80.2077 71.4395 79.1377L72.1177 79.1921Z" fill="#374C9B"/>
<path d="M84.2264 78.5876C84.5017 79.6879 85.321 80.3407 86.8387 80.3407C88.5243 80.3407 89.1757 79.5851 89.1757 78.6783C89.1757 77.7715 88.7124 77.161 86.6776 76.7076C84.6428 76.2542 83.8839 75.698 83.8839 74.5011C83.8839 73.4069 84.7636 72.3853 86.7447 72.3853C88.7258 72.3853 89.6324 73.4976 89.7533 74.5132H89.0146C88.8064 73.6185 88.155 72.9777 86.7044 72.9777C85.3613 72.9777 84.6428 73.5338 84.6428 74.4648C84.6428 75.3958 85.2539 75.7343 86.9529 76.1151C89.5585 76.7197 89.9413 77.6325 89.9413 78.6299C89.9413 79.839 88.9474 80.915 86.8119 80.915C84.5017 80.915 83.6556 79.706 83.4541 78.5876H84.2264Z" fill="#374C9B"/>
<path d="M97.5294 79.6817C97.5272 80.06 97.5564 80.4378 97.6167 80.8122H96.9854C96.9044 80.5134 96.8638 80.2069 96.8645 79.8994C96.6649 80.2516 96.3514 80.5411 95.9655 80.73C95.5795 80.9188 95.1391 80.998 94.7021 80.9573C94.4246 80.9856 94.1436 80.9604 93.8777 80.8834C93.6118 80.8064 93.3672 80.6794 93.1601 80.5107C92.953 80.342 92.7882 80.1355 92.6766 79.905C92.565 79.6745 92.5092 79.4253 92.5129 79.1739C92.5129 77.8682 93.6344 77.2697 95.6155 77.2697H96.8645V76.6652C96.8645 76.0607 96.6698 75.2748 95.1655 75.2748C93.8224 75.2748 93.6344 75.8793 93.4866 76.3931H92.8151C92.8957 75.7403 93.3456 74.7307 95.1655 74.7307C96.6698 74.7307 97.516 75.299 97.516 76.6047L97.5294 79.6817ZM96.8578 77.7835H95.5684C94.1045 77.7835 93.1911 78.1281 93.1911 79.1497C93.1816 79.3267 93.2153 79.5033 93.2899 79.6672C93.3646 79.8311 93.4783 79.9782 93.6231 80.0982C93.7679 80.2181 93.9402 80.308 94.1278 80.3614C94.3154 80.4148 94.5138 80.4304 94.7089 80.4071C96.5959 80.4071 96.8578 79.2827 96.8578 77.9891V77.7835Z" fill="#374C9B"/>
<path d="M100.975 76.4899C100.975 75.4924 100.975 75.0632 100.975 74.8697H101.646C101.646 75.0632 101.646 75.4743 101.646 76.2057C101.819 75.7802 102.131 75.4116 102.541 75.1484C102.951 74.8852 103.44 74.7396 103.943 74.7307V75.3715C103.617 75.3809 103.297 75.4503 103.002 75.5755C102.707 75.7007 102.444 75.8791 102.229 76.0995C102.013 76.3199 101.851 76.5777 101.75 76.8569C101.65 77.1362 101.615 77.431 101.646 77.7231V80.8122H100.975V76.4899Z" fill="#374C9B"/>
<path d="M106.516 80.8123V72.0588H107.187V80.8123H106.516Z" fill="#374C9B"/>
<path d="M87.1075 60.6334C85.8853 61.2379 84.7638 62.0722 83.4811 62.447C79.0623 63.7467 74.3211 61.8425 71.9908 57.9433C69.6606 54.0442 70.4396 49.0085 73.6765 46.1068C75.2551 44.6452 77.3669 43.7456 79.6234 43.5735C81.88 43.4013 84.1298 43.9682 85.9592 45.1698L87.4165 46.1068C87.4635 45.6837 87.5239 45.4237 87.5306 45.1577C87.5306 43.8278 87.5306 43.8278 89.0886 43.8217C89.8743 43.8217 90.6668 43.8217 91.4525 43.7855C92.2382 43.7492 92.4598 44.0031 92.4464 44.6741C92.3927 47.0922 92.3792 49.5647 92.3725 52.0069C92.3725 55.1323 92.3255 58.2516 92.3725 61.377C92.3725 62.32 92.0233 62.6827 91.0294 62.586C90.8505 62.577 90.6711 62.577 90.4922 62.586C89.6326 62.586 88.6185 62.8036 87.9671 62.4712C87.4165 62.1991 87.3493 61.2319 87.1075 60.6334ZM75.8389 53.1253C75.8092 53.8329 75.9351 54.5389 76.2092 55.2026C76.4833 55.8664 76.9003 56.4749 77.4362 56.9933C77.9722 57.5117 78.6165 57.9297 79.3323 58.2235C80.0481 58.5172 80.8213 58.6808 81.6075 58.705C84.8914 58.705 87.3493 56.3957 87.356 53.2643C87.3783 52.5569 87.2447 51.8525 86.9628 51.1919C86.6809 50.5312 86.2564 49.9274 85.7138 49.4154C85.1711 48.9033 84.5211 48.4931 83.8013 48.2085C83.0816 47.9238 82.3062 47.7704 81.5202 47.7572C78.2497 47.7572 75.8456 50.0362 75.8389 53.1253Z" fill="#272D67"/>
<path d="M51.2127 56.3895C50.8103 58.1741 49.6944 59.7637 48.0766 60.8569C43.4697 63.9218 35.1357 63.275 31.7041 58.0882C28.0374 52.5931 30.8915 45.6351 37.6406 43.9364C43.1675 42.5581 49.2115 44.952 50.8635 49.8426C51.1711 51.0591 51.3398 52.3008 51.3672 53.5483C51.441 54.316 51.0045 54.6062 50.1248 54.6001C45.6791 54.6001 41.2267 54.6001 36.781 54.6001H35.5051C35.6729 56.8429 37.7682 58.5477 40.4544 58.7048C42.6302 58.8318 44.571 58.3844 46.0753 56.8429C46.2713 56.6205 46.5507 56.4701 46.861 56.4197C48.2512 56.3653 49.6413 56.3895 51.2127 56.3895ZM46.1425 51.1121C46.1425 48.8632 43.5637 47.2371 40.441 47.4366C37.5936 47.6179 35.4715 49.2501 35.7401 51.1121H46.1425Z" fill="#272D67"/>
<path d="M133.525 54.6727C131.161 54.6727 128.824 54.6727 126.44 54.6727C125.702 54.6727 125.5 54.854 125.769 55.5432C126.689 57.9613 129.127 59.1703 132.39 58.8439C133.865 58.7191 135.239 58.1178 136.258 57.1512C136.64 56.8402 137.123 56.6492 137.635 56.6072C138.522 56.5165 139.428 56.6072 140.321 56.5709C141.215 56.5346 141.443 56.8792 141.141 57.6227C140.787 58.5202 140.239 59.3453 139.527 60.05C138.816 60.7547 137.956 61.3249 136.997 61.7274C135.44 62.4227 133.734 62.8094 131.997 62.8615C130.259 62.9137 128.529 62.63 126.924 62.0297C123.297 60.7239 121.316 58.1547 120.732 54.7392C120.014 50.5075 121.887 46.9167 125.749 44.9883C130.799 42.4674 137.628 43.9485 140.556 48.2225C141.61 49.8722 142.102 51.7639 141.973 53.6631C141.973 54.5276 141.362 54.7211 140.55 54.715H133.525V54.6727ZM136.54 51.2934C136.655 49.0386 134.17 47.497 130.805 47.6059C127.931 47.6965 125.594 49.6008 126.004 51.2934H136.54Z" fill="#272D67"/>
<path d="M173.013 45.1093C174.323 44.6211 175.669 44.217 177.042 43.9003C180.722 43.2957 185.652 44.8856 186.914 48.7364C187.277 49.9774 187.46 51.2555 187.458 52.5389C187.539 55.3076 187.498 58.0763 187.458 60.851C187.458 62.4409 187.149 62.6646 185.396 62.6646C182.415 62.6646 182.421 62.6646 182.415 59.9865C182.408 57.3085 182.361 54.6365 182.415 51.9646C182.482 48.283 178.741 47.1284 175.578 48.3374C173.664 49.0326 172.979 50.4472 172.973 52.1943C172.973 55.2531 172.973 58.312 172.973 61.3769C172.973 62.5497 172.805 62.6887 171.468 62.7008C170.797 62.7008 170.125 62.7008 169.454 62.7008C168.433 62.7552 168.057 62.3683 168.064 61.4434C168.097 57.647 168.064 53.8446 168.064 50.0422V40.2792C168.064 38.8888 168.225 38.7498 169.803 38.7377C170.474 38.7377 171.099 38.7377 171.737 38.7377C172.691 38.6893 173.013 39.1064 172.993 39.9044C172.993 41.319 172.993 42.7396 172.993 44.136C172.946 44.4564 172.986 44.7647 173.013 45.1093Z" fill="#272D67"/>
<path d="M24.0012 42.7699V50.6286C24.0012 54.1711 24.0012 57.7116 24.0012 61.25C24.0012 62.4228 23.887 62.5256 22.5909 62.5316H20.1464C18.7496 62.5316 18.7228 62.5316 18.716 61.2259C18.716 57.5987 18.716 54.0139 18.716 50.411V42.7638H17.3729C15.7612 42.7638 14.1495 42.7638 12.5377 42.7638C11.517 42.7638 11.114 42.3225 11.1409 41.452C11.1409 40.8475 11.1409 40.243 11.1409 39.6385C11.1409 38.5382 11.4297 38.2722 12.6519 38.2601C14.8009 38.2601 16.9498 38.2601 19.1055 38.2601L29.8504 38.2239C31.1465 38.2239 31.5024 38.4536 31.5159 39.6022C31.583 43.2293 31.6367 42.6248 28.2588 42.7699C26.9291 42.8303 25.5659 42.7699 24.0012 42.7699Z" fill="#272D67"/>
<path d="M164.484 50.5017C162.933 50.5017 161.442 50.5017 159.951 50.5017C159.689 50.5017 159.38 50.1511 159.199 49.8972C157.856 48.0171 156.096 47.3824 153.564 47.8539C152.529 47.9947 151.581 48.4577 150.885 49.1622C150.19 49.8668 149.79 50.7686 149.757 51.7107C149.64 53.1457 149.746 54.5882 150.072 55.9968C150.415 57.5746 151.798 58.3604 153.484 58.705C155.371 59.0919 157.345 59.0738 158.447 57.496C159.931 55.4104 162.026 56.2869 163.92 56.2204C164.591 56.2204 164.591 56.825 164.41 57.3448C163.95 58.5904 163.14 59.7077 162.059 60.588C160.977 61.4683 159.661 62.0816 158.238 62.3684C154.464 63.1905 150.898 62.7855 147.856 60.4339C144.814 58.0824 144.203 55.1444 144.498 51.8014C144.821 47.9204 146.997 45.3451 151.12 44.2691C155.619 43.0963 159.709 43.8399 163.013 46.9834C163.526 47.4391 163.924 47.9897 164.178 48.5971C164.432 49.2046 164.536 49.8544 164.484 50.5017Z" fill="#272D67"/>
<path d="M60.4802 45.6534C61.2659 45.2423 61.9644 44.8857 62.6561 44.5169C64.2105 43.7632 66.0077 43.5196 67.7397 43.8278C67.9298 43.8937 68.0986 44.0012 68.2311 44.1405C68.3635 44.2798 68.4555 44.4465 68.4986 44.6257C68.5749 45.5898 68.5366 46.5585 68.3844 47.5153C68.3035 47.7066 68.1748 47.8786 68.0083 48.018C67.8417 48.1574 67.6419 48.2605 67.4241 48.3193C66.8594 48.4039 66.283 48.4039 65.7183 48.3193C62.8844 48.1319 60.7824 49.6674 60.6817 52.2125C60.5675 55.2351 60.628 58.2577 60.6078 61.2803C60.6078 62.4893 60.5675 62.4893 59.2043 62.4893C58.2372 62.4893 57.2702 62.4893 56.3031 62.4893C55.6316 62.4893 55.4033 62.2414 55.4033 61.6732C55.4033 56.0753 55.4033 50.4755 55.4033 44.8736C55.386 44.7612 55.3976 44.6467 55.4371 44.539C55.4766 44.4312 55.543 44.333 55.6311 44.2519C55.7193 44.1708 55.8269 44.1089 55.9457 44.071C56.0645 44.0332 56.1914 44.0202 56.3166 44.0333C57.2836 44.0333 58.2507 44.0333 59.2177 44.0333C60.3459 44.0393 60.3056 44.8796 60.4802 45.6534Z" fill="#272D67"/>
<path d="M218.873 41.9054C219.638 57.6229 207.584 68.8307 193.857 72.6029C190.023 73.6609 185.765 73.4916 181.689 73.7455C181.31 73.7228 180.951 73.5866 180.668 73.3586C180.546 73.2786 180.443 73.1767 180.367 73.0593C180.29 72.9419 180.241 72.8115 180.224 72.6763C180.206 72.5411 180.22 72.4041 180.264 72.2739C180.308 72.1437 180.381 72.0232 180.48 71.9198C180.788 71.5385 181.212 71.2464 181.702 71.0796C184.959 70.33 188.418 70.1728 191.547 69.1088C201.829 65.5905 208.188 58.9589 210.78 49.1597C214.259 36.0779 205.173 22.6273 192.299 17.8939C174.886 11.492 155.646 20.8802 151.066 35.9388C150.815 36.5903 150.422 37.1903 149.911 37.704C149.798 37.8304 149.649 37.9261 149.479 37.9801C149.309 38.0341 149.126 38.0445 148.95 38.0099C148.774 37.9754 148.613 37.8973 148.483 37.7845C148.354 37.6717 148.262 37.5287 148.218 37.3715C148.072 36.6679 148.111 35.9433 148.333 35.2557C151.878 22.6031 160.461 14.0552 174.604 10.7545C181.271 9.13338 188.321 9.31761 194.873 11.2842C201.424 13.2508 207.186 16.9124 211.439 21.8112C216.912 28.1042 218.967 33.557 218.873 41.9054Z" fill="#ED6A06"/>
<path d="M194.966 76.5926C194.98 76.7159 194.951 76.84 194.884 76.9482C194.816 77.0563 194.714 77.1432 194.59 77.1971C192.139 78.2006 189.721 79.2767 187.203 80.1653C184.799 81.0177 182.314 81.6827 179.816 82.3416C178.859 82.6594 177.832 82.7652 176.821 82.6499C175.229 82.3355 173.503 81.8338 173.261 80.0263C173.046 78.3699 173.859 77.0037 175.645 76.5201C177.956 75.8424 180.336 75.3766 182.75 75.1297C185.736 74.9332 188.734 74.915 191.722 75.0753C192.678 75.1995 193.606 75.4543 194.476 75.8309C194.592 75.8692 194.695 75.9358 194.772 76.0233C194.849 76.1108 194.897 76.2158 194.912 76.3266L194.966 76.5926Z" fill="#ED6A06"/>
<path d="M178.211 89.8015C178.062 89.8196 177.91 89.8196 177.761 89.8015C175.625 89.5718 174.464 89.197 174.088 88.3869C173.268 86.6459 175.431 85.8903 176.774 85.2132C181.842 82.6515 187.486 81.1494 193.287 80.8184C194.122 80.8872 194.922 81.1496 195.611 81.5801C195.698 81.6224 195.775 81.6799 195.837 81.7492C195.899 81.8185 195.945 81.8982 195.972 81.9838C196 82.0693 196.008 82.1589 195.997 82.2473C195.986 82.3358 195.955 82.4213 195.906 82.4989C195.607 83.1355 195.147 83.7005 194.563 84.1493C189.621 86.9965 184.369 89.1668 178.211 89.8015Z" fill="#ED6A06"/>
<path d="M174.604 95.7256C174.522 95.7006 174.447 95.6585 174.385 95.6026C174.324 95.5468 174.278 95.4789 174.252 95.4042C174.225 95.3295 174.218 95.2503 174.231 95.1728C174.245 95.0952 174.278 95.0216 174.329 94.9579C174.729 94.2479 175.409 93.6981 176.236 93.4163C181.266 91.4577 186.309 89.5595 191.44 87.7762C192.566 87.4476 193.767 87.3892 194.925 87.6069C195.591 87.7976 196.197 88.1245 196.698 88.562C196.81 88.6568 196.885 88.7816 196.912 88.9178C196.938 89.054 196.915 89.1942 196.846 89.3177C196.658 89.8134 196.618 90.0975 195.503 90.7202C192.314 92.079 189.043 93.2758 185.705 94.305C182.901 95.2064 179.977 95.7715 177.008 95.9855C176.196 96.1071 175.362 96.0169 174.604 95.7256Z" fill="#ED6A06"/>
<path d="M176.881 101.59C176.689 101.527 176.53 101.404 176.43 101.245C176.33 101.085 176.297 100.899 176.337 100.719C176.492 100.348 176.728 100.008 177.03 99.7182C177.332 99.4288 177.694 99.1958 178.096 99.0325C182.125 97.3338 186.155 95.6653 190.352 94.287C190.981 94.1927 191.627 94.2556 192.219 94.4688C192.811 94.682 193.326 95.0373 193.71 95.496C194.14 95.9252 193.596 97.4123 193.092 98.2224C192.729 98.8269 191.749 99.1473 190.983 99.4314C186.578 101.154 182.3 102.2 176.881 101.59Z" fill="#ED6A06"/>
<path d="M107.536 67.0532H17.5205V68.6068H107.536V67.0532Z" fill="#ED6A06"/>
<path d="M122.895 39.9828C122.801 38.5683 122.613 38.393 121.021 38.393C116.575 38.393 112.123 38.4715 107.684 38.3567C107.536 38.3567 107.388 38.3567 107.241 38.3567C107.241 38.3567 104.393 38.3567 102.627 38.399H101.882C101.773 38.4015 101.665 38.4137 101.559 38.4353C101.488 38.453 101.419 38.4752 101.351 38.5018C101.211 38.5504 101.087 38.6322 100.994 38.7386C100.9 38.845 100.841 38.972 100.821 39.1063L100.659 40.5148V41.3249C100.659 41.3249 100.545 42.3526 101.398 42.6246C101.476 42.6546 101.557 42.6788 101.64 42.6971C101.728 42.7167 101.818 42.7308 101.908 42.7395C104.172 43.1505 106.24 42.9027 108.658 42.7395C109.833 42.6669 110.001 43.0961 110.001 44.0029C109.96 49.3227 110.001 54.6364 109.967 59.9501C109.967 62.7007 109.967 62.7007 113.056 62.6826C114.97 62.6826 115.152 62.5133 115.158 60.8206C115.158 55.1805 115.225 49.5464 115.219 43.8941C115.219 43.0719 115.474 42.7213 116.434 42.7757C117.583 42.8362 118.731 42.7757 119.879 42.7757C122.895 42.8362 123.042 42.6669 122.895 39.9828Z" fill="#272D67"/>
</svg>
