<svg width="626" height="337" viewBox="0 0 626 337" fill="none" xmlns="http://www.w3.org/2000/svg">
<g clip-path="url(#clip0_760_256)">
<path d="M501.951 67.4817H456.108C455.165 67.4805 454.261 67.0794 453.594 66.3662C452.927 65.653 452.552 64.686 452.551 63.6773V45.9238C452.551 38.4126 455.34 31.209 460.306 25.8978C465.272 20.5865 472.007 17.6027 479.029 17.6027C486.052 17.6027 492.787 20.5865 497.752 25.8978C502.718 31.209 505.508 38.4126 505.508 45.9238V63.6773C505.507 64.686 505.132 65.653 504.465 66.3662C503.798 67.0794 502.894 67.4805 501.951 67.4817Z" fill="#2F2E41"/>
<path d="M430.653 326.251L421.371 323.273L427.69 283.565L441.389 287.958L430.653 326.251Z" fill="#FFB8B8"/>
<path d="M430.321 336.634L400.393 327.034L400.506 326.63C400.965 324.993 401.72 323.47 402.729 322.146C403.739 320.822 404.982 319.723 406.388 318.913C407.794 318.103 409.335 317.597 410.924 317.424C412.513 317.252 414.118 317.415 415.648 317.906L433.928 323.769L430.321 336.634Z" fill="#2F2E41"/>
<path d="M538.768 326.587H529.077L524.468 286.609L538.769 286.61L538.768 326.587Z" fill="#FFB8B8"/>
<path d="M541.239 336.634L509.994 336.632V336.21C509.994 334.502 510.309 332.81 510.92 331.232C511.531 329.654 512.427 328.22 513.556 327.012C514.685 325.804 516.026 324.846 517.502 324.192C518.977 323.539 520.559 323.202 522.156 323.202L541.24 323.203L541.239 336.634Z" fill="#2F2E41"/>
<path d="M480.094 67.3069C490.815 67.3069 499.507 58.0106 499.507 46.5429C499.507 35.0752 490.815 25.7788 480.094 25.7788C469.372 25.7788 460.681 35.0752 460.681 46.5429C460.681 58.0106 469.372 67.3069 480.094 67.3069Z" fill="#FFB8B8"/>
<path d="M456.939 303.046C456.589 303.046 456.241 302.999 455.902 302.905L416.999 292.086C416.433 291.928 415.905 291.646 415.448 291.256C414.991 290.867 414.616 290.379 414.346 289.825C414.076 289.271 413.918 288.662 413.882 288.038C413.846 287.415 413.932 286.79 414.136 286.204C437.722 218.351 457.036 159.822 454.447 130.822C450.788 122.94 448.919 114.247 448.994 105.448L449.27 76.1289C449.278 75.2718 449.466 74.4275 449.819 73.6579C450.171 72.8883 450.681 72.213 451.309 71.6814C451.938 71.1499 452.67 70.7756 453.451 70.586C454.233 70.3965 455.044 70.3965 455.826 70.586L499.35 81.1261L499.597 82.0044C503.074 94.496 502.724 107.85 498.599 120.114C524.257 144.89 541.462 226.23 551.385 290.209C551.539 291.221 551.364 292.259 550.89 293.151C550.416 294.042 549.67 294.733 548.778 295.108L548.655 295.14L518.139 298.366C517.605 298.578 517.036 298.671 516.467 298.639C515.898 298.607 515.341 298.45 514.83 298.179C514.32 297.908 513.866 297.528 513.498 297.063C513.13 296.597 512.855 296.056 512.69 295.473L486.471 202.929L460.973 299.792C460.721 300.729 460.192 301.552 459.464 302.139C458.737 302.726 457.851 303.045 456.939 303.046Z" fill="#2F2E41"/>
<path d="M498.546 47.1919H472.916C472.434 47.1913 471.97 47.0028 471.609 46.662C471.248 46.3211 471.015 45.8511 470.955 45.3401L470.623 42.5009C470.591 42.2279 470.477 41.9734 470.298 41.7758C470.119 41.5782 469.885 41.4481 469.631 41.4054C469.377 41.3626 469.117 41.4093 468.89 41.5386C468.663 41.6679 468.481 41.8726 468.372 42.122L466.692 45.9726C466.532 46.3364 466.279 46.6441 465.962 46.86C465.645 47.0759 465.277 47.191 464.902 47.1919H461.008C460.733 47.192 460.461 47.1305 460.209 47.0114C459.957 46.8922 459.731 46.7181 459.546 46.5001C459.361 46.2821 459.22 46.0251 459.133 45.7456C459.046 45.4661 459.015 45.1702 459.041 44.877L460.576 27.7269C460.609 27.36 460.731 27.0085 460.928 26.7068C461.126 26.4051 461.394 26.1635 461.706 26.0056C473.443 20.1447 485.346 20.1521 497.084 26.0279C497.382 26.1775 497.64 26.4043 497.835 26.6875C498.03 26.9708 498.157 27.3017 498.202 27.6502L500.502 44.7779C500.542 45.0778 500.522 45.3835 500.442 45.6742C500.362 45.9649 500.225 46.2338 500.039 46.4628C499.854 46.6918 499.624 46.8754 499.367 47.0012C499.109 47.127 498.829 47.192 498.546 47.1919Z" fill="#2F2E41"/>
<path d="M440.716 308.384L197.337 286.531C195.563 286.369 193.92 285.461 192.77 284.006C191.621 282.551 191.058 280.667 191.205 278.769L200.396 161.669C200.547 159.771 201.395 158.014 202.756 156.784C204.116 155.555 205.877 154.952 207.653 155.11L451.031 176.963C452.806 177.125 454.448 178.032 455.598 179.488C456.748 180.943 457.311 182.826 457.164 184.725L447.973 301.825C447.822 303.723 446.973 305.48 445.613 306.709C444.252 307.939 442.491 308.542 440.716 308.384Z" fill="#2F2E41"/>
<path d="M437.373 300.449L201.87 279.302C200.931 279.217 200.061 278.736 199.452 277.966C198.844 277.195 198.546 276.198 198.623 275.193L207.153 166.518C207.233 165.513 207.683 164.583 208.403 163.932C209.123 163.281 210.055 162.962 210.995 163.045L446.498 184.191C447.437 184.277 448.307 184.758 448.915 185.528C449.524 186.298 449.822 187.295 449.744 188.301L441.215 296.976C441.135 297.981 440.685 298.911 439.965 299.562C439.245 300.213 438.312 300.532 437.373 300.449Z" fill="white"/>
<path d="M376.71 259.653C376.726 259.654 376.741 259.655 376.756 259.655C384.523 259.824 392.058 256.822 397.83 251.26C403.601 245.697 407.175 237.993 407.825 229.713C408.475 221.433 406.152 213.199 401.328 206.685C396.505 200.172 389.543 195.868 381.858 194.649C381.763 194.634 381.666 194.639 381.573 194.666C381.481 194.692 381.394 194.739 381.319 194.803C381.244 194.866 381.182 194.945 381.137 195.035C381.092 195.124 381.065 195.223 381.057 195.325L376.072 258.846C376.057 259.044 376.115 259.239 376.235 259.391C376.355 259.542 376.526 259.636 376.71 259.653Z" fill="#272D67"/>
<path d="M356.515 203.247C356.752 203.269 356.972 203.39 357.126 203.584L376.067 227.556C376.143 227.652 376.201 227.763 376.236 227.883C376.272 228.003 376.286 228.129 376.275 228.255L373.89 258.65C373.88 258.781 373.845 258.908 373.787 259.023C373.729 259.138 373.65 259.24 373.554 259.32C373.457 259.402 373.346 259.462 373.227 259.496C373.108 259.53 372.983 259.538 372.861 259.519C367.203 258.621 361.891 256.054 357.522 252.105C353.153 248.156 349.9 242.982 348.129 237.164C346.358 231.347 346.138 225.116 347.495 219.172C348.853 213.229 351.733 207.808 355.812 203.519C355.9 203.426 356.005 203.354 356.12 203.307C356.236 203.26 356.359 203.239 356.482 203.245L356.515 203.247Z" fill="#E6E6E6"/>
<path d="M378.053 194.092C378.282 194.113 378.494 194.226 378.647 194.407C378.73 194.504 378.793 194.619 378.832 194.743C378.871 194.867 378.885 194.998 378.875 195.129L376.722 222.553C376.707 222.742 376.64 222.922 376.53 223.07C376.42 223.219 376.271 223.328 376.102 223.386C375.933 223.444 375.752 223.446 375.582 223.394C375.412 223.342 375.26 223.236 375.145 223.092L358.617 202.173C358.538 202.073 358.48 201.958 358.444 201.833C358.409 201.709 358.397 201.578 358.411 201.449C358.424 201.319 358.462 201.194 358.522 201.081C358.582 200.967 358.662 200.868 358.759 200.79C364.285 196.304 371.063 193.943 377.998 194.089C378.016 194.089 378.035 194.091 378.053 194.092Z" fill="#ED6A06"/>
<path d="M363.522 271.88C363.431 273.037 363.021 274.139 362.345 275.047C361.669 275.955 360.756 276.628 359.721 276.981C358.687 277.334 357.579 277.351 356.536 277.03C355.492 276.709 354.562 276.065 353.861 275.178C353.16 274.291 352.721 273.202 352.599 272.048C352.477 270.895 352.678 269.728 353.176 268.697C353.674 267.665 354.446 266.814 355.396 266.252C356.346 265.69 357.43 265.442 358.512 265.539C359.962 265.671 361.303 266.413 362.243 267.602C363.182 268.79 363.642 270.329 363.522 271.88Z" fill="#ED6A06"/>
<path d="M379.148 273.283C379.057 274.44 378.647 275.542 377.971 276.45C377.295 277.358 376.382 278.031 375.347 278.384C374.313 278.737 373.205 278.754 372.161 278.434C371.118 278.113 370.188 277.468 369.487 276.581C368.786 275.694 368.347 274.605 368.225 273.452C368.103 272.298 368.304 271.132 368.802 270.1C369.3 269.068 370.072 268.217 371.022 267.655C371.972 267.093 373.056 266.845 374.138 266.942C375.588 267.074 376.929 267.816 377.869 269.005C378.808 270.194 379.268 271.732 379.148 273.283Z" fill="#272D67"/>
<path d="M394.774 274.686C394.683 275.843 394.273 276.945 393.597 277.853C392.921 278.761 392.008 279.434 390.973 279.787C389.939 280.14 388.831 280.157 387.787 279.836C386.744 279.516 385.813 278.871 385.113 277.984C384.412 277.097 383.973 276.008 383.851 274.855C383.729 273.701 383.93 272.535 384.428 271.503C384.925 270.471 385.698 269.62 386.648 269.058C387.598 268.496 388.682 268.248 389.764 268.345C391.214 268.477 392.555 269.219 393.495 270.408C394.434 271.596 394.894 273.135 394.774 274.686Z" fill="#E6E6E6"/>
<path d="M297.213 203.411L247.032 198.905C246.544 198.861 246.052 198.921 245.585 199.08C245.117 199.24 244.684 199.496 244.309 199.835C243.935 200.174 243.626 200.588 243.401 201.054C243.176 201.52 243.039 202.029 242.998 202.552C242.957 203.074 243.013 203.601 243.162 204.1C243.311 204.6 243.551 205.064 243.868 205.464C244.184 205.865 244.571 206.195 245.007 206.436C245.443 206.676 245.919 206.823 246.408 206.866L296.588 211.372C297.575 211.461 298.554 211.126 299.311 210.443C300.067 209.759 300.539 208.782 300.622 207.726C300.705 206.67 300.392 205.622 299.753 204.813C299.113 204.004 298.2 203.5 297.213 203.411Z" fill="#E6E6E6"/>
<path d="M295.505 225.163L245.325 220.657C244.473 220.579 243.622 220.816 242.914 221.328C242.206 221.841 241.684 222.598 241.435 223.472C241.186 224.347 241.226 225.286 241.547 226.134C241.868 226.981 242.451 227.685 243.199 228.127C243.661 228.404 244.172 228.572 244.7 228.618L294.88 233.124C295.368 233.168 295.86 233.109 296.328 232.949C296.795 232.79 297.228 232.533 297.603 232.195C297.977 231.856 298.286 231.442 298.511 230.976C298.736 230.509 298.873 230.001 298.914 229.478C298.955 228.955 298.899 228.429 298.75 227.929C298.601 227.429 298.361 226.966 298.045 226.565C297.728 226.165 297.341 225.835 296.905 225.594C296.469 225.353 295.993 225.207 295.505 225.163Z" fill="#E6E6E6"/>
<path d="M293.798 246.915L243.617 242.409C243.129 242.365 242.637 242.425 242.169 242.584C241.702 242.744 241.269 243 240.894 243.339C240.52 243.677 240.211 244.092 239.986 244.558C239.761 245.024 239.624 245.533 239.583 246.056C239.542 246.578 239.598 247.105 239.747 247.604C239.896 248.104 240.136 248.568 240.453 248.968C240.769 249.369 241.156 249.699 241.592 249.939C242.028 250.18 242.504 250.327 242.993 250.37L293.173 254.876C293.661 254.92 294.153 254.861 294.621 254.701C295.088 254.542 295.521 254.285 295.896 253.947C296.27 253.608 296.579 253.194 296.804 252.728C297.029 252.261 297.166 251.753 297.207 251.23C297.248 250.707 297.192 250.181 297.043 249.681C296.894 249.181 296.654 248.718 296.338 248.317C296.021 247.917 295.634 247.587 295.198 247.346C294.762 247.105 294.286 246.959 293.798 246.915Z" fill="#E6E6E6"/>
<path d="M282.932 202.129L247.032 198.905C246.544 198.861 246.052 198.921 245.584 199.08C245.117 199.24 244.684 199.496 244.309 199.835C243.935 200.174 243.626 200.588 243.401 201.054C243.176 201.52 243.039 202.029 242.998 202.552C242.957 203.074 243.013 203.601 243.162 204.1C243.311 204.6 243.551 205.064 243.868 205.464C244.184 205.865 244.571 206.195 245.007 206.436C245.443 206.676 245.919 206.823 246.408 206.866L281.56 210.023C282.295 209.775 282.954 209.318 283.465 208.7C283.977 208.083 284.321 207.328 284.462 206.517C284.604 205.706 284.536 204.869 284.266 204.096C283.997 203.323 283.536 202.643 282.932 202.129Z" fill="#ED6A06"/>
<path d="M264.645 222.392L245.325 220.657C244.473 220.579 243.622 220.816 242.914 221.328C242.206 221.841 241.684 222.598 241.435 223.472C241.186 224.347 241.226 225.286 241.547 226.134C241.868 226.981 242.451 227.685 243.199 228.127L260.945 229.721C262.068 229.821 263.184 229.44 264.045 228.662C264.906 227.883 265.443 226.771 265.538 225.569C265.634 224.427 265.314 223.289 264.645 222.392Z" fill="#ED6A06"/>
<path d="M290.048 246.578L243.617 242.409C243.129 242.365 242.637 242.425 242.169 242.584C241.702 242.744 241.269 243 240.894 243.339C240.52 243.677 240.211 244.092 239.986 244.558C239.761 245.024 239.624 245.533 239.583 246.056C239.542 246.578 239.598 247.105 239.747 247.604C239.896 248.104 240.136 248.568 240.453 248.968C240.769 249.369 241.156 249.699 241.592 249.939C242.028 250.18 242.504 250.327 242.993 250.37L289.723 254.566C290.413 254.21 291.001 253.66 291.423 252.975C291.845 252.29 292.085 251.496 292.119 250.677C292.152 249.857 291.977 249.043 291.613 248.322C291.248 247.6 290.707 246.998 290.048 246.578Z" fill="#ED6A06"/>
<path d="M419.697 182.474C420.906 182.174 422.039 181.593 423.016 180.774C423.993 179.955 424.79 178.916 425.351 177.732C425.912 176.548 426.223 175.246 426.263 173.919C426.303 172.592 426.07 171.272 425.581 170.051L452.946 93.2666L438.977 89.5872L413.839 165.456C411.976 166.47 410.526 168.18 409.764 170.261C409.001 172.342 408.978 174.65 409.701 176.748C410.423 178.846 411.839 180.587 413.682 181.643C415.524 182.698 417.664 182.994 419.697 182.474Z" fill="#FFB8B8"/>
<path d="M454.26 108.746C453.645 108.746 453.037 108.601 452.479 108.322L435.063 99.6031C434.516 99.3291 434.031 98.9322 433.64 98.4396C433.25 97.9469 432.963 97.37 432.799 96.7481C432.636 96.1262 432.6 95.4739 432.693 94.8356C432.787 94.1974 433.008 93.5882 433.341 93.0495L443.925 75.9531C444.53 74.5756 445.385 73.3404 446.44 72.3194C447.495 71.2984 448.729 70.5118 450.071 70.0055C452.111 69.2164 454.324 69.0919 456.43 69.6476C458.537 70.2034 460.441 71.4146 461.904 73.1281C463.367 74.8415 464.322 76.9804 464.648 79.2742C464.975 81.5681 464.658 83.914 463.738 86.0154L458.286 105.54C458.027 106.466 457.495 107.279 456.77 107.856C456.045 108.434 455.165 108.746 454.26 108.746Z" fill="#2F2E41"/>
<path d="M443.023 183.784C444.264 183.74 445.48 183.405 446.587 182.804C447.694 182.203 448.664 181.35 449.429 180.304C450.194 179.258 450.736 178.046 451.015 176.752C451.295 175.459 451.306 174.115 451.047 172.817L495.465 105.102L482.191 97.4937L440.361 165.874C438.35 166.483 436.617 167.859 435.492 169.743C434.366 171.626 433.926 173.886 434.254 176.094C434.583 178.301 435.657 180.304 437.273 181.721C438.889 183.138 440.935 183.872 443.023 183.784Z" fill="#FFB8B8"/>
<path d="M491.108 118.706C490.214 118.706 489.343 118.401 488.623 117.835L473.118 105.67C472.631 105.288 472.227 104.799 471.933 104.234C471.639 103.67 471.462 103.045 471.414 102.401C471.367 101.757 471.449 101.11 471.657 100.503C471.864 99.8965 472.191 99.3448 472.616 98.8856L486.098 84.3081C486.941 83.0819 488.003 82.0473 489.224 81.2642C490.444 80.4811 491.797 79.9653 493.206 79.7467C495.35 79.3956 497.544 79.7323 499.509 80.7143C501.475 81.6963 503.124 83.2795 504.248 85.2638C505.373 87.2481 505.922 89.5443 505.826 91.8624C505.731 94.1804 504.995 96.4162 503.712 98.2871L494.825 116.31C494.467 117.033 493.933 117.638 493.278 118.061C492.623 118.483 491.872 118.706 491.108 118.706Z" fill="#2F2E41"/>
<path d="M209.906 167.544C208.814 167.121 207.822 166.446 207 165.568C206.177 164.69 205.545 163.629 205.147 162.462C204.75 161.294 204.596 160.047 204.698 158.809C204.799 157.571 205.154 156.372 205.735 155.296L187.272 132.433L201.827 130.407L217.129 152.428C218.754 153.594 219.922 155.356 220.414 157.381C220.905 159.406 220.685 161.554 219.795 163.418C218.905 165.281 217.406 166.73 215.584 167.491C213.761 168.251 211.741 168.27 209.906 167.544Z" fill="#FFB8B8"/>
<path d="M105.838 172.376C105.072 171.441 104.507 170.338 104.183 169.145C103.858 167.952 103.782 166.697 103.96 165.468C104.138 164.24 104.566 163.069 105.213 162.037C105.86 161.004 106.711 160.136 107.706 159.494L101.837 129.943L115.502 135.674L118.98 162.857C119.878 164.716 120.108 166.863 119.625 168.89C119.143 170.918 117.982 172.686 116.362 173.86C114.742 175.033 112.776 175.53 110.836 175.256C108.897 174.983 107.119 173.958 105.838 172.376Z" fill="#FFB8B8"/>
<path d="M171.967 326.385L181.658 326.385L186.267 286.407L171.966 286.408L171.967 326.385Z" fill="#FFB8B8"/>
<path d="M169.495 323.001L188.578 323.001H188.579C190.176 323.001 191.758 323.337 193.233 323.991C194.709 324.644 196.049 325.602 197.179 326.81C198.308 328.018 199.204 329.452 199.815 331.03C200.426 332.609 200.741 334.3 200.741 336.008V336.431L169.496 336.432L169.495 323.001Z" fill="#2F2E41"/>
<path d="M124.544 326.385L134.234 326.385L138.844 286.407L124.542 286.408L124.544 326.385Z" fill="#FFB8B8"/>
<path d="M122.071 323.001L141.155 323.001H141.155C142.753 323.001 144.334 323.337 145.809 323.991C147.285 324.644 148.626 325.602 149.755 326.81C150.884 328.018 151.78 329.452 152.391 331.03C153.002 332.609 153.317 334.3 153.317 336.008V336.431L122.072 336.432L122.071 323.001Z" fill="#2F2E41"/>
<path d="M170.817 305.513C169.949 305.509 169.112 305.167 168.462 304.551C167.813 303.936 167.394 303.089 167.285 302.168L157.375 214.811C157.341 214.512 157.208 214.235 157.001 214.03C156.793 213.826 156.524 213.707 156.242 213.696C155.96 213.685 155.683 213.782 155.462 213.969C155.24 214.157 155.089 214.423 155.035 214.719L139.278 300.451C139.118 301.315 138.682 302.094 138.046 302.653C137.41 303.213 136.612 303.52 135.788 303.521H124.221C123.748 303.522 123.28 303.421 122.844 303.225C122.408 303.029 122.013 302.743 121.682 302.382C121.351 302.021 121.09 301.593 120.916 301.123C120.741 300.653 120.656 300.151 120.665 299.645L122.98 167.591L123.168 167.47C140.042 156.724 159.93 156.021 183.971 165.323L184.223 165.42L188.088 301.006C188.114 302.007 187.77 302.979 187.132 303.712C186.493 304.445 185.611 304.88 184.675 304.923L170.958 305.51C170.911 305.512 170.864 305.513 170.817 305.513Z" fill="#2F2E41"/>
<path d="M157.613 46.516C168.335 46.516 177.026 37.2197 177.026 25.752C177.026 14.2843 168.335 4.98792 157.613 4.98792C146.892 4.98792 138.2 14.2843 138.2 25.752C138.2 37.2197 146.892 46.516 157.613 46.516Z" fill="#FFB8B8"/>
<path d="M202.544 151.268C202.049 151.343 201.545 151.306 201.065 151.159C200.584 151.013 200.138 150.759 199.755 150.416L179.849 132.549C173.042 126.441 168.541 117.896 167.183 108.505L162.706 77.5616C162.158 76.0614 161.891 74.4604 161.922 72.8501C161.953 71.2398 162.28 69.6518 162.886 68.1769C163.491 66.702 164.362 65.3691 165.449 64.2545C166.536 63.1399 167.817 62.2653 169.221 61.6809C170.624 61.0965 172.121 60.8137 173.626 60.8486C175.132 60.8835 176.616 61.2355 177.994 61.8844C179.373 62.5333 180.618 63.4664 181.659 64.6304C182.699 65.7944 183.516 67.1664 184.06 68.668L193.534 117.288L208.656 139.241C209.088 139.872 209.329 140.629 209.346 141.411C209.363 142.192 209.155 142.961 208.75 143.612L204.999 149.615C204.596 150.259 204.02 150.756 203.346 151.041C203.088 151.15 202.819 151.226 202.544 151.268Z" fill="#ED6A06"/>
<path d="M105.924 152.847C105.507 152.554 105.151 152.17 104.881 151.72C104.611 151.27 104.433 150.765 104.357 150.237L100.452 122.757C99.1159 113.362 101.016 103.768 105.798 95.7584L121.552 69.3673C122.067 67.8539 122.856 66.4639 123.874 65.2769C124.892 64.0899 126.119 63.1291 127.484 62.4495C128.849 61.7699 130.326 61.3849 131.831 61.3164C133.335 61.2479 134.838 61.4973 136.252 62.0503C137.667 62.6033 138.965 63.449 140.074 64.5392C141.182 65.6294 142.079 66.9426 142.713 68.4037C143.346 69.8649 143.704 71.4453 143.767 73.0546C143.829 74.6639 143.594 76.2705 143.075 77.7826L120.152 120.974L117.942 148.139C117.877 148.918 117.59 149.656 117.119 150.255C116.649 150.854 116.018 151.283 115.312 151.486L108.788 153.342C108.088 153.54 107.349 153.506 106.667 153.244C106.406 153.143 106.157 153.01 105.924 152.847Z" fill="#ED6A06"/>
<path d="M178.847 62.6263C175.512 58.7152 171.399 55.6547 166.811 53.6706C162.223 51.6866 157.278 50.8296 152.339 51.163C152.014 51.1844 151.691 51.2086 151.369 51.2356C146.688 51.6315 142.139 53.0917 138.028 55.5187C133.917 57.9456 130.338 61.2833 127.53 65.3087C124.675 69.3903 122.668 74.0768 121.642 79.0548C120.616 84.0328 120.596 89.1876 121.582 94.1747C125.347 113.234 124.394 133.013 118.819 151.558L113.611 168.854C113.444 169.408 113.398 169.996 113.477 170.572C113.556 171.148 113.758 171.697 114.066 172.177C114.375 172.656 114.782 173.054 115.257 173.338C115.732 173.623 116.262 173.787 116.806 173.818L143.43 175.349L150.244 162.761V175.741L182.604 177.602C182.668 177.606 182.732 177.607 182.796 177.607C183.287 177.607 183.773 177.498 184.222 177.288C184.672 177.077 185.076 176.769 185.409 176.382C185.742 175.996 185.997 175.541 186.157 175.044C186.317 174.548 186.379 174.021 186.34 173.498L182.682 124.987L187.27 92.0389C188.013 86.7746 187.641 81.3991 186.184 76.3087C184.726 71.2183 182.218 66.5426 178.847 62.6263Z" fill="#ED6A06"/>
<path d="M144.12 45.5743C145.918 46.6805 153.022 47.4139 153.528 45.263L153.539 45.2157C153.892 43.6398 153.599 41.9941 153.498 40.3774C153.397 38.7606 153.545 36.9846 154.574 35.7958C156.493 33.5799 159.908 34.7546 162.683 34.1943C164.308 33.8062 165.745 32.7979 166.726 31.3581C167.707 29.9183 168.163 28.1456 168.01 26.3718C167.97 26.0358 167.908 25.6993 167.839 25.3631C167.665 24.5112 167.679 23.6279 167.878 22.7825C168.077 21.9371 168.457 21.1526 168.988 20.4906C169.518 19.8287 170.185 19.3072 170.936 18.9672C171.686 18.6273 172.5 18.478 173.314 18.5311C176.118 18.7027 179.145 19.6115 181.466 17.3897C183.26 15.6717 183.698 11.1994 182.909 8.76547C181.585 4.67513 173.098 2.53375 169.392 1.35659C164.809 -0.0597321 159.989 -0.365929 155.281 0.46025C150.574 1.28643 146.098 3.22423 142.178 6.13276C139.838 7.89732 137.652 10.1145 136.654 12.9854C135.657 15.8563 136.138 19.4784 138.387 21.3736C136.644 23.3482 135.416 25.7783 134.827 28.4203C134.238 31.0623 134.308 33.8236 135.031 36.4273C136.142 40.2565 141.445 43.9278 144.12 45.5743Z" fill="#2F2E41"/>
<path d="M625.21 337H0.790404C0.580776 337 0.379733 336.911 0.231503 336.752C0.0832739 336.594 0 336.379 0 336.155C0 335.93 0.0832739 335.715 0.231503 335.557C0.379733 335.398 0.580776 335.309 0.790404 335.309H625.21C625.419 335.309 625.62 335.398 625.768 335.557C625.917 335.715 626 335.93 626 336.155C626 336.379 625.917 336.594 625.768 336.752C625.62 336.911 625.419 337 625.21 337Z" fill="#CCCCCC"/>
<path d="M564.912 185.076C563.142 185.229 561.37 184.817 559.819 183.892C558.268 182.967 557.009 181.571 556.2 179.88C555.391 178.19 555.069 176.281 555.274 174.395C555.48 172.508 556.203 170.729 557.354 169.283C558.505 167.837 560.03 166.788 561.738 166.269C563.446 165.75 565.26 165.785 566.949 166.368C568.639 166.952 570.129 168.058 571.231 169.547C572.332 171.036 572.997 172.842 573.139 174.735C573.33 177.273 572.571 179.788 571.028 181.728C569.485 183.667 567.285 184.872 564.912 185.076ZM564.801 183.604C566.298 183.475 567.727 182.874 568.905 181.877C570.083 180.88 570.958 179.531 571.42 178.002C571.881 176.473 571.909 174.832 571.498 173.286C571.088 171.74 570.258 170.359 569.114 169.318C567.969 168.276 566.562 167.621 565.07 167.435C563.578 167.25 562.067 167.541 560.73 168.273C559.393 169.005 558.288 170.145 557.557 171.549C556.825 172.952 556.499 174.556 556.62 176.158C556.7 177.221 556.975 178.258 557.429 179.207C557.884 180.157 558.509 181.002 559.268 181.693C560.028 182.385 560.908 182.909 561.857 183.237C562.806 183.565 563.807 183.69 564.801 183.604Z" fill="#F2F2F2"/>
<path d="M595.824 160.439C598.875 160.439 601.349 157.793 601.349 154.53C601.349 151.267 598.875 148.621 595.824 148.621C592.773 148.621 590.3 151.267 590.3 154.53C590.3 157.793 592.773 160.439 595.824 160.439Z" fill="#F2F2F2"/>
<path d="M622.978 139.07C624.581 139.07 625.88 137.68 625.88 135.966C625.88 134.252 624.581 132.862 622.978 132.862C621.375 132.862 620.076 134.252 620.076 135.966C620.076 137.68 621.375 139.07 622.978 139.07Z" fill="#F2F2F2"/>
<path d="M317.221 115.843C318.717 114.821 320.464 114.296 322.239 114.334C324.014 114.373 325.738 114.974 327.194 116.061C328.65 117.148 329.772 118.673 330.418 120.442C331.063 122.211 331.204 124.145 330.823 125.999C330.441 127.854 329.553 129.546 328.272 130.861C326.992 132.176 325.375 133.055 323.627 133.388C321.879 133.72 320.078 133.491 318.452 132.728C316.825 131.966 315.447 130.705 314.491 129.105C313.212 126.958 312.78 124.356 313.292 121.87C313.804 119.384 315.217 117.217 317.221 115.843ZM326.146 130.78C327.412 129.915 328.409 128.668 329.013 127.196C329.616 125.724 329.797 124.094 329.534 122.512C329.271 120.93 328.576 119.467 327.535 118.308C326.495 117.149 325.156 116.345 323.689 116C322.222 115.654 320.692 115.782 319.292 116.366C317.893 116.951 316.687 117.966 315.827 119.284C314.967 120.601 314.492 122.162 314.461 123.768C314.43 125.375 314.846 126.955 315.655 128.309C316.741 130.123 318.456 131.402 320.423 131.865C322.389 132.328 324.448 131.938 326.146 130.78Z" fill="#F2F2F2"/>
<path d="M318.561 90.2107C321.612 90.2107 324.085 87.5653 324.085 84.3019C324.085 81.0385 321.612 78.3931 318.561 78.3931C315.509 78.3931 313.036 81.0385 313.036 84.3019C313.036 87.5653 315.509 90.2107 318.561 90.2107Z" fill="#F2F2F2"/>
<path d="M315.975 53.0468C317.578 53.0468 318.877 51.6572 318.877 49.943C318.877 48.2288 317.578 46.8391 315.975 46.8391C314.372 46.8391 313.073 48.2288 313.073 49.943C313.073 51.6572 314.372 53.0468 315.975 53.0468Z" fill="#F2F2F2"/>
<path d="M72.7724 224.63C71.7734 223.06 71.2322 221.209 71.2171 219.31C71.202 217.411 71.7137 215.55 72.6876 213.962C73.6614 212.374 75.0536 211.13 76.6881 210.389C78.3226 209.647 80.1261 209.44 81.8704 209.795C83.6146 210.15 85.2214 211.05 86.4875 212.381C87.7536 213.712 88.6222 215.415 88.9834 217.275C89.3446 219.134 89.1821 221.066 88.5166 222.827C87.8512 224.588 86.7125 226.098 85.2447 227.166C83.2755 228.596 80.8565 229.132 78.5183 228.657C76.1801 228.181 74.1136 226.733 72.7724 224.63ZM86.4737 214.657C85.6284 213.329 84.4339 212.298 83.041 211.696C81.6482 211.093 80.1196 210.946 78.6487 211.273C77.1778 211.6 75.8305 212.386 74.7772 213.532C73.724 214.678 73.0121 216.132 72.7315 217.711C72.451 219.29 72.6144 220.922 73.2011 222.401C73.7878 223.88 74.7715 225.14 76.0277 226.022C77.2839 226.903 78.7562 227.366 80.2585 227.352C81.7609 227.339 83.2256 226.849 84.4677 225.945C86.1313 224.731 87.2768 222.861 87.6529 220.745C88.029 218.628 87.6049 216.439 86.4737 214.657Z" fill="#F2F2F2"/>
<path d="M43.2568 230.02C46.3079 230.02 48.7812 227.374 48.7812 224.111C48.7812 220.848 46.3079 218.202 43.2568 218.202C40.2058 218.202 37.7324 220.848 37.7324 224.111C37.7324 227.374 40.2058 230.02 43.2568 230.02Z" fill="#F2F2F2"/>
<path d="M11.2212 230.972C12.8239 230.972 14.1232 229.582 14.1232 227.868C14.1232 226.154 12.8239 224.764 11.2212 224.764C9.61857 224.764 8.31934 226.154 8.31934 227.868C8.31934 229.582 9.61857 230.972 11.2212 230.972Z" fill="#F2F2F2"/>
</g>
<defs>
<clipPath id="clip0_760_256">
<rect width="626" height="337" fill="white"/>
</clipPath>
</defs>
</svg>
