<svg width="341" height="177" viewBox="0 0 341 177" fill="none" xmlns="http://www.w3.org/2000/svg">
<path d="M24.6898 130C25.0998 131.82 26.3198 132.9 28.5798 132.9C31.0998 132.9 32.0598 131.65 32.0598 130.15C32.0598 128.65 31.3698 127.64 28.3398 126.89C25.3098 126.14 24.1798 125.22 24.1798 123.24C24.1798 121.43 25.4998 119.74 28.4398 119.74C31.3798 119.74 32.7498 121.58 32.9198 123.26H31.8198C31.5098 121.78 30.5498 120.72 28.3798 120.72C26.3798 120.72 25.3198 121.64 25.3198 123.18C25.3198 124.72 26.2198 125.28 28.7598 125.91C32.6298 126.91 33.1998 128.42 33.1998 130.07C33.1998 132.07 31.7298 133.85 28.5398 133.85C25.0998 133.85 23.8398 131.85 23.5898 130H24.6898Z" fill="#374C9B"/>
<path d="M45.7402 128.75C45.7402 131.48 44.2302 133.92 41.3002 133.92C38.6402 133.92 36.9902 131.74 36.9902 128.77C36.9902 125.96 38.5502 123.62 41.4002 123.62C44.0002 123.62 45.7402 125.66 45.7402 128.75ZM38.0302 128.75C38.0302 131.09 39.2902 132.97 41.3802 132.97C43.4702 132.97 44.7002 131.22 44.7002 128.75C44.7002 126.28 43.5202 124.52 41.3402 124.52C39.1602 124.52 38.0002 126.41 38.0002 128.77L38.0302 128.75Z" fill="#374C9B"/>
<path d="M50.0596 133.68V119.2H51.0596V133.68H50.0596Z" fill="#374C9B"/>
<path d="M63.5103 130.81C63.5103 131.81 63.5103 133.31 63.5103 133.68H62.5103C62.4586 133.112 62.4386 132.541 62.4503 131.97C62.219 132.603 61.7815 133.139 61.2083 133.493C60.635 133.846 59.9595 133.997 59.2903 133.92C57.8703 133.92 56.0703 133.37 56.0703 130.36V123.85H57.0703V130.12C57.0703 131.56 57.5203 132.95 59.4703 132.95C61.6703 132.95 62.4703 131.72 62.4703 128.95V123.89H63.4703L63.5103 130.81Z" fill="#374C9B"/>
<path d="M67.3799 123.85H69.2099V120.79H70.2099V123.85H72.5499V124.78H70.1899V131.17C70.1899 132.27 70.4199 132.89 71.3699 132.89C71.7067 132.9 72.0433 132.863 72.3699 132.78V133.64C71.9776 133.774 71.5641 133.835 71.1499 133.82C69.8899 133.82 69.1499 133.19 69.1499 131.62V124.78H67.3799V123.85Z" fill="#374C9B"/>
<path d="M76.4199 119.2H77.4199V121.1H76.4199V119.2ZM76.4199 123.85H77.4199V133.68H76.4199V123.85Z" fill="#374C9B"/>
<path d="M90.4705 128.75C90.4705 131.48 88.9605 133.92 86.0305 133.92C83.3805 133.92 81.7305 131.74 81.7305 128.77C81.7305 125.96 83.2805 123.62 86.1305 123.62C88.7405 123.62 90.4705 125.66 90.4705 128.75ZM82.7705 128.75C82.7705 131.09 84.0205 132.97 86.1105 132.97C88.2005 132.97 89.4305 131.22 89.4305 128.75C89.4305 126.28 88.2505 124.52 86.0705 124.52C83.8905 124.52 82.7705 126.41 82.7705 128.77V128.75Z" fill="#374C9B"/>
<path d="M94.7895 126.33C94.7895 125.47 94.7895 124.64 94.7895 123.85H95.7895C95.7895 124.17 95.8495 125.45 95.7895 125.72C96.0296 125.062 96.478 124.501 97.0666 124.122C97.6551 123.743 98.3515 123.567 99.0495 123.62C100.8 123.62 102.35 124.62 102.35 127.31V133.68H101.35V127.47C101.35 125.72 100.62 124.58 98.9095 124.58C96.5695 124.58 95.7695 126.58 95.7695 128.67V133.67H94.7695L94.7895 126.33Z" fill="#374C9B"/>
<path d="M107.39 131C107.533 131.616 107.894 132.158 108.408 132.526C108.921 132.894 109.551 133.063 110.18 133C111.93 133 112.64 132.2 112.64 131.1C112.64 130 112.17 129.43 109.97 128.9C107.43 128.29 106.8 127.52 106.8 126.22C106.8 124.92 107.8 123.61 110.05 123.61C110.87 123.523 111.691 123.763 112.335 124.278C112.98 124.793 113.394 125.541 113.49 126.36H112.49C112.381 125.797 112.064 125.294 111.604 124.952C111.143 124.61 110.571 124.452 110 124.51C108.29 124.51 107.8 125.36 107.8 126.14C107.8 126.92 108.27 127.5 110.21 127.97C112.99 128.64 113.67 129.54 113.67 130.97C113.67 132.76 112.22 133.86 110.16 133.86C107.91 133.86 106.66 132.68 106.38 130.91L107.39 131Z" fill="#374C9B"/>
<path d="M125.42 130C125.83 131.82 127.05 132.9 129.31 132.9C131.82 132.9 132.79 131.65 132.79 130.15C132.79 128.65 132.1 127.64 129.07 126.89C126.04 126.14 124.91 125.22 124.91 123.24C124.91 121.43 126.22 119.74 129.17 119.74C132.12 119.74 133.47 121.58 133.65 123.26H132.55C132.24 121.78 131.27 120.72 129.11 120.72C127.11 120.72 126.04 121.64 126.04 123.18C126.04 124.72 126.95 125.28 129.48 125.91C133.36 126.91 133.93 128.42 133.93 130.07C133.93 132.07 132.45 133.85 129.27 133.85C125.83 133.85 124.57 131.85 124.27 130H125.42Z" fill="#374C9B"/>
<path d="M145.23 131.81C145.227 132.436 145.27 133.061 145.36 133.68H144.42C144.299 133.186 144.239 132.679 144.24 132.17C143.943 132.753 143.476 133.232 142.901 133.544C142.326 133.856 141.671 133.988 141.02 133.92C140.607 133.967 140.188 133.925 139.792 133.798C139.396 133.671 139.032 133.46 138.724 133.181C138.415 132.902 138.17 132.561 138.004 132.179C137.838 131.798 137.755 131.386 137.76 130.97C137.76 128.81 139.43 127.82 142.38 127.82H144.24V126.82C144.24 125.82 143.95 124.52 141.71 124.52C139.71 124.52 139.43 125.52 139.21 126.37H138.21C138.33 125.29 139 123.62 141.71 123.62C143.95 123.62 145.21 124.56 145.21 126.72L145.23 131.81ZM144.23 128.67H142.31C140.13 128.67 138.77 129.24 138.77 130.93C138.756 131.223 138.806 131.515 138.917 131.786C139.028 132.057 139.198 132.301 139.413 132.499C139.629 132.697 139.885 132.846 140.165 132.934C140.444 133.023 140.74 133.049 141.03 133.01C143.84 133.01 144.23 131.15 144.23 129.01V128.67Z" fill="#374C9B"/>
<path d="M150.36 126.53C150.36 124.88 150.36 124.17 150.36 123.85H151.36C151.36 124.17 151.36 124.85 151.36 126.06C151.618 125.356 152.083 124.747 152.693 124.311C153.303 123.876 154.031 123.635 154.78 123.62V124.68C154.295 124.696 153.818 124.811 153.379 125.018C152.94 125.225 152.548 125.52 152.228 125.884C151.907 126.249 151.665 126.675 151.516 127.137C151.366 127.599 151.314 128.087 151.36 128.57V133.68H150.36V126.53Z" fill="#374C9B"/>
<path d="M158.61 133.68V119.2H159.61V133.68H158.61Z" fill="#374C9B"/>
<path d="M129.71 100.3C127.89 101.3 126.22 102.68 124.31 103.3C117.73 105.45 110.67 102.3 107.2 95.85C103.73 89.4 104.89 81.07 109.71 76.27C112.061 73.8522 115.205 72.3641 118.566 72.0793C121.926 71.7946 125.276 72.7322 128 74.72L130.17 76.27C130.24 75.57 130.33 75.14 130.34 74.7C130.34 72.5 130.34 72.5 132.66 72.49C133.83 72.49 135.01 72.49 136.18 72.43C137.35 72.37 137.68 72.79 137.66 73.9C137.58 77.9 137.56 81.99 137.55 86.03C137.55 91.2 137.48 96.36 137.55 101.53C137.55 103.09 137.03 103.69 135.55 103.53C135.284 103.515 135.017 103.515 134.75 103.53C133.47 103.53 131.96 103.89 130.99 103.34C130.17 102.89 130.07 101.29 129.71 100.3ZM112.93 87.88C112.886 89.0506 113.073 90.2184 113.482 91.3164C113.89 92.4144 114.511 93.421 115.309 94.2785C116.107 95.136 117.066 95.8276 118.132 96.3135C119.198 96.7994 120.349 97.0701 121.52 97.11C126.41 97.11 130.07 93.29 130.08 88.11C130.113 86.9398 129.914 85.7746 129.495 84.6818C129.075 83.5889 128.443 82.5901 127.635 81.743C126.827 80.8959 125.859 80.2174 124.787 79.7466C123.715 79.2757 122.561 79.022 121.39 79C116.52 79 112.94 82.77 112.93 87.88Z" fill="#272D67"/>
<path d="M76.2604 93.2801C75.6611 96.2321 73.9994 98.8617 71.5904 100.67C64.7304 105.74 52.3204 104.67 47.2104 96.0901C41.7504 87.0001 46.0004 75.4901 56.0504 72.6801C64.2804 70.4001 73.2804 74.3601 75.7404 82.4501C76.1984 84.4625 76.4497 86.5165 76.4904 88.5801C76.6004 89.8501 75.9504 90.3301 74.6404 90.3201C68.0204 90.3201 61.3904 90.3201 54.7704 90.3201H52.8704C53.1204 94.0301 56.2404 96.8501 60.2404 97.1101C63.4804 97.3201 66.3704 96.5801 68.6104 94.0301C68.9022 93.6622 69.3182 93.4133 69.7804 93.3301C71.8504 93.2401 73.9204 93.2801 76.2604 93.2801ZM68.7104 84.5501C68.7104 80.8301 64.8704 78.1401 60.2204 78.4701C55.9804 78.7701 52.8204 81.4701 53.2204 84.5501H68.7104Z" fill="#272D67"/>
<path d="M198.83 90.44C195.31 90.44 191.83 90.44 188.28 90.44C187.18 90.44 186.88 90.74 187.28 91.88C188.65 95.88 192.28 97.88 197.14 97.34C199.335 97.1337 201.381 96.139 202.9 94.54C203.467 94.0255 204.187 93.7096 204.95 93.64C206.27 93.49 207.62 93.64 208.95 93.58C210.28 93.52 210.62 94.09 210.17 95.32C209.643 96.8046 208.826 98.1695 207.767 99.3352C206.708 100.501 205.427 101.444 204 102.11C201.68 103.26 199.141 103.9 196.554 103.986C193.966 104.072 191.39 103.603 189 102.61C183.6 100.45 180.65 96.2 179.78 90.55C178.71 83.55 181.5 77.61 187.25 74.42C194.77 70.25 204.94 72.7 209.3 79.77C210.868 82.4991 211.602 85.6282 211.41 88.77C211.41 90.2 210.5 90.52 209.29 90.51H198.83V90.44ZM203.32 84.85C203.49 81.12 199.79 78.57 194.78 78.75C190.5 78.9 187.02 82.05 187.63 84.85H203.32Z" fill="#272D67"/>
<path d="M257.63 74.62C259.58 73.8123 261.585 73.144 263.63 72.62C269.11 71.62 276.45 74.25 278.33 80.62C278.871 82.6728 279.143 84.7871 279.14 86.91C279.26 91.49 279.2 96.07 279.14 100.66C279.14 103.29 278.68 103.66 276.07 103.66C271.63 103.66 271.64 103.66 271.63 99.23C271.62 94.8 271.55 90.38 271.63 85.96C271.73 79.87 266.16 77.96 261.45 79.96C258.6 81.11 257.58 83.45 257.57 86.34C257.57 91.4 257.57 96.46 257.57 101.53C257.57 103.47 257.32 103.7 255.33 103.72C254.33 103.72 253.33 103.72 252.33 103.72C250.81 103.81 250.25 103.17 250.26 101.64C250.31 95.36 250.26 89.07 250.26 82.78V66.63C250.26 64.33 250.5 64.1 252.85 64.08C253.85 64.08 254.78 64.08 255.73 64.08C257.15 64 257.63 64.69 257.6 66.01C257.6 68.35 257.6 70.7 257.6 73.01C257.53 73.54 257.59 74.05 257.63 74.62Z" fill="#272D67"/>
<path d="M35.7398 70.75V83.75C35.7398 89.61 35.7398 95.4666 35.7398 101.32C35.7398 103.26 35.5698 103.43 33.6398 103.44H29.9998C27.9198 103.44 27.8798 103.44 27.8698 101.28C27.8698 95.28 27.8698 89.35 27.8698 83.39V70.74H25.8698C23.4698 70.74 21.0698 70.74 18.6698 70.74C17.1498 70.74 16.5498 70.01 16.5898 68.57C16.5898 67.57 16.5898 66.57 16.5898 65.57C16.5898 63.75 17.0198 63.31 18.8398 63.29C22.0398 63.29 25.2398 63.29 28.4498 63.29L44.4498 63.23C46.3798 63.23 46.9098 63.61 46.9298 65.51C47.0298 71.51 47.1098 70.51 42.0798 70.75C40.0998 70.85 38.0698 70.75 35.7398 70.75Z" fill="#272D67"/>
<path d="M244.93 83.5401C242.62 83.5401 240.4 83.5401 238.18 83.5401C237.79 83.5401 237.33 82.9601 237.06 82.5401C235.06 79.4301 232.44 78.3801 228.67 79.1601C227.128 79.3931 225.716 80.1588 224.681 81.3244C223.645 82.4899 223.05 83.9816 223 85.5401C222.826 87.9138 222.984 90.3001 223.47 92.6301C223.98 95.2401 226.04 96.5401 228.55 97.1101C231.36 97.7501 234.3 97.7201 235.94 95.1101C238.15 91.6601 241.27 93.1101 244.09 93.0001C245.09 93.0001 245.09 94.0001 244.82 94.8601C244.135 96.9205 242.929 98.7687 241.319 100.225C239.708 101.681 237.748 102.696 235.63 103.17C230.01 104.53 224.7 103.86 220.17 99.9701C215.64 96.0801 214.73 91.2201 215.17 85.6901C215.65 79.2701 218.89 75.0101 225.03 73.2301C231.73 71.2901 237.82 72.5201 242.74 77.7201C243.504 78.474 244.096 79.3848 244.474 80.3896C244.852 81.3944 245.007 82.4693 244.93 83.5401Z" fill="#272D67"/>
<path d="M90.0598 75.52C91.2298 74.84 92.2698 74.25 93.2998 73.64C95.6145 72.3932 98.2907 71.9902 100.87 72.5C101.153 72.6091 101.404 72.7869 101.601 73.0173C101.799 73.2477 101.936 73.5235 102 73.82C102.113 75.4148 102.056 77.0172 101.83 78.6C101.709 78.9164 101.518 79.2009 101.27 79.4315C101.022 79.6621 100.724 79.8327 100.4 79.93C99.5589 80.0699 98.7007 80.0699 97.8598 79.93C93.6398 79.62 90.5098 82.16 90.3598 86.37C90.1898 91.37 90.2798 96.37 90.2498 101.37C90.2498 103.37 90.1898 103.37 88.1598 103.37C86.7198 103.37 85.2798 103.37 83.8398 103.37C82.8398 103.37 82.4998 102.96 82.4998 102.02C82.4998 92.76 82.4998 83.4966 82.4998 74.23C82.4742 74.044 82.4914 73.8547 82.5502 73.6764C82.609 73.4982 82.7078 73.3358 82.8391 73.2016C82.9704 73.0674 83.1306 72.9651 83.3075 72.9024C83.4845 72.8397 83.6734 72.8184 83.8598 72.84C85.2998 72.84 86.7398 72.84 88.1798 72.84C89.8598 72.85 89.7998 74.24 90.0598 75.52Z" fill="#272D67"/>
<path d="M325.92 69.32C327.06 95.32 309.11 113.86 288.67 120.1C282.96 121.85 276.62 121.57 270.55 121.99C269.986 121.952 269.451 121.727 269.03 121.35C268.848 121.218 268.695 121.049 268.581 120.855C268.467 120.661 268.395 120.445 268.369 120.221C268.342 119.998 268.363 119.771 268.428 119.556C268.494 119.34 268.603 119.141 268.75 118.97C269.208 118.339 269.841 117.856 270.57 117.58C275.42 116.34 280.57 116.08 285.23 114.32C300.54 108.5 310.01 97.53 313.87 81.32C319.05 59.68 305.52 37.43 286.35 29.6C260.42 19.01 231.77 34.54 224.95 59.45C224.576 60.5276 223.991 61.5202 223.23 62.37C223.062 62.5791 222.84 62.7373 222.587 62.8267C222.334 62.9161 222.061 62.9331 221.8 62.876C221.538 62.8188 221.297 62.6897 221.104 62.5031C220.912 62.3166 220.775 62.08 220.71 61.82C220.493 60.656 220.551 59.4573 220.88 58.32C226.16 37.39 238.94 23.25 260 17.79C269.928 15.1083 280.426 15.413 290.182 18.6661C299.938 21.9193 308.518 27.9764 314.85 36.08C323 46.49 326.06 55.51 325.92 69.32Z" fill="#ED6A06"/>
<path d="M290.32 126.7C290.34 126.904 290.297 127.109 290.197 127.288C290.097 127.467 289.944 127.611 289.76 127.7C286.11 129.36 282.51 131.14 278.76 132.61C275.18 134.02 271.48 135.12 267.76 136.21C266.335 136.736 264.806 136.911 263.299 136.72C260.929 136.2 258.36 135.37 258 132.38C257.68 129.64 258.889 127.38 261.549 126.58C264.99 125.459 268.534 124.689 272.13 124.28C276.576 123.955 281.039 123.925 285.489 124.19C286.912 124.396 288.294 124.817 289.59 125.44C289.763 125.503 289.916 125.614 290.03 125.758C290.145 125.903 290.217 126.077 290.239 126.26L290.32 126.7Z" fill="#ED6A06"/>
<path d="M265.37 148.55C265.148 148.58 264.923 148.58 264.7 148.55C261.52 148.17 259.79 147.55 259.23 146.21C258.01 143.33 261.23 142.08 263.23 140.96C270.778 136.722 279.182 134.238 287.82 133.69C289.063 133.804 290.255 134.238 291.28 134.95C291.41 135.02 291.524 135.115 291.617 135.23C291.709 135.344 291.778 135.476 291.819 135.618C291.86 135.759 291.872 135.907 291.855 136.054C291.838 136.2 291.792 136.342 291.72 136.47C291.275 137.523 290.59 138.458 289.72 139.2C282.36 143.91 274.54 147.5 265.37 148.55Z" fill="#ED6A06"/>
<path d="M260 158.35C259.877 158.309 259.765 158.239 259.674 158.147C259.583 158.054 259.515 157.942 259.475 157.818C259.435 157.695 259.424 157.564 259.444 157.436C259.464 157.307 259.514 157.186 259.59 157.08C260.185 155.906 261.198 154.996 262.43 154.53C269.92 151.29 277.43 148.15 285.07 145.2C286.746 144.657 288.535 144.56 290.26 144.92C291.25 145.236 292.154 145.776 292.9 146.5C293.066 146.657 293.178 146.863 293.218 147.089C293.257 147.314 293.223 147.546 293.12 147.75C292.84 148.57 292.78 149.04 291.12 150.07C286.371 152.318 281.5 154.298 276.53 156C272.354 157.491 268 158.426 263.58 158.78C262.37 158.981 261.128 158.832 260 158.35Z" fill="#ED6A06"/>
<path d="M263.39 168.05C263.105 167.946 262.867 167.744 262.719 167.48C262.57 167.216 262.521 166.907 262.58 166.61C262.812 165.996 263.163 165.433 263.612 164.954C264.062 164.476 264.601 164.09 265.2 163.82C271.2 161.01 277.2 158.25 283.45 155.97C284.387 155.814 285.348 155.918 286.23 156.271C287.111 156.624 287.879 157.211 288.45 157.97C289.09 158.68 288.28 161.14 287.53 162.48C286.99 163.48 285.53 164.01 284.39 164.48C277.83 167.33 271.46 169.06 263.39 168.05Z" fill="#ED6A06"/>
<path d="M160.13 110.92H26.0898V113.49H160.13V110.92Z" fill="#ED6A06"/>
<path d="M183 66.1399C182.86 63.7999 182.58 63.5099 180.21 63.5099C173.59 63.5099 166.96 63.64 160.35 63.45C160.13 63.45 159.91 63.45 159.69 63.45C159.69 63.45 155.45 63.45 152.82 63.52H151.71C151.549 63.5241 151.388 63.5442 151.23 63.58C151.125 63.6093 151.021 63.646 150.92 63.6899C150.711 63.7705 150.527 63.9058 150.388 64.0817C150.249 64.2577 150.16 64.4677 150.13 64.69L149.89 67.0199V68.36C149.89 68.36 149.72 70.06 150.99 70.51C151.107 70.5595 151.227 70.5996 151.35 70.6299C151.482 70.6623 151.616 70.6857 151.75 70.6999C155.12 71.3799 158.2 70.9699 161.8 70.6999C163.55 70.5799 163.8 71.29 163.8 72.79C163.74 81.59 163.8 90.3799 163.75 99.1699C163.75 103.72 163.75 103.72 168.35 103.69C171.2 103.69 171.47 103.41 171.48 100.61C171.48 91.28 171.58 81.96 171.57 72.61C171.57 71.25 171.95 70.67 173.38 70.76C175.09 70.86 176.8 70.76 178.51 70.76C183 70.86 183.22 70.5799 183 66.1399Z" fill="#272D67"/>
</svg>
