<svg width="100" height="100" viewBox="0 0 100 100" fill="none" xmlns="http://www.w3.org/2000/svg">
<path opacity="0.4" d="M85.9166 35.2084C81.5416 15.9584 64.7499 7.29175 49.9999 7.29175C49.9999 7.29175 49.9999 7.29175 49.9582 7.29175C35.2499 7.29175 18.4166 15.9167 14.0416 35.1667C9.16658 56.6667 22.3332 74.8751 34.2499 86.3334C38.6666 90.5834 44.3332 92.7084 49.9999 92.7084C55.6666 92.7084 61.3332 90.5834 65.7082 86.3334C77.6249 74.8751 90.7916 56.7084 85.9166 35.2084Z" fill="#ED6A06"/>
<path d="M50 56.0833C57.2487 56.0833 63.125 50.207 63.125 42.9583C63.125 35.7095 57.2487 29.8333 50 29.8333C42.7513 29.8333 36.875 35.7095 36.875 42.9583C36.875 50.207 42.7513 56.0833 50 56.0833Z" fill="white"/>
</svg>
