<svg width="214" height="107" viewBox="0 0 214 107" fill="none" xmlns="http://www.w3.org/2000/svg">
<rect x="0.255859" width="213.545" height="107" fill="white"/>
<path d="M25.2393 72.0874C25.4675 72.9268 26.1466 73.4248 27.4046 73.4248C28.8074 73.4248 29.3418 72.8484 29.3418 72.1566C29.3418 71.4648 28.9577 70.999 27.271 70.6532C25.5844 70.3073 24.9554 69.883 24.9554 68.9698C24.9554 68.1351 25.6902 67.3557 27.3267 67.3557C28.9633 67.3557 29.7259 68.2043 29.8205 68.9791H29.2082C29.0356 68.2965 28.5012 67.8077 27.2933 67.8077C26.18 67.8077 25.59 68.232 25.59 68.9422C25.59 69.6524 26.0909 69.9107 27.5048 70.2012C29.6591 70.6624 29.9764 71.3588 29.9764 72.1197C29.9764 73.0421 29.1581 73.863 27.3824 73.863C25.4675 73.863 24.7661 72.9406 24.627 72.0874H25.2393Z" fill="#374C9B"/>
<path d="M36.9566 71.5109C36.9566 72.7699 36.1161 73.8952 34.4851 73.8952C33.0044 73.8952 32.0859 72.8898 32.0859 71.5201C32.0859 70.2242 32.9543 69.145 34.5408 69.145C35.9881 69.145 36.9566 70.0858 36.9566 71.5109ZM32.6649 71.5109C32.6649 72.59 33.3662 73.4571 34.5296 73.4571C35.693 73.4571 36.3777 72.65 36.3777 71.5109C36.3777 70.3718 35.7209 69.5601 34.5074 69.5601C33.2939 69.5601 32.6482 70.4317 32.6482 71.5201L32.6649 71.5109Z" fill="#374C9B"/>
<path d="M39.3613 73.7846V67.1067H39.918V73.7846H39.3613Z" fill="#374C9B"/>
<path d="M46.8475 72.461C46.8475 72.9222 46.8475 73.614 46.8475 73.7846H46.2909C46.2621 73.5225 46.251 73.2592 46.2575 72.996C46.1287 73.2877 45.8852 73.5351 45.5661 73.6982C45.247 73.8613 44.871 73.9308 44.4985 73.8953C43.708 73.8953 42.7061 73.6417 42.7061 72.2535V69.2512H43.2627V72.1428C43.2627 72.8069 43.5132 73.448 44.5987 73.448C45.8233 73.448 46.2686 72.8807 46.2686 71.6032V69.2697H46.8253L46.8475 72.461Z" fill="#374C9B"/>
<path d="M49.002 69.2513H50.0206V67.8401H50.5773V69.2513H51.8798V69.6802H50.5661V72.6271C50.5661 73.1344 50.6942 73.4204 51.223 73.4204C51.4105 73.425 51.5978 73.4079 51.7796 73.3696V73.7663C51.5613 73.828 51.3311 73.8561 51.1005 73.8493C50.3991 73.8493 49.9872 73.5587 49.9872 72.8347V69.6802H49.002V69.2513Z" fill="#374C9B"/>
<path d="M54.0342 67.1067H54.5908V67.9829H54.0342V67.1067ZM54.0342 69.2512H54.5908V73.7846H54.0342V69.2512Z" fill="#374C9B"/>
<path d="M61.8554 71.5109C61.8554 72.7699 61.0148 73.8952 59.3838 73.8952C57.9087 73.8952 56.9902 72.8898 56.9902 71.5201C56.9902 70.2242 57.853 69.145 59.4395 69.145C60.8923 69.145 61.8554 70.0858 61.8554 71.5109ZM57.5691 71.5109C57.5691 72.59 58.265 73.4571 59.4284 73.4571C60.5918 73.4571 61.2764 72.65 61.2764 71.5109C61.2764 70.3718 60.6196 69.5601 59.4061 69.5601C58.1926 69.5601 57.5691 70.4317 57.5691 71.5201V71.5109Z" fill="#374C9B"/>
<path d="M64.2602 70.395C64.2602 69.9984 64.2602 69.6156 64.2602 69.2512H64.8168C64.8168 69.3988 64.8502 69.9891 64.8168 70.1137C64.9504 69.8104 65.2001 69.5516 65.5277 69.3767C65.8553 69.2019 66.2429 69.1206 66.6315 69.1452C67.6056 69.1452 68.4684 69.6064 68.4684 70.8469V73.7846H67.9118V70.9207C67.9118 70.1137 67.5054 69.5879 66.5536 69.5879C65.251 69.5879 64.8057 70.5103 64.8057 71.4741V73.78H64.249L64.2602 70.395Z" fill="#374C9B"/>
<path d="M71.2741 72.5485C71.3536 72.8324 71.555 73.0825 71.8408 73.2523C72.1266 73.422 72.4773 73.4997 72.8272 73.4709C73.8013 73.4709 74.1965 73.102 74.1965 72.5947C74.1965 72.0874 73.9349 71.8245 72.7103 71.5801C71.2964 71.2987 70.9457 70.9436 70.9457 70.3441C70.9457 69.7446 71.5024 69.1404 72.7548 69.1404C73.2113 69.1002 73.6685 69.2108 74.027 69.4483C74.3856 69.6858 74.6165 70.0309 74.6697 70.4087H74.113C74.0522 70.1488 73.8762 69.9172 73.6198 69.7594C73.3633 69.6015 73.0449 69.5288 72.727 69.5555C71.7751 69.5555 71.5024 69.9475 71.5024 70.3072C71.5024 70.6669 71.764 70.9344 72.8439 71.1512C74.3914 71.4602 74.7699 71.8752 74.7699 72.5347C74.7699 73.3602 73.9628 73.8675 72.8161 73.8675C71.5636 73.8675 70.8678 73.3233 70.7119 72.507L71.2741 72.5485Z" fill="#374C9B"/>
<path d="M81.3101 72.0874C81.5383 72.9268 82.2174 73.4248 83.4754 73.4248C84.8726 73.4248 85.4126 72.8484 85.4126 72.1566C85.4126 71.4648 85.0285 70.999 83.3418 70.6532C81.6552 70.3073 81.0262 69.883 81.0262 68.9698C81.0262 68.1351 81.7554 67.3557 83.3975 67.3557C85.0396 67.3557 85.7911 68.2043 85.8913 68.9791H85.279C85.1064 68.2965 84.5665 67.8077 83.3641 67.8077C82.2508 67.8077 81.6552 68.232 81.6552 68.9422C81.6552 69.6524 82.1617 69.9107 83.5701 70.2012C85.7299 70.6624 86.0472 71.3588 86.0472 72.1197C86.0472 73.0421 85.2233 73.863 83.4532 73.863C81.5383 73.863 80.8369 72.9406 80.6699 72.0874H81.3101Z" fill="#374C9B"/>
<path d="M92.337 72.9221C92.3352 73.2106 92.3594 73.4989 92.4094 73.7845H91.8861C91.819 73.5566 91.7853 73.3227 91.786 73.0881C91.6204 73.3568 91.3606 73.5777 91.0407 73.7218C90.7208 73.8658 90.3557 73.9263 89.9935 73.8952C89.7635 73.9168 89.5305 73.8976 89.3102 73.8388C89.0898 73.7801 88.887 73.6832 88.7154 73.5545C88.5437 73.4258 88.4071 73.2683 88.3146 73.0924C88.2221 72.9166 88.1758 72.7265 88.1789 72.5347C88.1789 71.5385 89.1085 71.082 90.7506 71.082H91.786V70.6208C91.786 70.1596 91.6245 69.5601 90.3776 69.5601C89.2643 69.5601 89.1085 70.0213 88.986 70.4133H88.4294C88.4962 69.9152 88.8691 69.145 90.3776 69.145C91.6245 69.145 92.3259 69.5785 92.3259 70.5747L92.337 72.9221ZM91.7804 71.474H90.7116C89.4981 71.474 88.7411 71.7368 88.7411 72.5162C88.7331 72.6512 88.7611 72.786 88.823 72.911C88.8848 73.036 88.9791 73.1483 89.0991 73.2398C89.2191 73.3313 89.362 73.3998 89.5175 73.4406C89.673 73.4813 89.8374 73.4932 89.9991 73.4755C91.5633 73.4755 91.7804 72.6177 91.7804 71.6308V71.474Z" fill="#374C9B"/>
<path d="M95.1934 70.4871C95.1934 69.7261 95.1934 69.3987 95.1934 69.2511H95.75C95.75 69.3987 95.75 69.7123 95.75 70.2703C95.8935 69.9456 96.1521 69.6645 96.4918 69.4637C96.8315 69.2629 97.2365 69.1518 97.6538 69.145V69.6339C97.3837 69.641 97.1182 69.694 96.8738 69.7895C96.6294 69.885 96.4113 70.0211 96.2328 70.1892C96.0544 70.3574 95.9195 70.554 95.8365 70.7671C95.7534 70.9801 95.724 71.205 95.75 71.4279V73.7845H95.1934V70.4871Z" fill="#374C9B"/>
<path d="M99.7852 73.7846V67.1067H100.342V73.7846H99.7852Z" fill="#374C9B"/>
<path d="M83.6979 58.3904C82.6848 58.8516 81.7552 59.488 80.692 59.774C77.0292 60.7655 73.0993 59.3128 71.1677 56.3382C69.2361 53.3636 69.8819 49.5219 72.5649 47.3083C73.8735 46.1932 75.6239 45.5069 77.4943 45.3756C79.3648 45.2443 81.2296 45.6767 82.746 46.5934L83.954 47.3083C83.9929 46.9854 84.043 46.7871 84.0486 46.5842C84.0486 45.5696 84.0486 45.5696 85.34 45.565C85.9913 45.565 86.6482 45.565 87.2994 45.5373C87.9507 45.5097 88.1344 45.7034 88.1233 46.2153C88.0788 48.06 88.0676 49.9462 88.0621 51.8094C88.0621 54.1937 88.0231 56.5734 88.0621 58.9577C88.0621 59.6771 87.7726 59.9538 86.9488 59.88C86.8004 59.8731 86.6518 59.8731 86.5034 59.88C85.7909 59.88 84.9504 60.0461 84.4104 59.7924C83.954 59.5849 83.8983 58.847 83.6979 58.3904ZM74.3573 52.6626C74.3328 53.2024 74.4371 53.741 74.6643 54.2474C74.8915 54.7537 75.2371 55.218 75.6814 55.6134C76.1256 56.0089 76.6597 56.3278 77.253 56.5519C77.8464 56.776 78.4873 56.9008 79.1389 56.9193C81.861 56.9193 83.8983 55.1576 83.9039 52.7686C83.9224 52.229 83.8116 51.6916 83.578 51.1876C83.3443 50.6836 82.9924 50.223 82.5426 49.8323C82.0928 49.4417 81.5541 49.1287 80.9574 48.9116C80.3608 48.6945 79.7181 48.5774 79.0666 48.5673C76.3557 48.5673 74.3629 50.3059 74.3573 52.6626Z" fill="#272D67"/>
<path d="M53.9449 55.1528C53.6114 56.5143 52.6864 57.727 51.3454 58.561C47.5267 60.8991 40.6187 60.4057 37.7742 56.4488C34.7349 52.2566 37.1007 46.9484 42.695 45.6525C47.2763 44.601 52.2861 46.4273 53.6555 50.1583C53.9104 51.0864 54.0503 52.0336 54.073 52.9853C54.1342 53.571 53.7724 53.7924 53.0432 53.7877C49.3581 53.7877 45.6675 53.7877 41.9825 53.7877H40.9249C41.064 55.4987 42.8008 56.7993 45.0274 56.9192C46.8309 57.016 48.4397 56.6747 49.6866 55.4987C49.849 55.3291 50.0806 55.2143 50.3378 55.1759C51.4901 55.1344 52.6424 55.1528 53.9449 55.1528ZM49.7422 51.1267C49.7422 49.4111 47.6047 48.1706 45.0163 48.3228C42.6561 48.4611 40.897 49.7063 41.1197 51.1267H49.7422Z" fill="#272D67"/>
<path d="M122.174 53.8431C120.214 53.8431 118.277 53.8431 116.301 53.8431C115.689 53.8431 115.522 53.9815 115.744 54.5072C116.507 56.3519 118.528 57.2743 121.233 57.0253C122.455 56.9301 123.594 56.4714 124.439 55.734C124.755 55.4967 125.156 55.351 125.58 55.3189C126.315 55.2497 127.067 55.3189 127.807 55.2912C128.547 55.2636 128.737 55.5264 128.486 56.0937C128.193 56.7783 127.738 57.4078 127.149 57.9454C126.559 58.483 125.846 58.918 125.052 59.2251C123.76 59.7555 122.347 60.0505 120.907 60.0903C119.467 60.13 118.033 59.9137 116.702 59.4557C113.696 58.4595 112.054 56.4995 111.57 53.8939C110.974 50.6656 112.527 47.9262 115.728 46.455C119.914 44.5319 125.575 45.6618 128.002 48.9223C128.875 50.1809 129.283 51.624 129.176 53.073C129.176 53.7324 128.67 53.88 127.996 53.8754H122.174V53.8431ZM124.673 51.2651C124.768 49.5449 122.708 48.3689 119.919 48.4519C117.537 48.5211 115.6 49.9738 115.939 51.2651H124.673Z" fill="#272D67"/>
<path d="M154.905 46.5473C155.991 46.1748 157.107 45.8666 158.245 45.625C161.296 45.1638 165.381 46.3767 166.428 49.3144C166.729 50.2611 166.881 51.2362 166.879 52.2152C166.946 54.3274 166.912 56.4396 166.879 58.5564C166.879 59.7693 166.623 59.94 165.17 59.94C162.698 59.94 162.704 59.94 162.698 57.897C162.693 55.8539 162.654 53.8155 162.698 51.7771C162.754 48.9685 159.654 48.0877 157.032 49.01C155.445 49.5404 154.877 50.6195 154.872 51.9523C154.872 54.2859 154.872 56.6195 154.872 58.9577C154.872 59.8524 154.733 59.9584 153.625 59.9677C153.068 59.9677 152.512 59.9677 151.955 59.9677C151.109 60.0092 150.797 59.714 150.803 59.0084C150.831 56.1122 150.803 53.2114 150.803 50.3105V42.8625C150.803 41.8018 150.936 41.6957 152.245 41.6865C152.801 41.6865 153.319 41.6865 153.848 41.6865C154.638 41.6496 154.905 41.9678 154.889 42.5766C154.889 43.6557 154.889 44.7395 154.889 45.8048C154.85 46.0492 154.883 46.2844 154.905 46.5473Z" fill="#272D67"/>
<path d="M31.3894 44.7625V50.7578C31.3894 53.4604 31.3894 56.1613 31.3894 58.8608C31.3894 59.7555 31.2948 59.8339 30.2204 59.8385H28.1942C27.0364 59.8385 27.0141 59.8385 27.0086 58.8423C27.0086 56.0753 27.0086 53.3405 27.0086 50.5918V44.7579H25.8953C24.5593 44.7579 23.2233 44.7579 21.8874 44.7579C21.0413 44.7579 20.7073 44.4212 20.7296 43.7571C20.7296 43.296 20.7296 42.8348 20.7296 42.3736C20.7296 41.5342 20.9689 41.3313 21.982 41.3221C23.7633 41.3221 25.5446 41.3221 27.3314 41.3221L36.2378 41.2944C37.3122 41.2944 37.6072 41.4697 37.6183 42.3459C37.674 45.113 37.7185 44.6518 34.9186 44.7625C33.8164 44.8086 32.6864 44.7625 31.3894 44.7625Z" fill="#272D67"/>
<path d="M147.835 50.661C146.549 50.661 145.313 50.661 144.078 50.661C143.861 50.661 143.605 50.3935 143.454 50.1999C142.341 48.7656 140.883 48.2813 138.784 48.6411C137.926 48.7485 137.14 49.1017 136.563 49.6392C135.987 50.1767 135.656 50.8646 135.628 51.5834C135.531 52.6781 135.619 53.7786 135.889 54.8532C136.173 56.0568 137.32 56.6564 138.717 56.9192C140.281 57.2144 141.918 57.2006 142.831 55.9969C144.061 54.4058 145.798 55.0745 147.367 55.0238C147.924 55.0238 147.924 55.485 147.774 55.8816C147.393 56.8318 146.721 57.6842 145.825 58.3557C144.929 59.0273 143.838 59.4952 142.658 59.714C139.53 60.3412 136.574 60.0322 134.052 58.2382C131.531 56.4442 131.024 54.2029 131.269 51.6526C131.536 48.6918 133.34 46.7272 136.758 45.9063C140.487 45.0116 143.877 45.5788 146.616 47.977C147.041 48.3247 147.371 48.7447 147.581 49.2081C147.792 49.6715 147.878 50.1672 147.835 50.661Z" fill="#272D67"/>
<path d="M61.6268 46.9624C62.2781 46.6488 62.857 46.3767 63.4304 46.0954C64.7188 45.5204 66.2085 45.3345 67.6442 45.5696C67.8017 45.62 67.9417 45.702 68.0515 45.8082C68.1613 45.9145 68.2375 46.0417 68.2732 46.1784C68.3365 46.9139 68.3047 47.6529 68.1786 48.3828C68.1115 48.5288 68.0048 48.66 67.8668 48.7663C67.7288 48.8727 67.5631 48.9513 67.3826 48.9962C66.9145 49.0607 66.4368 49.0607 65.9687 48.9962C63.6196 48.8532 61.8773 50.0246 61.7938 51.9662C61.6992 54.2721 61.7493 56.578 61.7326 58.8839C61.7326 59.8063 61.6992 59.8063 60.5692 59.8063C59.7676 59.8063 58.966 59.8063 58.1644 59.8063C57.6078 59.8063 57.4185 59.6172 57.4185 59.1837C57.4185 54.9131 57.4185 50.6411 57.4185 46.3675C57.4043 46.2817 57.4138 46.1944 57.4466 46.1122C57.4793 46.03 57.5343 45.9551 57.6074 45.8932C57.6805 45.8313 57.7697 45.7841 57.8681 45.7552C57.9666 45.7263 58.0718 45.7165 58.1756 45.7264C58.9772 45.7264 59.7787 45.7264 60.5803 45.7264C61.5155 45.7311 61.4821 46.3721 61.6268 46.9624Z" fill="#272D67"/>
<path d="M192.918 44.103C193.553 56.0937 183.561 64.644 172.183 67.5217C169.005 68.3288 165.475 68.1997 162.096 68.3934C161.783 68.376 161.485 68.2721 161.25 68.0982C161.149 68.0372 161.064 67.9595 161.001 67.8699C160.937 67.7803 160.897 67.6808 160.882 67.5777C160.868 67.4746 160.879 67.3701 160.915 67.2707C160.952 67.1714 161.013 67.0794 161.095 67.0006C161.35 66.7097 161.702 66.4869 162.108 66.3596C164.807 65.7877 167.674 65.6678 170.268 64.8561C178.79 62.172 184.062 57.1129 186.211 49.6372C189.094 39.6572 181.563 29.396 170.892 25.7849C156.458 20.901 140.51 28.0632 136.713 39.5512C136.505 40.0482 136.179 40.5059 135.756 40.8978C135.662 40.9943 135.538 41.0672 135.398 41.1084C135.257 41.1497 135.105 41.1575 134.96 41.1312C134.814 41.1048 134.68 41.0453 134.573 40.9592C134.465 40.8732 134.389 40.7641 134.353 40.6442C134.232 40.1074 134.264 39.5546 134.448 39.03C137.387 29.3775 144.501 22.8565 156.224 20.3384C161.75 19.1017 167.594 19.2422 173.025 20.7425C178.455 22.2428 183.232 25.0362 186.756 28.7734C191.293 33.5743 192.996 37.7341 192.918 44.103Z" fill="#ED6A06"/>
<path d="M173.102 70.5656C173.113 70.6597 173.089 70.7544 173.034 70.8369C172.978 70.9194 172.893 70.9857 172.79 71.0268C170.758 71.7924 168.755 72.6133 166.667 73.2912C164.674 73.9415 162.615 74.4488 160.544 74.9514C159.751 75.1939 158.9 75.2746 158.061 75.1866C156.742 74.9468 155.311 74.5641 155.111 73.1851C154.933 71.9215 155.606 70.8792 157.087 70.5103C159.002 69.9933 160.975 69.6379 162.976 69.4496C165.452 69.2996 167.936 69.2858 170.413 69.4081C171.205 69.5028 171.975 69.6972 172.696 69.9845C172.792 70.0137 172.877 70.0645 172.941 70.1313C173.005 70.198 173.045 70.2781 173.057 70.3627L173.102 70.5656Z" fill="#ED6A06"/>
<path d="M159.214 80.6422C159.09 80.656 158.965 80.656 158.841 80.6422C157.071 80.4669 156.108 80.181 155.796 79.563C155.117 78.2348 156.909 77.6584 158.023 77.1418C162.224 75.1875 166.902 74.0416 171.711 73.7891C172.402 73.8416 173.066 74.0418 173.637 74.3701C173.709 74.4024 173.772 74.4463 173.824 74.4992C173.875 74.5521 173.913 74.6129 173.936 74.6781C173.959 74.7434 173.966 74.8117 173.957 74.8792C173.947 74.9467 173.922 75.0119 173.881 75.0711C173.633 75.5568 173.252 75.9878 172.768 76.3302C168.671 78.5023 164.318 80.158 159.214 80.6422Z" fill="#ED6A06"/>
<path d="M156.224 85.1618C156.155 85.1427 156.093 85.1106 156.042 85.068C155.992 85.0254 155.954 84.9735 155.932 84.9166C155.909 84.8596 155.904 84.7992 155.915 84.74C155.926 84.6809 155.954 84.6247 155.996 84.5761C156.327 84.0345 156.891 83.615 157.576 83.4001C161.746 81.9058 165.926 80.4577 170.179 79.0973C171.112 78.8466 172.108 78.8021 173.068 78.9681C173.619 79.1136 174.122 79.363 174.538 79.6968C174.63 79.7691 174.692 79.8643 174.715 79.9682C174.737 80.0721 174.717 80.1791 174.66 80.2733C174.504 80.6514 174.471 80.8682 173.547 81.3432C170.903 82.3798 168.192 83.2928 165.425 84.078C163.101 84.7657 160.677 85.1968 158.217 85.3601C157.543 85.4528 156.852 85.384 156.224 85.1618Z" fill="#ED6A06"/>
<path d="M158.111 89.6353C157.952 89.5873 157.82 89.4941 157.737 89.3723C157.655 89.2505 157.627 89.1082 157.66 88.9712C157.789 88.6879 157.984 88.4284 158.235 88.2076C158.485 87.9869 158.785 87.8091 159.118 87.6845C162.458 86.3886 165.798 85.1157 169.277 84.0642C169.799 83.9923 170.334 84.0403 170.825 84.2029C171.315 84.3656 171.743 84.6366 172.061 84.9866C172.417 85.314 171.966 86.4485 171.548 87.0665C171.248 87.5277 170.435 87.7721 169.801 87.9889C166.149 89.3032 162.603 90.1011 158.111 89.6353Z" fill="#ED6A06"/>
<path d="M100.632 63.2881H26.0186V64.4733H100.632V63.2881Z" fill="#ED6A06"/>
<path d="M113.362 42.6366C113.284 41.5574 113.128 41.4237 111.809 41.4237C108.124 41.4237 104.433 41.4836 100.754 41.396C100.631 41.396 100.509 41.396 100.386 41.396C100.386 41.396 98.026 41.396 96.562 41.4283H95.9441C95.8541 41.4302 95.7646 41.4395 95.6769 41.4559C95.618 41.4695 95.5603 41.4864 95.5043 41.5067C95.3878 41.5438 95.2856 41.6062 95.2082 41.6874C95.1308 41.7685 95.0812 41.8654 95.0646 41.9679L94.931 43.0424V43.6604C94.931 43.6604 94.8364 44.4444 95.5433 44.6519C95.6082 44.6748 95.6752 44.6933 95.7437 44.7073C95.8169 44.7222 95.8913 44.733 95.9663 44.7395C97.8423 45.0532 99.5567 44.8641 101.561 44.7395C102.535 44.6842 102.674 45.0116 102.674 45.7034C102.641 49.7618 102.674 53.8156 102.646 57.8693C102.646 59.9677 102.646 59.9677 105.207 59.9539C106.793 59.9539 106.943 59.8248 106.949 58.5334C106.949 54.2306 107.005 49.9324 106.999 45.6204C106.999 44.9932 107.211 44.7257 108.007 44.7672C108.959 44.8133 109.91 44.7672 110.862 44.7672C113.362 44.8133 113.484 44.6842 113.362 42.6366Z" fill="#272D67"/>
</svg>
