<svg width="156" height="70" viewBox="0 0 156 70" fill="none" xmlns="http://www.w3.org/2000/svg">
<rect y="0.455811" width="155.801" height="69.5442" fill="white"/>
<path d="M18.227 47.3088C18.3935 47.8543 18.889 48.178 19.8069 48.178C20.8303 48.178 21.2202 47.8033 21.2202 47.3537C21.2202 46.9041 20.9399 46.6014 19.7094 46.3766C18.4788 46.1517 18.0199 45.876 18.0199 45.2825C18.0199 44.74 18.556 44.2334 19.75 44.2334C20.944 44.2334 21.5004 44.7849 21.5694 45.2885H21.1227C20.9968 44.8449 20.6069 44.5271 19.7256 44.5271C18.9134 44.5271 18.4829 44.8029 18.4829 45.2645C18.4829 45.7261 18.8484 45.894 19.88 46.0828C21.4517 46.3825 21.6832 46.8352 21.6832 47.3297C21.6832 47.9292 21.0862 48.4628 19.7906 48.4628C18.3935 48.4628 17.8818 47.8633 17.7803 47.3088H18.227Z" fill="#374C9B"/>
<path d="M26.7763 46.9342C26.7763 47.7525 26.163 48.4838 24.9731 48.4838C23.8928 48.4838 23.2227 47.8304 23.2227 46.9402C23.2227 46.0979 23.8562 45.3965 25.0137 45.3965C26.0696 45.3965 26.7763 46.008 26.7763 46.9342ZM23.645 46.9342C23.645 47.6356 24.1568 48.1991 25.0056 48.1991C25.8544 48.1991 26.3539 47.6745 26.3539 46.9342C26.3539 46.1938 25.8747 45.6663 24.9893 45.6663C24.104 45.6663 23.6328 46.2328 23.6328 46.9402L23.645 46.9342Z" fill="#374C9B"/>
<path d="M28.5312 48.4118V44.0715H28.9374V48.4118H28.5312Z" fill="#374C9B"/>
<path d="M33.9933 47.5515C33.9933 47.8513 33.9933 48.3009 33.9933 48.4118H33.5871C33.5662 48.2414 33.558 48.0703 33.5628 47.8992C33.4688 48.0889 33.2911 48.2496 33.0583 48.3556C32.8255 48.4617 32.5512 48.5068 32.2794 48.4837C31.7027 48.4837 30.9717 48.3189 30.9717 47.4167V45.4653H31.3778V47.3447C31.3778 47.7763 31.5606 48.193 32.3525 48.193C33.246 48.193 33.5709 47.8243 33.5709 46.994V45.4773H33.977L33.9933 47.5515Z" fill="#374C9B"/>
<path d="M35.5654 45.4653H36.3086V44.5481H36.7148V45.4653H37.6651V45.7441H36.7067V47.6594C36.7067 47.9891 36.8001 48.175 37.1859 48.175C37.3227 48.178 37.4594 48.1669 37.592 48.142V48.3998C37.4327 48.4399 37.2648 48.4582 37.0965 48.4537C36.5848 48.4537 36.2843 48.2649 36.2843 47.7943V45.7441H35.5654V45.4653Z" fill="#374C9B"/>
<path d="M39.2363 44.0715H39.6425V44.641H39.2363V44.0715ZM39.2363 45.4653H39.6425V48.4118H39.2363V45.4653Z" fill="#374C9B"/>
<path d="M44.9421 46.9342C44.9421 47.7525 44.3289 48.4838 43.1389 48.4838C42.0627 48.4838 41.3926 47.8304 41.3926 46.9402C41.3926 46.0979 42.0221 45.3965 43.1795 45.3965C44.2395 45.3965 44.9421 46.008 44.9421 46.9342ZM41.8149 46.9342C41.8149 47.6356 42.3226 48.1991 43.1714 48.1991C44.0202 48.1991 44.5198 47.6745 44.5198 46.9342C44.5198 46.1938 44.0405 45.6663 43.1552 45.6663C42.2698 45.6663 41.8149 46.2328 41.8149 46.9402V46.9342Z" fill="#374C9B"/>
<path d="M46.6966 46.2087C46.6966 45.9509 46.6966 45.7021 46.6966 45.4653H47.1027C47.1027 45.5612 47.1271 45.9449 47.1027 46.0258C47.2002 45.8287 47.3824 45.6605 47.6214 45.5469C47.8604 45.4332 48.1432 45.3804 48.4267 45.3964C49.1374 45.3964 49.7669 45.6961 49.7669 46.5024V48.4118H49.3608V46.5504C49.3608 46.0258 49.0643 45.6841 48.3698 45.6841C47.4195 45.6841 47.0946 46.2836 47.0946 46.91V48.4088H46.6885L46.6966 46.2087Z" fill="#374C9B"/>
<path d="M51.8145 47.6085C51.8724 47.793 52.0194 47.9556 52.2279 48.0659C52.4365 48.1762 52.6923 48.2268 52.9476 48.208C53.6583 48.208 53.9467 47.9682 53.9467 47.6385C53.9467 47.3088 53.7558 47.1379 52.8623 46.9791C51.8307 46.7962 51.5749 46.5654 51.5749 46.1758C51.5749 45.7861 51.981 45.3934 52.8948 45.3934C53.2278 45.3673 53.5614 45.4392 53.823 45.5936C54.0846 45.7479 54.2531 45.9722 54.2919 46.2177H53.8857C53.8413 46.0488 53.7129 45.8983 53.5258 45.7957C53.3387 45.6931 53.1064 45.6459 52.8745 45.6632C52.18 45.6632 51.981 45.918 51.981 46.1518C51.981 46.3856 52.1719 46.5594 52.9598 46.7003C54.0888 46.9012 54.365 47.1709 54.365 47.5996C54.365 48.1361 53.7761 48.4658 52.9395 48.4658C52.0257 48.4658 51.518 48.1121 51.4043 47.5816L51.8145 47.6085Z" fill="#374C9B"/>
<path d="M59.137 47.3088C59.3035 47.8543 59.799 48.178 60.7168 48.178C61.7362 48.178 62.1301 47.8033 62.1301 47.3537C62.1301 46.9041 61.8499 46.6014 60.6193 46.3766C59.3888 46.1517 58.9298 45.876 58.9298 45.2825C58.9298 44.74 59.4619 44.2334 60.6599 44.2334C61.858 44.2334 62.4063 44.7849 62.4794 45.2885H62.0327C61.9068 44.8449 61.5128 44.5271 60.6356 44.5271C59.8233 44.5271 59.3888 44.8029 59.3888 45.2645C59.3888 45.7261 59.7583 45.894 60.7858 46.0828C62.3616 46.3825 62.5931 46.8352 62.5931 47.3297C62.5931 47.9292 61.9921 48.4628 60.7006 48.4628C59.3035 48.4628 58.7918 47.8633 58.6699 47.3088H59.137Z" fill="#374C9B"/>
<path d="M67.1823 47.8514C67.181 48.0389 67.1986 48.2263 67.2351 48.4119H66.8534C66.8044 48.2637 66.7798 48.1118 66.7803 47.9593C66.6595 48.1339 66.4699 48.2775 66.2365 48.3711C66.0031 48.4648 65.7368 48.504 65.4725 48.4838C65.3047 48.4979 65.1347 48.4854 64.9739 48.4472C64.8131 48.409 64.6652 48.346 64.54 48.2624C64.4147 48.1787 64.315 48.0764 64.2476 47.9621C64.1801 47.8478 64.1463 47.7242 64.1485 47.5996C64.1485 46.9521 64.8268 46.6554 66.0249 46.6554H66.7803V46.3557C66.7803 46.0559 66.6625 45.6663 65.7528 45.6663C64.9405 45.6663 64.8268 45.966 64.7374 46.2208H64.3313C64.38 45.8971 64.6521 45.3965 65.7528 45.3965C66.6625 45.3965 67.1742 45.6782 67.1742 46.3257L67.1823 47.8514ZM66.7762 46.9102H65.9964C65.1111 46.9102 64.5587 47.081 64.5587 47.5876C64.5529 47.6753 64.5733 47.7629 64.6185 47.8442C64.6636 47.9254 64.7324 47.9984 64.82 48.0579C64.9075 48.1173 65.0117 48.1619 65.1252 48.1884C65.2387 48.2148 65.3586 48.2226 65.4766 48.2111C66.6178 48.2111 66.7762 47.6535 66.7762 47.0121V46.9102Z" fill="#374C9B"/>
<path d="M69.2656 46.2687C69.2656 45.7742 69.2656 45.5613 69.2656 45.4654H69.6718C69.6718 45.5613 69.6718 45.7652 69.6718 46.1279C69.7765 45.9168 69.9651 45.7341 70.213 45.6036C70.4608 45.4731 70.7563 45.4009 71.0607 45.3965V45.7142C70.8637 45.7189 70.67 45.7533 70.4917 45.8154C70.3134 45.8775 70.1542 45.9659 70.024 46.0752C69.8938 46.1844 69.7954 46.3123 69.7348 46.4507C69.6742 46.5892 69.6528 46.7354 69.6718 46.8802V48.4119H69.2656V46.2687Z" fill="#374C9B"/>
<path d="M72.6162 48.4118V44.0715H73.0223V48.4118H72.6162Z" fill="#374C9B"/>
<path d="M60.879 38.4063C60.1398 38.706 59.4616 39.1197 58.6859 39.3055C56.0136 39.95 53.1463 39.0058 51.737 37.0724C50.3278 35.1391 50.7989 32.6423 52.7564 31.2035C53.7111 30.4788 54.9882 30.0327 56.3529 29.9474C57.7176 29.862 59.0782 30.1431 60.1845 30.7389L61.0658 31.2035C61.0942 30.9937 61.1308 30.8648 61.1348 30.7329C61.1348 30.0735 61.1348 30.0735 62.0771 30.0705C62.5522 30.0705 63.0315 30.0705 63.5066 30.0525C63.9818 30.0345 64.1158 30.1604 64.1077 30.4931C64.0752 31.6921 64.0671 32.918 64.063 34.129C64.063 35.6786 64.0346 37.2253 64.063 38.775C64.063 39.2426 63.8518 39.4224 63.2508 39.3745C63.1426 39.37 63.0341 39.37 62.9259 39.3745C62.406 39.3745 61.7928 39.4824 61.3988 39.3175C61.0658 39.1826 61.0252 38.703 60.879 38.4063ZM54.0642 34.6835C54.0462 35.0344 54.1224 35.3844 54.2881 35.7135C54.4539 36.0426 54.7061 36.3444 55.0302 36.6014C55.3543 36.8584 55.744 37.0657 56.1769 37.2114C56.6097 37.357 57.0773 37.4381 57.5528 37.4501C59.5388 37.4501 61.0252 36.3051 61.0293 34.7524C61.0428 34.4017 60.9619 34.0524 60.7915 33.7249C60.621 33.3973 60.3643 33.0979 60.0361 32.844C59.7079 32.5901 59.3148 32.3867 58.8795 32.2456C58.4442 32.1044 57.9754 32.0284 57.5 32.0218C55.5222 32.0218 54.0682 33.1518 54.0642 34.6835Z" fill="#272D67"/>
<path d="M39.1713 36.3023C38.9279 37.1872 38.253 37.9753 37.2747 38.5174C34.4886 40.0371 29.4486 39.7164 27.3733 37.1446C25.1558 34.4199 26.8818 30.9699 30.9634 30.1276C34.3059 29.4442 37.961 30.6312 38.9601 33.0561C39.1461 33.6593 39.2482 34.275 39.2647 34.8935C39.3094 35.2742 39.0454 35.4181 38.5133 35.4151C35.8248 35.4151 33.1322 35.4151 30.4436 35.4151H29.6719C29.7735 36.5271 31.0406 37.3724 32.6651 37.4503C33.981 37.5132 35.1547 37.2914 36.0644 36.5271C36.1829 36.4168 36.3519 36.3422 36.5396 36.3173C37.3803 36.2903 38.2209 36.3023 39.1713 36.3023ZM36.105 33.6855C36.105 32.5705 34.5455 31.7642 32.657 31.8631C30.935 31.953 29.6516 32.7623 29.8141 33.6855H36.105Z" fill="#272D67"/>
<path d="M88.9501 35.4509C87.5206 35.4509 86.1073 35.4509 84.6655 35.4509C84.2188 35.4509 84.0969 35.5408 84.2594 35.8825C84.8158 37.0815 86.29 37.681 88.2638 37.5191C89.1554 37.4573 89.9864 37.1591 90.6031 36.6799C90.8336 36.5256 91.1258 36.431 91.4357 36.4101C91.9717 36.3651 92.52 36.4101 93.0602 36.3921C93.6003 36.3741 93.7384 36.545 93.5556 36.9137C93.3418 37.3586 93.0101 37.7678 92.5799 38.1172C92.1497 38.4666 91.6296 38.7493 91.0498 38.9489C90.1079 39.2936 89.0767 39.4854 88.0259 39.5112C86.975 39.5371 85.9289 39.3964 84.9579 39.0988C82.7648 38.4513 81.5667 37.1774 81.2134 35.4839C80.7789 33.3857 81.912 31.6052 84.2472 30.649C87.3013 29.3991 91.4316 30.1335 93.2023 32.2527C93.8393 33.0707 94.1373 34.0086 94.0592 34.9503C94.0592 35.379 93.6897 35.4749 93.1982 35.4719H88.9501V35.4509ZM90.7737 33.7754C90.8427 32.6573 89.34 31.893 87.3053 31.9469C85.5671 31.9919 84.1538 32.9361 84.4015 33.7754H90.7737Z" fill="#272D67"/>
<path d="M112.831 30.709C113.623 30.4669 114.437 30.2666 115.268 30.1095C117.493 29.8098 120.474 30.5981 121.238 32.5075C121.458 33.1228 121.568 33.7565 121.567 34.3928C121.616 35.7657 121.591 37.1385 121.567 38.5143C121.567 39.3026 121.38 39.4135 120.32 39.4135C118.517 39.4135 118.521 39.4135 118.517 38.0857C118.513 36.7578 118.484 35.4329 118.517 34.1081C118.558 32.2827 116.295 31.7101 114.383 32.3096C113.225 32.6543 112.811 33.3557 112.807 34.222C112.807 35.7387 112.807 37.2554 112.807 38.7751C112.807 39.3566 112.705 39.4255 111.897 39.4315C111.491 39.4315 111.085 39.4315 110.679 39.4315C110.061 39.4585 109.834 39.2666 109.838 38.808C109.858 36.9257 109.838 35.0403 109.838 33.1549V28.3141C109.838 27.6247 109.935 27.5557 110.89 27.5497C111.296 27.5497 111.674 27.5497 112.059 27.5497C112.636 27.5257 112.831 27.7326 112.819 28.1282C112.819 28.8296 112.819 29.534 112.819 30.2264C112.79 30.3853 112.815 30.5382 112.831 30.709Z" fill="#272D67"/>
<path d="M22.7156 29.549V33.4456C22.7156 35.2021 22.7156 36.9576 22.7156 38.7121C22.7156 39.2936 22.6466 39.3446 21.8627 39.3475H20.3844C19.5397 39.3475 19.5234 39.3475 19.5194 38.7001C19.5194 36.9017 19.5194 35.1242 19.5194 33.3377V29.546H18.7071C17.7324 29.546 16.7577 29.546 15.783 29.546C15.1657 29.546 14.922 29.3272 14.9383 28.8955C14.9383 28.5958 14.9383 28.2961 14.9383 27.9963C14.9383 27.4508 15.1129 27.3189 15.852 27.3129C17.1517 27.3129 18.4513 27.3129 19.7549 27.3129L26.253 27.2949C27.0368 27.2949 27.2521 27.4088 27.2602 27.9783C27.3008 29.7768 27.3333 29.477 25.2905 29.549C24.4863 29.579 23.6619 29.549 22.7156 29.549Z" fill="#272D67"/>
<path d="M107.674 33.3827C106.735 33.3827 105.834 33.3827 104.932 33.3827C104.774 33.3827 104.587 33.2089 104.477 33.083C103.665 32.1508 102.601 31.8361 101.07 32.0699C100.444 32.1397 99.8705 32.3692 99.4498 32.7186C99.0292 33.068 98.7876 33.5151 98.7672 33.9822C98.6967 34.6937 98.7609 35.409 98.9581 36.1074C99.1652 36.8897 100.002 37.2794 101.021 37.4502C102.162 37.6421 103.356 37.6331 104.022 36.8507C104.92 35.8166 106.187 36.2513 107.332 36.2183C107.739 36.2183 107.739 36.518 107.629 36.7758C107.351 37.3934 106.861 37.9474 106.207 38.3839C105.553 38.8204 104.757 39.1245 103.897 39.2667C101.614 39.6743 99.4576 39.4735 97.6179 38.3075C95.7781 37.1415 95.4085 35.6847 95.5872 34.0272C95.7822 32.1028 97.098 30.8259 99.5916 30.2924C102.313 29.7109 104.786 30.0796 106.784 31.6382C107.095 31.8642 107.335 32.1372 107.488 32.4384C107.642 32.7396 107.705 33.0618 107.674 33.3827Z" fill="#272D67"/>
<path d="M44.7762 30.9787C45.2514 30.7749 45.6737 30.598 46.092 30.4152C47.0321 30.0415 48.119 29.9207 49.1664 30.0735C49.2814 30.1062 49.3835 30.1595 49.4636 30.2286C49.5437 30.2976 49.5993 30.3803 49.6254 30.4692C49.6715 30.9472 49.6484 31.4275 49.5563 31.9019C49.5074 31.9968 49.4295 32.082 49.3288 32.1512C49.2281 32.2203 49.1073 32.2714 48.9756 32.3006C48.634 32.3425 48.2855 32.3425 47.944 32.3006C46.2301 32.2077 44.9589 32.969 44.898 34.2309C44.829 35.7296 44.8655 37.2283 44.8534 38.727C44.8534 39.3265 44.829 39.3265 44.0045 39.3265C43.4197 39.3265 42.8349 39.3265 42.2501 39.3265C41.8439 39.3265 41.7059 39.2036 41.7059 38.9219C41.7059 36.1463 41.7059 33.3697 41.7059 30.5921C41.6954 30.5363 41.7024 30.4796 41.7263 30.4261C41.7502 30.3727 41.7903 30.324 41.8437 30.2838C41.897 30.2436 41.962 30.2129 42.0339 30.1941C42.1057 30.1753 42.1825 30.1689 42.2582 30.1754C42.843 30.1754 43.4278 30.1754 44.0127 30.1754C44.695 30.1784 44.6706 30.595 44.7762 30.9787Z" fill="#272D67"/>
<path d="M140.565 29.1204C141.028 36.9137 133.738 42.4709 125.437 44.3413C123.118 44.8659 120.543 44.7819 118.078 44.9078C117.849 44.8966 117.632 44.829 117.461 44.716C117.387 44.6763 117.325 44.6258 117.278 44.5676C117.232 44.5094 117.203 44.4447 117.192 44.3777C117.181 44.3107 117.19 44.2427 117.216 44.1782C117.243 44.1136 117.287 44.0538 117.347 44.0026C117.533 43.8135 117.79 43.6687 118.086 43.586C120.056 43.2143 122.147 43.1363 124.04 42.6088C130.258 40.8643 134.104 37.5761 135.671 32.7173C137.775 26.2309 132.28 19.5616 124.495 17.2147C113.964 14.0404 102.328 18.6954 99.5585 26.162C99.4065 26.485 99.1691 26.7825 98.86 27.0372C98.7919 27.0999 98.7014 27.1473 98.5988 27.1741C98.4961 27.2009 98.3854 27.206 98.279 27.1889C98.1727 27.1717 98.0749 27.133 97.9967 27.0771C97.9185 27.0212 97.8631 26.9503 97.8366 26.8723C97.7482 26.5235 97.7719 26.1642 97.9056 25.8232C100.05 19.5496 105.24 15.3113 113.793 13.6747C117.825 12.8709 122.089 12.9622 126.051 13.9373C130.013 14.9124 133.498 16.728 136.069 19.157C139.379 22.2773 140.622 24.981 140.565 29.1204Z" fill="#ED6A06"/>
<path d="M126.107 46.3196C126.116 46.3807 126.098 46.4423 126.058 46.4959C126.017 46.5495 125.955 46.5926 125.88 46.6193C124.398 47.1169 122.936 47.6504 121.413 48.091C119.959 48.5137 118.456 48.8434 116.945 49.1701C116.367 49.3277 115.745 49.3801 115.134 49.323C114.171 49.1671 113.128 48.9183 112.981 48.0221C112.851 47.2008 113.343 46.5234 114.423 46.2836C115.82 45.9476 117.26 45.7166 118.72 45.5942C120.526 45.4968 122.338 45.4877 124.146 45.5672C124.723 45.6288 125.285 45.7551 125.811 45.9419C125.881 45.9609 125.943 45.9939 125.99 46.0373C126.037 46.0807 126.066 46.1327 126.075 46.1877L126.107 46.3196Z" fill="#ED6A06"/>
<path d="M115.975 52.869C115.884 52.8779 115.793 52.8779 115.703 52.869C114.411 52.7551 113.709 52.5692 113.481 52.1676C112.986 51.3043 114.293 50.9296 115.106 50.5939C118.171 49.3237 121.584 48.5789 125.092 48.4148C125.597 48.4489 126.081 48.5791 126.497 48.7925C126.55 48.8135 126.597 48.842 126.634 48.8763C126.672 48.9107 126.7 48.9502 126.716 48.9926C126.733 49.035 126.738 49.0795 126.731 49.1233C126.724 49.1672 126.705 49.2096 126.676 49.2481C126.495 49.5637 126.217 49.8439 125.864 50.0664C122.875 51.4782 119.699 52.5542 115.975 52.869Z" fill="#ED6A06"/>
<path d="M113.793 55.8064C113.743 55.7939 113.698 55.7731 113.661 55.7454C113.624 55.7177 113.596 55.684 113.58 55.647C113.564 55.61 113.559 55.5707 113.567 55.5322C113.576 55.4938 113.596 55.4573 113.627 55.4257C113.868 55.0737 114.28 54.8011 114.78 54.6613C117.822 53.6902 120.872 52.749 123.975 51.8647C124.655 51.7018 125.382 51.6729 126.082 51.7808C126.485 51.8754 126.852 52.0375 127.155 52.2544C127.222 52.3014 127.268 52.3633 127.284 52.4308C127.3 52.4983 127.286 52.5679 127.244 52.6291C127.13 52.8749 127.106 53.0158 126.432 53.3245C124.503 53.9982 122.525 54.5916 120.506 55.102C118.81 55.5489 117.042 55.8291 115.247 55.9352C114.756 55.9955 114.251 55.9508 113.793 55.8064Z" fill="#ED6A06"/>
<path d="M115.17 58.714C115.054 58.6829 114.958 58.6222 114.897 58.5431C114.837 58.4639 114.817 58.3715 114.841 58.2824C114.935 58.0983 115.078 57.9296 115.26 57.7861C115.443 57.6426 115.662 57.5271 115.905 57.4461C118.342 56.6038 120.779 55.7765 123.317 55.0931C123.697 55.0464 124.088 55.0776 124.446 55.1833C124.804 55.289 125.116 55.4652 125.347 55.6926C125.607 55.9054 125.278 56.6428 124.974 57.0445C124.754 57.3442 124.162 57.5031 123.699 57.6439C121.034 58.4982 118.447 59.0168 115.17 58.714Z" fill="#ED6A06"/>
<path d="M73.2333 41.5896H18.7959V42.3599H73.2333V41.5896Z" fill="#ED6A06"/>
<path d="M82.5213 28.1671C82.4644 27.4657 82.3507 27.3788 81.3882 27.3788C78.6996 27.3788 76.007 27.4178 73.3225 27.3608C73.2331 27.3608 73.1438 27.3608 73.0544 27.3608C73.0544 27.3608 71.3324 27.3608 70.2643 27.3818H69.8135C69.7479 27.3831 69.6826 27.3891 69.6186 27.3998C69.5756 27.4086 69.5335 27.4196 69.4927 27.4328C69.4077 27.4569 69.3331 27.4975 69.2766 27.5502C69.2202 27.6029 69.184 27.6659 69.1718 27.7325L69.0744 28.4309V28.8326C69.0744 28.8326 69.0053 29.3421 69.5211 29.477C69.5685 29.4919 69.6174 29.5039 69.6673 29.513C69.7208 29.5227 69.775 29.5297 69.8298 29.534C71.1984 29.7378 72.4493 29.6149 73.9114 29.534C74.6221 29.498 74.7236 29.7108 74.7236 30.1604C74.6992 32.7982 74.7236 35.4329 74.7033 38.0676C74.7033 39.4314 74.7033 39.4315 76.5715 39.4225C77.729 39.4225 77.8386 39.3385 77.8427 38.4993C77.8427 35.7027 77.8833 32.9091 77.8792 30.1065C77.8792 29.6988 78.0336 29.525 78.6143 29.552C79.3088 29.5819 80.0033 29.552 80.6977 29.552C82.5213 29.5819 82.6106 29.498 82.5213 28.1671Z" fill="#272D67"/>
</svg>
