<svg width="120" height="120" viewBox="0 0 120 120" fill="none" xmlns="http://www.w3.org/2000/svg">
<path d="M45.7979 58.1C45.6479 58.1 45.5479 58.1 45.3979 58.1C45.1479 58.05 44.7978 58.05 44.4979 58.1C29.9978 57.65 19.0479 46.25 19.0479 32.2C19.0479 17.9 30.6979 6.25 44.9979 6.25C59.2979 6.25 70.9478 17.9 70.9478 32.2C70.8978 46.25 59.8979 57.65 45.9478 58.1C45.8979 58.1 45.8479 58.1 45.7979 58.1ZM44.9979 13.75C34.8479 13.75 26.5479 22.05 26.5479 32.2C26.5479 42.2 34.3478 50.25 44.2978 50.6C44.5979 50.55 45.2479 50.55 45.8979 50.6C55.6979 50.15 63.3978 42.1 63.4478 32.2C63.4478 22.05 55.1479 13.75 44.9979 13.75Z" fill="#ED6A06"/>
<path d="M82.6979 58.75C82.5479 58.75 82.3979 58.75 82.2479 58.7C80.1979 58.9 78.0979 57.45 77.8979 55.4C77.6979 53.35 78.9479 51.5 80.9979 51.25C81.5979 51.2 82.2479 51.2 82.7979 51.2C90.0979 50.8 95.7979 44.8 95.7979 37.45C95.7979 29.85 89.6479 23.7 82.0479 23.7C79.9979 23.75 78.2979 22.05 78.2979 20C78.2979 17.95 79.9979 16.25 82.0479 16.25C93.7479 16.25 103.298 25.8 103.298 37.5C103.298 49 94.2979 58.3 82.8479 58.75C82.7979 58.75 82.7479 58.75 82.6979 58.75Z" fill="#ED6A06"/>
<path d="M45.848 112.75C36.048 112.75 26.198 110.25 18.748 105.25C11.798 100.65 7.99805 94.35 7.99805 87.5C7.99805 80.65 11.798 74.3 18.748 69.65C33.748 59.7 58.048 59.7 72.948 69.65C79.848 74.25 83.698 80.55 83.698 87.4C83.698 94.25 79.898 100.6 72.948 105.25C65.448 110.25 55.648 112.75 45.848 112.75ZM22.898 75.95C18.098 79.15 15.498 83.25 15.498 87.55C15.498 91.8 18.148 95.9 22.898 99.05C35.348 107.4 56.348 107.4 68.798 99.05C73.598 95.85 76.198 91.75 76.198 87.45C76.198 83.2 73.548 79.1 68.798 75.95C56.348 67.65 35.348 67.65 22.898 75.95Z" fill="#ED6A06"/>
<path d="M91.6979 103.75C89.9479 103.75 88.3979 102.55 88.0479 100.75C87.6479 98.7 88.9479 96.75 90.9479 96.3C94.0979 95.65 96.9979 94.4 99.2479 92.65C102.098 90.5 103.648 87.8 103.648 84.95C103.648 82.1 102.098 79.4 99.2979 77.3C97.0979 75.6 94.3479 74.4 91.0979 73.65C89.0979 73.2 87.7979 71.2 88.2479 69.15C88.6979 67.15 90.6979 65.85 92.7479 66.3C97.0479 67.25 100.798 68.95 103.848 71.3C108.498 74.8 111.148 79.75 111.148 84.95C111.148 90.15 108.448 95.1 103.798 98.65C100.698 101.05 96.7979 102.8 92.4979 103.65C92.1979 103.75 91.9479 103.75 91.6979 103.75Z" fill="#ED6A06"/>
</svg>
