<svg width="300" height="300" viewBox="0 0 300 300" fill="none" xmlns="http://www.w3.org/2000/svg">
<path d="M137.5 26.375C198.873 26.375 248.625 76.1274 248.625 137.5C248.625 198.873 198.873 248.625 137.5 248.625C76.1274 248.625 26.375 198.873 26.375 137.5C26.375 76.1274 76.1274 26.375 137.5 26.375Z" fill="white" stroke="#272D67" stroke-width="3"/>
<path d="M175 128.125H100C94.875 128.125 90.625 123.875 90.625 118.75C90.625 113.625 94.875 109.375 100 109.375H175C180.125 109.375 184.375 113.625 184.375 118.75C184.375 123.875 180.125 128.125 175 128.125Z" fill="#272D67"/>
<path d="M137.5 165.625H100C94.875 165.625 90.625 161.375 90.625 156.25C90.625 151.125 94.875 146.875 100 146.875H137.5C142.625 146.875 146.875 151.125 146.875 156.25C146.875 161.375 142.625 165.625 137.5 165.625Z" fill="#272D67"/>
<path d="M274.876 236.875C270.751 229.25 262.001 225 250.251 225C241.376 225 233.751 228.625 229.251 234.875C224.751 241.125 223.751 249.5 226.501 257.875C231.876 274.125 241.251 277.75 246.376 278.375C247.126 278.5 247.876 278.5 248.751 278.5C254.251 278.5 262.751 276.125 271.001 263.75C277.626 254.125 278.876 244.5 274.876 236.875Z" fill="#272D67"/>
</svg>
