<svg width="120" height="120" viewBox="0 0 120 120" fill="none" xmlns="http://www.w3.org/2000/svg">
<path d="M42.5 45V50" stroke="#ED6A06" stroke-width="5" stroke-linecap="round" stroke-linejoin="round"/>
<path d="M77.5 45V50" stroke="#ED6A06" stroke-width="5" stroke-linecap="round" stroke-linejoin="round"/>
<path d="M77.5 73.4399C67.4731 82.1876 52.5269 82.1876 42.5 73.4399" stroke="#ED6A06" stroke-width="5" stroke-linecap="round" stroke-linejoin="round"/>
<path fill-rule="evenodd" clip-rule="evenodd" d="M96.6513 15.0862L97.4998 15.9477L98.3768 15.0207C99.8653 13.4327 101.938 12.5221 104.115 12.5003C106.291 12.4784 108.382 13.3472 109.902 14.905L110.08 15.086C113.306 18.4014 113.306 23.6829 110.08 26.9983L101.309 35.9047C100.304 36.9253 98.9319 37.5 97.4998 37.5C96.0676 37.5 94.6954 36.9253 93.6908 35.9047L84.9197 26.9985C81.6934 23.6831 81.6934 18.4016 84.9197 15.0862V15.0862C86.4669 13.5145 88.5801 12.6294 90.7855 12.6294C92.9909 12.6294 95.1041 13.5145 96.6513 15.0862Z" stroke="#ED6A06" stroke-width="5" stroke-linecap="round" stroke-linejoin="round"/>
<path d="M106.282 49.4445C111.136 70.1972 101.678 91.6585 83.0852 102.077C64.4925 112.496 41.25 109.36 26.0837 94.386C10.9175 79.4118 7.48536 56.211 17.6666 37.4871C27.8477 18.7632 49.1868 9.03191 69.9997 13.6215" stroke="#ED6A06" stroke-width="6" stroke-linecap="round" stroke-linejoin="round"/>
</svg>
