<svg width="60" height="60" viewBox="0 0 60 60" fill="none" xmlns="http://www.w3.org/2000/svg">
<path d="M42.5 51.25H17.5C10 51.25 5 47.5 5 38.75V21.25C5 12.5 10 8.75 17.5 8.75H42.5C50 8.75 55 12.5 55 21.25V38.75C55 47.5 50 51.25 42.5 51.25Z" fill="#272D67"/>
<path d="M29.9999 32.175C27.8999 32.175 25.7749 31.5251 24.1499 30.2001L16.3249 23.9501C15.5249 23.3001 15.3749 22.125 16.0249 21.325C16.6749 20.525 17.8499 20.3751 18.6499 21.0251L26.4749 27.2751C28.3749 28.8001 31.5999 28.8001 33.4999 27.2751L41.3249 21.0251C42.1249 20.3751 43.3249 20.5 43.9499 21.325C44.5999 22.125 44.4749 23.3251 43.6499 23.9501L35.8249 30.2001C34.2249 31.5251 32.0999 32.175 29.9999 32.175Z" fill="white"/>
</svg>
