<svg width="60" height="60" viewBox="0 0 60 60" fill="none" xmlns="http://www.w3.org/2000/svg">
<path opacity="0.58" d="M60 0H0V60H60V0Z" fill="white"/>
<path d="M17.3498 51.5749C21.0748 53.7499 25.3998 54.9999 29.9998 54.9999C44.0748 54.9999 55.7747 42.5749 54.9497 28.5249C54.0997 14.0249 40.9247 2.8499 25.7497 5.3499C15.2997 7.0749 6.92476 15.5499 5.29976 25.9999C4.34976 32.0499 5.59981 37.7749 8.32481 42.4999L6.09977 50.7749C5.59977 52.6499 7.32472 54.3499 9.17472 53.8249L17.3498 51.5749Z" fill="#272D67"/>
<path d="M42.5 37.9249C42.5 38.3749 42.4 38.8499 42.175 39.2999C41.95 39.7499 41.6751 40.175 41.3251 40.575C40.7001 41.25 40.0251 41.7499 39.2751 42.0499C38.5251 42.3749 37.7 42.5249 36.825 42.5249C35.55 42.5249 34.1749 42.2249 32.7499 41.5999C31.2999 40.9749 29.875 40.1499 28.45 39.1249C27 38.0749 25.65 36.8999 24.35 35.6249C23.05 34.3249 21.9001 32.9499 20.8501 31.5249C19.8251 30.0999 19 28.6749 18.4 27.2499C17.8 25.8249 17.5 24.4499 17.5 23.1499C17.5 22.2999 17.65 21.4749 17.95 20.7249C18.25 19.9499 18.725 19.2499 19.4 18.6249C20.2 17.8249 21.075 17.45 22 17.45C22.35 17.45 22.7001 17.5249 23.0251 17.6749C23.3501 17.8249 23.65 18.0499 23.875 18.3749L26.75 22.4999C26.975 22.8249 27.1501 23.0999 27.2501 23.3749C27.3751 23.6499 27.4249 23.9 27.4249 24.15C27.4249 24.45 27.325 24.7499 27.15 25.0499C26.975 25.3499 26.75 25.6499 26.45 25.9499L25.5 26.9499C25.35 27.0999 25.3 27.25 25.3 27.45C25.3 27.55 25.325 27.6499 25.35 27.7499C25.4 27.8499 25.425 27.9249 25.45 27.9999C25.675 28.4249 26.0751 28.9499 26.6251 29.5999C27.2001 30.2499 27.8 30.9249 28.45 31.5749C29.125 32.2499 29.775 32.8499 30.45 33.4249C31.1 33.9749 31.65 34.3499 32.075 34.5749C32.15 34.5999 32.225 34.6499 32.3 34.6749C32.4 34.7249 32.5 34.7249 32.625 34.7249C32.85 34.7249 33 34.65 33.15 34.5L34.1 33.5499C34.425 33.2249 34.725 32.9999 35 32.8499C35.3 32.6749 35.575 32.5749 35.9 32.5749C36.15 32.5749 36.4 32.6249 36.675 32.7499C36.95 32.8749 37.25 33.025 37.55 33.25L41.7 36.2C42.025 36.425 42.2501 36.7 42.4001 37C42.4251 37.275 42.5 37.5749 42.5 37.9249Z" fill="white"/>
</svg>
